<?xml version="1.0" encoding="utf-8"?>
<!-- Generator: Adobe Illustrator 27.4.1, SVG Export Plug-In . SVG Version: 6.00 Build 0)  -->
<svg version="1.1" id="Layer_1" xmlns="http://www.w3.org/2000/svg" xmlns:xlink="http://www.w3.org/1999/xlink" x="0px" y="0px"
	 viewBox="0 0 64 64" style="enable-background:new 0 0 64 64;" xml:space="preserve">
<style type="text/css">
	.st0{fill:#EE2424;}
	.st1{fill:#FFFFFF;}
	.st2{font-family:'AdobeClean-ExtraBold';}
	.st3{font-size:14px;}
	.st4{fill:#077858;}
	.st5{fill:#C7D53E;}
</style>
<g id="surface1">
	<path class="st0" d="M21.8,41.58c0-1.76,1.43-3.18,3.18-3.18h14.03c1.76,0,3.19,1.43,3.19,3.18v14.03c0,1.76-1.43,3.19-3.19,3.19
		H24.98c-1.76,0-3.18-1.43-3.18-3.19V41.58z"/>
	<path class="st0" d="M24.98,38.39h14.03c1.76,0,3.19,1.43,3.19,3.18v14.03c0,1.76-1.43,3.19-3.19,3.19H24.98
		c-1.76,0-3.18-1.43-3.18-3.19V41.58C21.8,39.82,23.22,38.39,24.98,38.39z"/>
	<path class="st1" d="M33.62,43l4.91,11.19h-3.48L32,47.27l-1.85,4.22h2.17l1.19,2.7h-8.03L30.39,43H33.62z"/>
</g>
<text transform="matrix(1 0 0 1 27.9241 32.9504)" class="st2 st3">+</text>
<g>
	<path class="st4" d="M37.01,3.49c-1.9,0-3.75,0.58-5.33,1.67c-0.11,0.08-0.86,0.63-0.89,0.65c-1.24,0.96-2.08,1.13-3.22,0.83
		c-0.07-0.02-0.4-0.13-0.5-0.18c-3.69-1.43-7.8,0.49-9.19,4.29c-1.39,3.8,0.48,8.03,4.16,9.46c1.53,0.59,3.22,0.63,4.77,0.09
		c1.71-0.53,2.63-0.38,3.7,0.4c0.21,0.16,0.73,0.5,0.84,0.58c4.26,3.22,10.25,2.27,13.38-2.11c3.13-4.39,2.21-10.55-2.05-13.77
		C41.03,4.16,39.05,3.49,37.01,3.49z"/>
	<g>
		<path class="st1" d="M33.56,14.87c-0.56,0.57-1.43,0.66-2.09,0.23l-0.64,1.04c1.13,0.74,2.61,0.58,3.57-0.39L33.56,14.87z
			 M32.41,10.64c-1.6-0.03-2.91,1.29-2.94,2.93c-0.01,0.59,0.15,1.17,0.47,1.67l5.24-2.3C34.88,11.61,33.74,10.67,32.41,10.64
			L32.41,10.64z M30.68,13.81c-0.1-0.96,0.57-1.83,1.5-1.93c0.56-0.06,1.12,0.17,1.49,0.61L30.68,13.81z M36.82,9.3v5.75l0.97,0.41
			l-0.46,1.13l-0.96-0.41c-0.19-0.08-0.36-0.23-0.47-0.41c-0.13-0.21-0.19-0.46-0.19-0.71V9.3H36.82z M28.39,9.3v5.75l0.96,0.41
			l-0.46,1.13l-0.96-0.41c-0.19-0.09-0.35-0.23-0.46-0.4c-0.13-0.21-0.19-0.46-0.19-0.71V9.3H28.39z"/>
	</g>
	<path class="st5" d="M41.59,12.04c0.85,0.42,1.2,1.47,0.79,2.34l0,0l1.07,0.53c0.69-1.48,0.08-3.26-1.36-3.97
		c-1.06-0.52-2.32-0.33-3.2,0.48l0.8,0.91C40.22,11.84,40.96,11.73,41.59,12.04L41.59,12.04z"/>
	<path class="st1" d="M40.12,15.2c-0.85-0.42-1.2-1.47-0.8-2.34l-1.07-0.53c-0.69,1.49-0.07,3.26,1.37,3.97
		c1.06,0.52,2.31,0.33,3.18-0.48l-0.8-0.9C41.48,15.4,40.74,15.51,40.12,15.2z M26.2,15.28v-1.66c0-1.64-1.29-2.97-2.88-2.97
		c-1.59,0-2.88,1.33-2.88,2.97s1.29,2.97,2.88,2.97c0.45,0,0.89-0.11,1.29-0.31l-0.46-1.12c-0.82,0.47-1.86,0.16-2.32-0.69
		c-0.14-0.26-0.21-0.55-0.21-0.85c0-0.29,0.07-0.57,0.2-0.82c0.23-0.45,0.64-0.77,1.12-0.89c0.13-0.03,0.26-0.05,0.38-0.05
		c0.94,0,1.71,0.78,1.71,1.75v1.65c-0.01,0.25,0.06,0.5,0.19,0.71c0.11,0.18,0.28,0.32,0.47,0.41l0.54,0.22l0.46-1.13L26.2,15.28z"
		/>
</g>
</svg>
