<?xml version="1.0" encoding="utf-8"?>
<!-- Generator: Adobe Illustrator 27.6.0, SVG Export Plug-In . SVG Version: 6.00 Build 0)  -->
<svg version="1.1" id="Layer_1" xmlns="http://www.w3.org/2000/svg" xmlns:xlink="http://www.w3.org/1999/xlink" x="0px" y="0px"
	 viewBox="0 0 64 64" style="enable-background:new 0 0 64 64;" xml:space="preserve">
<style type="text/css">
	.st0{fill:#231F20;}
	.st1{font-family:'AdobeClean-ExtraBold';}
	.st2{font-size:14px;}
	.st3{fill:#EB1000;}
	.st4{clip-path:url(#SVGID_00000040550236854272551190000001327319034683478921_);}
	.st5{fill:#FF6300;}
	.st6{fill:#462A71;}
</style>
<text transform="matrix(1 0 0 1 30.0488 34.6377)" class="st0 st1 st2">+</text>
<polygon class="st3" points="34.2,44.7 31.5,51.4 34.8,51.4 35.9,54.7 26,54.7 32.2,40 36.4,40 42.6,54.7 38.2,54.7 "/>
<g>
	<defs>
		<rect id="SVGID_1_" x="9.1" y="8.4" width="45.9" height="19.1"/>
	</defs>
	<clipPath id="SVGID_00000072965007483561550150000001753211775740705177_">
		<use xlink:href="#SVGID_1_"  style="overflow:visible;"/>
	</clipPath>
	
		<g id="g8" transform="matrix(3.0547239,0,0,3.0547239,85.766383,175.88074)" style="clip-path:url(#SVGID_00000072965007483561550150000001753211775740705177_);">
		<path id="path2" class="st5" d="M-14.7-53.3c-0.4,0-0.6,0.1-0.9,0.5c-0.2-0.4-0.5-0.5-0.8-0.5c-0.2,0-0.5,0.1-0.7,0.4l0-0.2
			c0-0.1-0.1-0.1-0.1-0.1h-0.5c-0.1,0-0.1,0-0.1,0.1v2.6c0,0.1,0,0.1,0.1,0.1h0.5c0.1,0,0.1,0,0.1-0.1v-1.4c0-0.3,0.2-0.6,0.5-0.6
			c0.3,0,0.5,0.2,0.5,0.6v1.4c0,0.1,0,0.1,0.1,0.1h0.5c0.1,0,0.1,0,0.1-0.1v-1.4c0-0.3,0.1-0.6,0.5-0.6c0.3,0,0.5,0.2,0.5,0.6v1.4
			c0,0.1,0,0.1,0.1,0.1h0.6c0.1,0,0.1,0,0.1-0.1V-52C-13.7-53-14.2-53.3-14.7-53.3L-14.7-53.3z M-19.7-53.3c-0.3,0-0.6,0.1-0.9,0.4
			v-1.5c0-0.1,0-0.1-0.1-0.1h-0.6c-0.1,0-0.1,0-0.1,0.1v3.9c0,0.1,0,0.1,0.1,0.1h0.5c0.1,0,0.1,0,0.1-0.1l0-0.3
			c0.3,0.3,0.6,0.4,0.9,0.4c0.8,0,1.4-0.6,1.4-1.5C-18.3-52.7-18.9-53.3-19.7-53.3L-19.7-53.3z M-19.8-51.1c-0.4,0-0.7-0.3-0.7-0.7
			s0.3-0.7,0.7-0.7c0.4,0,0.7,0.3,0.7,0.7C-19.1-51.4-19.4-51.1-19.8-51.1z M-15.3-54.6c-0.1,0-0.2,0.1-0.2,0.1v-0.3c0,0,0,0,0,0
			h-0.1c0,0,0,0,0,0v1c0,0,0,0,0,0h0.1c0,0,0,0,0,0v-0.1c0,0.1,0.1,0.1,0.3,0.1c0.2,0,0.4-0.2,0.4-0.4S-15-54.6-15.3-54.6
			L-15.3-54.6z M-15.3-54c-0.1,0-0.2-0.1-0.2-0.2c0-0.1,0.1-0.2,0.2-0.2c0.1,0,0.2,0.1,0.2,0.2C-15.1-54.1-15.2-54-15.3-54z
			 M-13.4-54.6c-0.1,0-0.2,0.1-0.2,0.1v-0.1c0,0,0,0,0,0h-0.1c0,0,0,0,0,0v0.7c0,0,0,0,0,0h0.1c0,0,0,0,0,0v-0.4
			c0-0.1,0.1-0.2,0.2-0.2c0.1,0,0.1,0.1,0.1,0.2v0.5c0,0,0,0,0,0h0.1c0,0,0,0,0,0v-0.5C-13.1-54.5-13.2-54.6-13.4-54.6L-13.4-54.6z
			 M-12.6-54.5c0.1,0,0.2,0,0.2,0.1v0c0,0,0,0,0,0h0.1c0,0,0,0,0,0c0,0,0,0,0-0.1v0l0,0c0,0,0,0,0,0c0,0-0.1-0.1-0.1-0.1
			c-0.1,0-0.1-0.1-0.2-0.1c-0.2,0-0.4,0.2-0.4,0.4c0,0.2,0.2,0.4,0.4,0.4c0.1,0,0.2,0,0.2-0.1c0,0,0.1,0,0.1-0.1c0,0,0,0,0,0l0,0v0
			c0-0.1,0-0.1,0-0.1c0,0,0,0,0,0h-0.1c0,0,0,0,0,0v0c0,0.1-0.1,0.1-0.2,0.1c-0.1,0-0.2-0.1-0.2-0.2C-12.8-54.4-12.7-54.5-12.6-54.5
			L-12.6-54.5z M-11.7-54.6c-0.2,0-0.4,0.2-0.4,0.4c0,0.2,0.2,0.4,0.4,0.4c0.2,0,0.4-0.2,0.4-0.4C-11.3-54.4-11.5-54.6-11.7-54.6z
			 M-11.7-54c-0.1,0-0.2-0.1-0.2-0.2s0.1-0.2,0.2-0.2c0.1,0,0.2,0.1,0.2,0.2C-11.5-54.1-11.6-54-11.7-54z M-14-54.6h-0.1
			c0,0,0,0,0,0v0.1c0-0.1-0.1-0.1-0.3-0.1c-0.2,0-0.4,0.2-0.4,0.4c0,0.2,0.1,0.4,0.4,0.4c0.1,0,0.2,0,0.3-0.1v0.1c0,0,0,0,0,0h0.1
			c0,0,0,0,0,0L-14-54.6C-14-54.6-14-54.6-14-54.6z M-14.4-54c-0.1,0-0.2-0.1-0.2-0.2c0-0.1,0.1-0.2,0.2-0.2c0.1,0,0.2,0.1,0.2,0.2
			C-14.2-54.1-14.3-54-14.4-54z"/>
		<path id="path4" class="st6" d="M-23.7-53c0-0.1,0.1-0.2,0.3-0.2c0.7,0.1,1.3,0.8,1.3,1.5c0,1.2-1,1.5-1.4,1.5
			c-0.1,0-0.2-0.1-0.2-0.2V-53z"/>
		<path id="path6" class="st5" d="M-24.9-51.6h0.7c0.3,0,0.5-0.2,0.5-0.5v-2.4c0-0.1-0.1-0.2-0.2-0.2h-0.3c-0.5,0-0.9,0.4-0.9,0.9v2
			C-25.1-51.7-25-51.6-24.9-51.6z M-10.8-50.8c0.4-0.2,0.6-0.6,0.6-1c0-0.3-0.1-0.6-0.2-0.9l0.3-0.3c0,0,0-0.1,0-0.2l-0.4-0.3
			c-0.1,0-0.1,0-0.2,0l-0.2,0.3c-0.2-0.1-0.5-0.2-0.7-0.2c-0.8,0-1.6,0.5-1.6,1.5c0,0.9,0.6,1.5,1.6,1.5c0.5,0,0.7,0.2,0.7,0.5
			c0,0.4-0.3,0.5-0.7,0.5c-0.4,0-0.6-0.1-0.7-0.5c0-0.1-0.1-0.1-0.1-0.1h-0.6c-0.1,0-0.1,0.1-0.1,0.1c0,0.8,0.6,1.2,1.5,1.2
			c0.8,0,1.6-0.4,1.6-1.3C-10.1-50-10.1-50.5-10.8-50.8L-10.8-50.8z M-11.7-51.1c-0.4,0-0.7-0.3-0.7-0.7c0-0.4,0.3-0.7,0.7-0.7
			c0.4,0,0.7,0.3,0.7,0.7C-11-51.4-11.3-51.1-11.7-51.1z"/>
	</g>
</g>
</svg>
