<?xml version="1.0" encoding="utf-8"?>
<!-- Generator: Adobe Illustrator 27.6.0, SVG Export Plug-In . SVG Version: 6.00 Build 0)  -->
<svg version="1.1" id="Layer_1" xmlns="http://www.w3.org/2000/svg" xmlns:xlink="http://www.w3.org/1999/xlink" x="0px" y="0px"
	 viewBox="0 0 64 64" style="enable-background:new 0 0 64 64;" xml:space="preserve">
<style type="text/css">
	.st0{fill:#231F20;}
	.st1{font-family:'AdobeClean-ExtraBold';}
	.st2{font-size:14px;}
	.st3{fill:#EB1000;}
	.st4{fill:#FF6300;}
	.st5{fill:#462A71;}
</style>
<text transform="matrix(1 0 0 1 30.0488 34.6377)" class="st0 st1 st2">+</text>
<polygon class="st3" points="34.2,44.7 31.5,51.4 34.8,51.4 35.9,54.7 26,54.7 32.2,40 36.4,40 42.6,54.7 38.2,54.7 "/>
<g id="g1525">
	<path id="path1043" class="st4" d="M42.9,8.3c-0.4,0-0.7,0.2-0.8,0.4V8.5c0,0,0-0.1-0.1-0.1h-0.4c0,0-0.1,0-0.1,0.1v2.4
		c0,0,0,0.1,0.1,0.1h0.4c0,0,0.1,0,0.1-0.1V9.5c0-0.4,0.2-0.6,0.6-0.6c0.3,0,0.5,0.2,0.5,0.5v1.5c0,0,0,0.1,0.1,0.1h0.4
		c0,0,0.1,0,0.1-0.1V9.3C43.8,8.7,43.5,8.3,42.9,8.3z M45.6,8.3c-0.7,0-1.3,0.6-1.3,1.3c0,0.7,0.5,1.3,1.3,1.3
		c0.3,0,0.5-0.1,0.7-0.2c0,0,0.2-0.1,0.3-0.3c0,0,0,0,0,0l0,0v0c0.1-0.2,0.1-0.3,0.1-0.3c0,0,0-0.1-0.1-0.1h-0.4c0,0-0.1,0-0.1,0.1
		v0c-0.1,0.2-0.3,0.4-0.6,0.4c-0.4,0-0.7-0.3-0.7-0.8c0-0.5,0.3-0.8,0.7-0.8c0.3,0,0.5,0.2,0.6,0.4v0c0,0,0,0.1,0.1,0.1h0.4
		c0,0,0.1,0,0.1-0.1c0,0,0-0.1-0.1-0.3v0l0,0c0,0,0,0,0,0c-0.1-0.1-0.2-0.2-0.3-0.3C46.1,8.4,45.9,8.3,45.6,8.3L45.6,8.3z M35.4,7.6
		C35.4,7.6,35.4,7.6,35.4,7.6l-0.1,3.3c0,0,0,0.1,0.1,0.1h0.4c0,0,0.1,0,0.1-0.1v-0.3c0.2,0.3,0.5,0.4,0.8,0.4
		c0.7,0,1.2-0.6,1.2-1.3c0-0.7-0.4-1.3-1.2-1.3c-0.4,0-0.7,0.2-0.8,0.4V7.7c0,0,0-0.1-0.1-0.1H35.4z M36.6,8.8
		c0.4,0,0.7,0.3,0.7,0.8c0,0.5-0.3,0.8-0.7,0.8c-0.4,0-0.7-0.3-0.7-0.8S36.2,8.8,36.6,8.8z M39.5,8.3c-0.7,0-1.2,0.6-1.2,1.3
		c0,0.7,0.4,1.3,1.2,1.3c0.4,0,0.7-0.1,0.8-0.4v0.3c0,0,0,0.1,0.1,0.1h0.4c0,0,0.1,0,0.1-0.1V8.5c0-0.1,0-0.1-0.1-0.1h-0.4
		c0,0-0.1,0-0.1,0.1v0.3C40.2,8.5,39.9,8.3,39.5,8.3z M39.6,8.8c0.4,0,0.7,0.3,0.7,0.8c0,0.5-0.3,0.8-0.7,0.8
		c-0.4,0-0.7-0.3-0.7-0.8S39.2,8.8,39.6,8.8z M48.5,8.3c-0.8,0-1.3,0.6-1.3,1.3c0,0.7,0.5,1.3,1.3,1.3c0.8,0,1.3-0.6,1.3-1.3
		C49.8,8.9,49.3,8.3,48.5,8.3z M48.5,8.8c0.4,0,0.7,0.3,0.7,0.8c0,0.5-0.3,0.8-0.7,0.8c-0.4,0-0.7-0.3-0.7-0.8S48.1,8.8,48.5,8.8z
		 M38.5,12.7L38.5,12.7c-1.3,0-2.1,0.5-2.9,1.7c-0.6-1.3-1.6-1.7-2.6-1.7c-0.7,0-1.7,0.2-2.3,1.3l-0.1-0.7c0-0.2-0.2-0.3-0.4-0.3
		h-1.5c-0.2,0-0.4,0.2-0.4,0.4v8.4c0,0.2,0.2,0.4,0.4,0.4h1.8c0.2,0,0.4-0.2,0.4-0.4v-4.5c0-1,0.5-2,1.5-2c1,0,1.5,0.8,1.5,2v4.5
		c0,0.2,0.2,0.4,0.4,0.4h1.8c0.2,0,0.4-0.2,0.4-0.4v-4.5c0-1,0.5-2,1.5-2c1,0,1.5,0.8,1.5,1.9v4.6c0,0.2,0.2,0.4,0.4,0.4h1.8
		c0.2,0,0.4-0.2,0.4-0.4v-4.7C42,13.7,40.3,12.7,38.5,12.7z M17,8.5c-0.2,0-0.4,0.2-0.4,0.4v12.8c0,0.2,0.2,0.4,0.4,0.4h1.7
		c0.2,0,0.3-0.1,0.4-0.3l0.1-0.9c0.9,1.1,1.9,1.4,3.1,1.4c2.7,0,4.6-1.9,4.6-4.8c0-3-1.9-4.8-4.6-4.8l0,0c-1.1,0-2.1,0.3-2.9,1.3
		V8.9c0-0.2-0.2-0.4-0.4-0.4L17,8.5z M22,15c1.3,0,2.4,1.1,2.4,2.4c0,1.3-1.1,2.4-2.4,2.4c-1.3,0-2.4-1.1-2.4-2.4S20.7,15,22,15z
		 M52,12C52,12,52,12,52,12c-0.2,0-0.3,0.1-0.3,0.1l-0.7,1c-0.7-0.3-1.5-0.5-2.4-0.5c-2.6,0-5.1,1.6-5.1,4.9c0,3,2,4.8,5.1,4.8
		c1.7,0,2.3,0.7,2.3,1.6c0,1.2-1.1,1.8-2.3,1.8c-1.2,0-2.1-0.4-2.3-1.6c0-0.2-0.2-0.3-0.4-0.3H44c-0.2,0-0.4,0.2-0.4,0.4
		c0.1,2.5,1.8,3.9,4.9,3.9c2.6,0,5.1-1.4,5.1-4.2c0-0.5,0-2.1-2.1-3c1.4-0.7,2-2,2-3.3c0-1.1-0.3-2.1-0.8-2.8l0.9-1
		c0.1-0.2,0.1-0.4-0.1-0.6l-1.4-1.1C52.2,12,52.1,12,52,12z M48.5,15.1c1.3,0,2.4,1.1,2.4,2.4c0,1.3-1,2.4-2.4,2.4
		c-1.3,0-2.4-1.1-2.4-2.4C46.2,16.1,47.2,15.1,48.5,15.1z"/>
	<path id="path313" class="st5" d="M9,13.6c0-0.5,0.4-0.8,0.9-0.7c2.4,0.4,4.3,2.5,4.3,5c0,4-3.2,4.8-4.5,5c-0.3,0-0.6-0.2-0.6-0.5
		V13.6z"/>
	<path id="path1041" class="st4" d="M7.4,8c-1.6,0-2.9,1.3-2.9,3v6.6c0,0.3,0.3,0.6,0.6,0.6h2.3c1,0,1.7-0.8,1.7-1.7V8.6
		C9,8.3,8.7,8,8.4,8H7.4z"/>
</g>
</svg>
