<?xml version="1.0" standalone="no"?>
<!DOCTYPE svg PUBLIC "-//W3C//DTD SVG 20010904//EN"
 "http://www.w3.org/TR/2001/REC-SVG-20010904/DTD/svg10.dtd">
<svg version="1.0" xmlns="http://www.w3.org/2000/svg"
 width="356.000000pt" height="356.000000pt" viewBox="0 0 356.000000 356.000000"
 preserveAspectRatio="xMidYMid meet">
<metadata>
Created by potrace 1.16, written by Peter Selinger 2001-2019
</metadata>
<g transform="translate(0.000000,356.000000) scale(0.100000,-0.100000)"
fill="#000000" stroke="none">
<path d="M1624 2979 c-256 -30 -566 -146 -758 -283 -43 -31 -80 -55 -83 -52
-2 2 26 25 64 52 80 56 101 74 55 48 -51 -29 -144 -105 -138 -112 8 -7 -34
-52 -47 -52 -6 0 0 12 14 28 13 15 -9 -4 -49 -43 -39 -38 -72 -71 -72 -74 0
-2 9 4 20 14 11 10 20 14 20 8 0 -13 -45 -55 -52 -48 -2 3 -13 -5 -24 -17
l-19 -23 23 19 c33 28 27 12 -17 -47 -79 -105 -144 -248 -176 -382 -25 -109
-20 -293 12 -438 14 -67 31 -129 38 -137 15 -20 65 -120 65 -131 0 -24 -23 -4
-41 36 -11 25 -22 45 -24 45 -12 0 92 -234 124 -279 25 -35 27 -48 4 -30 -23
19 43 -74 73 -102 13 -12 24 -18 24 -14 0 5 27 -17 60 -50 32 -32 57 -62 55
-65 -2 -4 8 -18 23 -31 25 -22 25 -22 8 -1 -11 12 -15 22 -9 22 12 0 49 -40
45 -49 -2 -3 11 -17 30 -30 l33 -24 -35 31 c-50 45 -31 39 42 -12 173 -120
425 -211 657 -236 113 -12 380 -7 484 10 217 34 442 121 605 232 24 17 46 28
48 25 3 -2 -18 -19 -46 -37 -28 -18 -49 -35 -46 -37 2 -2 27 12 55 33 29 20
49 39 47 42 -7 7 14 32 26 32 6 0 5 -7 -2 -15 -11 -13 -10 -14 4 -9 10 4 15
12 12 19 -2 7 3 20 13 29 26 24 37 19 15 -6 l-19 -23 22 19 c13 10 21 22 18
26 -2 4 26 33 63 65 l67 58 -60 -63 c-33 -35 -44 -50 -25 -34 19 16 60 56 90
89 30 33 40 47 22 31 -17 -17 -32 -25 -32 -20 0 13 56 67 65 62 4 -1 19 13 33
32 l25 35 -31 -35 c-45 -50 -39 -31 12 42 52 76 85 140 117 231 19 58 21 70 9
77 -21 13 19 125 45 125 10 0 21 10 26 23 5 13 5 22 -1 22 -6 0 -10 -10 -10
-22 0 -16 -3 -19 -8 -10 -5 7 -3 41 5 75 54 257 0 552 -138 754 -33 48 -37 62
-11 42 15 -13 16 -12 3 4 -8 9 -16 15 -19 12 -7 -7 -42 25 -42 38 0 6 10 2 23
-9 l22 -19 -19 23 c-11 12 -22 20 -24 17 -7 -7 -62 46 -62 59 0 5 15 -3 33
-19 17 -17 5 -2 -28 33 -33 34 -61 62 -64 62 -2 0 6 -11 19 -25 13 -14 19 -25
14 -25 -13 0 -66 55 -59 62 3 2 -5 13 -17 24 l-23 19 19 -22 c11 -13 15 -23 9
-23 -13 0 -45 35 -38 42 3 3 -3 11 -12 19 -16 13 -17 12 -4 -3 18 -24 6 -23
-30 3 -16 11 -27 24 -24 29 3 5 0 12 -6 16 -8 4 -9 3 -5 -4 12 -19 -1 -14 -82
32 -277 160 -678 236 -1028 195z m450 -94 c136 -21 181 -34 167 -48 -6 -6 -11
-18 -11 -27 0 -9 5 -5 13 10 15 30 34 35 73 18 16 -6 34 -13 39 -13 29 -5 65
-26 65 -40 0 -10 -28 -28 -72 -48 l-73 -33 -58 18 c-32 10 -101 25 -154 34
-133 23 -411 15 -531 -15 -98 -25 -116 -26 -131 -7 -7 8 -27 17 -46 20 -19 4
-41 17 -50 29 -8 12 -15 17 -15 11 0 -18 34 -43 68 -50 65 -13 57 -29 -36 -64
-109 -41 -232 -108 -321 -176 -38 -29 -72 -50 -77 -46 -4 4 -4 2 -1 -4 3 -6
-14 -30 -38 -54 -33 -33 -45 -39 -45 -26 0 9 4 15 8 12 5 -3 22 9 38 27 l29
32 -32 -28 c-17 -16 -35 -29 -39 -29 -9 1 -22 30 -23 52 0 12 2 11 10 -2 13
-24 29 -23 29 1 0 29 -11 52 -21 45 -5 -3 -7 -9 -4 -14 3 -4 -2 -10 -10 -14
-17 -6 -30 10 -15 19 5 3 10 12 10 18 0 7 -5 4 -11 -5 -5 -9 -16 -15 -24 -12
-8 4 -12 10 -9 15 3 5 10 6 16 3 6 -4 8 -3 5 3 -8 13 66 85 83 81 8 -2 14 3
15 10 0 15 26 33 37 26 5 -3 7 0 6 8 -2 7 5 12 14 12 10 -1 16 3 15 8 -1 6 4
13 12 16 9 3 11 0 6 -8 -5 -9 -4 -11 4 -6 6 4 9 11 6 16 -12 20 349 188 379
177 6 -3 20 1 31 9 26 19 65 18 82 -3 13 -16 13 -16 4 4 -10 20 -8 22 62 33
39 6 79 13 87 14 46 11 347 4 434 -9z m478 -151 c40 -20 105 -58 143 -85 72
-50 244 -217 212 -205 -11 3 -16 2 -12 -4 6 -9 -8 -14 -28 -11 -4 0 -6 -2 -5
-6 1 -5 -6 -32 -16 -61 l-18 -52 -21 27 c-43 58 -44 60 -24 43 31 -24 57 -23
57 2 0 20 -1 20 -18 5 -15 -13 -21 -14 -31 -4 -6 6 -16 12 -21 12 -4 0 -31 23
-58 52 -62 65 -230 176 -325 215 -40 17 -76 34 -80 38 -5 4 17 18 48 30 31 13
62 31 68 41 12 20 20 18 129 -37z m-618 20 c9 -3 16 -12 16 -20 0 -18 53 -19
81 -1 17 10 22 9 32 -4 12 -16 70 -35 94 -31 7 2 24 -5 37 -13 15 -10 33 -14
46 -10 26 8 60 -3 60 -19 0 -17 55 -40 75 -32 8 3 15 1 15 -4 0 -5 7 -7 15 -4
9 4 15 0 15 -9 0 -8 23 -29 50 -46 28 -17 50 -26 50 -21 0 13 37 13 45 0 3 -5
-1 -10 -9 -10 -9 0 -16 -5 -16 -11 0 -7 9 -9 24 -5 28 7 49 -13 40 -38 -7 -19
7 -21 25 -3 10 10 18 5 42 -23 31 -36 22 -55 -12 -24 -10 9 -19 13 -19 7 0
-18 37 -44 53 -37 19 7 89 -83 82 -104 -8 -22 5 -34 22 -21 12 10 16 10 24 -2
12 -19 11 -39 -1 -39 -5 0 -10 -7 -10 -16 0 -24 -17 -8 -55 52 -39 61 -42 69
-19 60 9 -3 12 -2 9 4 -4 6 -12 9 -18 8 -7 -1 -41 27 -77 64 -113 113 -263
201 -432 251 -128 39 -183 48 -320 54 -100 5 -125 9 -121 19 6 16 83 19 83 4
0 -5 7 -10 15 -10 8 0 15 6 15 14 0 8 6 17 13 19 6 3 13 6 14 6 1 1 8 -2 17
-5z m-584 -114 c17 -11 18 -10 -46 -39 -29 -13 -57 -21 -62 -17 -6 4 -14 1
-19 -7 -4 -7 -37 -32 -73 -56 -86 -59 -184 -141 -249 -209 -29 -32 -50 -52
-47 -45 4 6 2 14 -4 18 -15 9 -12 35 5 41 20 8 95 77 95 88 0 18 34 46 55 46
23 0 53 26 42 36 -3 3 4 15 15 26 15 15 22 17 34 8 17 -15 45 -6 38 13 -5 13
33 37 60 37 8 0 17 7 20 16 4 11 13 14 31 10 18 -5 23 -3 19 7 -3 9 7 18 28
24 43 14 41 14 58 3z m-551 -183 c6 -8 12 -22 14 -33 2 -10 9 -32 16 -48 10
-26 9 -32 -13 -55 -13 -14 -47 -66 -74 -115 -85 -149 -112 -323 -76 -488 20
-89 25 -148 13 -148 -22 0 -6 -29 19 -33 15 -2 -2 -2 -38 0 -36 2 -70 0 -77
-4 -6 -5 10 -8 35 -8 107 -1 121 -6 142 -50 21 -40 21 -40 1 -15 -11 14 -21
32 -22 40 0 8 -5 2 -9 -14 -5 -16 -6 -34 -3 -39 3 -6 1 -7 -5 -3 -6 3 -16 -2
-21 -13 -14 -26 -14 -34 2 -26 6 4 -2 -7 -20 -23 -17 -17 -28 -34 -25 -38 4
-4 1 -4 -5 0 -17 10 -16 26 1 26 7 0 20 8 27 18 11 14 11 15 -1 4 -21 -18 -58
-14 -70 8 -6 11 -8 25 -5 30 3 5 -4 16 -16 24 -12 8 -23 23 -24 33 -1 10 -6
27 -13 39 -52 96 -77 340 -48 477 25 125 114 326 137 312 5 -4 6 0 3 8 -8 23
15 31 35 13 19 -18 58 -21 80 -7 10 6 1 8 -25 4 -30 -4 -43 -1 -54 12 -18 21
-3 49 29 53 14 2 21 9 18 17 -8 18 21 55 42 55 10 0 24 -6 30 -13z m2143 -44
c10 -9 18 -25 18 -35 0 -11 4 -17 9 -14 14 9 92 -164 117 -263 27 -105 32
-255 13 -357 -12 -62 -17 -90 -18 -113 -1 -7 -7 -11 -15 -8 -8 3 -16 -2 -19
-13 -3 -11 0 -21 7 -23 6 -3 0 -16 -16 -33 l-27 -28 -26 24 c-14 13 -25 28
-25 34 0 6 -9 17 -20 24 -11 7 -20 16 -20 20 0 13 121 64 139 59 10 -2 18 1
18 8 0 7 -9 10 -21 7 -31 -7 -146 -61 -146 -68 0 -4 21 -31 46 -61 29 -34 52
-52 61 -49 27 11 -61 -135 -138 -228 -75 -91 -124 -136 -229 -212 -74 -54
-159 -103 -142 -81 12 14 11 16 -10 15 -12 -1 -34 3 -48 10 -14 6 -43 18 -65
27 l-40 16 71 37 c39 21 95 55 125 77 29 21 59 38 66 38 6 0 11 3 10 6 -1 3
31 38 71 78 215 214 312 519 243 766 -12 43 -18 83 -15 89 4 6 2 8 -3 5 -6 -4
-20 15 -31 44 -12 27 -16 47 -10 43 8 -5 9 -2 5 9 -4 11 -1 17 8 17 8 0 12 -6
9 -14 -3 -8 -1 -17 5 -21 7 -3 11 3 11 15 0 16 4 20 19 15 20 -6 71 13 71 27
0 5 -11 1 -25 -8 -16 -10 -32 -13 -47 -8 -13 4 -32 7 -43 6 -42 -4 -49 11 -30
67 22 68 52 86 87 54z m-1783 -106 c19 -7 43 -25 55 -40 19 -26 19 -30 6 -55
-9 -15 -40 -44 -69 -64 l-54 -38 50 0 c36 0 58 -6 77 -21 23 -18 27 -18 32 -5
9 25 193 158 212 154 38 -7 22 -36 -48 -88 -83 -60 -88 -79 -7 -25 78 52 91
39 21 -20 -32 -28 -62 -54 -66 -60 -27 -37 28 -65 79 -41 43 21 50 4 12 -28
-22 -19 -42 -26 -72 -26 -47 0 -123 33 -137 60 -10 18 -12 17 -38 -7 -47 -45
-100 -63 -184 -63 l-78 0 0 180 c0 178 0 181 23 190 32 13 146 11 186 -3z
m538 -57 c2 -8 -15 -26 -38 -40 l-41 -25 31 -3 c20 -2 51 7 86 26 30 17 57 26
60 22 6 -9 -90 -90 -106 -90 -5 0 -9 -45 -9 -100 l0 -100 -61 0 -60 0 3 104 3
105 -31 -20 c-37 -22 -44 -23 -44 -6 0 29 152 147 185 144 11 -1 21 -9 22 -17z
m523 -161 c0 -31 -67 -97 -133 -130 -34 -18 -40 -18 -66 -5 -41 22 -91 74 -91
96 0 26 34 63 110 119 l65 48 58 -50 c44 -38 57 -56 57 -78z m239 96 c93 -32
149 -102 153 -191 l3 -49 -71 -3 -71 -3 5 53 c5 68 -16 121 -60 148 l-33 20
-5 -108 -5 -107 -57 -3 -58 -3 0 131 0 130 79 0 c44 0 97 -7 120 -15z m-1715
-108 c16 -11 17 -18 7 -53 -6 -21 -14 -82 -17 -135 -8 -120 11 -213 67 -330
31 -63 37 -84 27 -90 -7 -5 -16 -9 -19 -9 -13 0 -31 59 -24 81 6 19 4 21 -13
16 -16 -4 -26 3 -42 30 -22 38 -27 56 -7 30 7 -11 17 -14 25 -8 10 6 6 16 -17
42 -31 33 -40 59 -21 59 17 0 11 29 -10 47 -25 21 -25 36 -2 59 25 25 23 50
-4 63 -29 13 -31 31 -4 31 11 0 20 5 20 10 0 6 -7 10 -15 10 -18 0 -20 16 -4
26 6 3 15 0 20 -7 6 -10 9 -7 9 12 0 15 -7 29 -15 33 -8 3 -15 0 -15 -6 0 -6
-2 -9 -5 -6 -12 12 7 36 26 31 10 -3 19 0 19 6 0 6 -7 11 -16 11 -11 0 -14 5
-10 16 3 9 6 22 6 30 0 17 11 18 34 1z m346 -267 l22 -30 31 26 c40 34 50 13
12 -26 l-28 -29 29 -45 c16 -25 32 -46 37 -46 4 0 7 34 7 76 l0 77 78 -5 c79
-5 118 -20 128 -50 9 -28 -12 -54 -70 -84 -49 -26 -55 -32 -58 -64 -3 -34 -4
-35 -43 -35 -38 0 -40 1 -37 29 3 25 1 28 -15 21 -43 -17 -48 -15 -77 30 l-29
46 -43 -42 c-57 -56 -68 -43 -16 18 38 46 39 49 24 73 -34 54 -44 61 -61 46
-9 -7 -28 -16 -43 -20 -39 -9 -35 -26 6 -26 49 0 51 -13 6 -39 -54 -30 -52
-45 5 -37 28 5 45 3 45 -3 0 -18 -38 -31 -93 -31 -53 0 -55 1 -61 31 -10 54
-7 129 7 134 6 3 55 11 107 19 52 7 98 14 102 15 4 0 16 -13 28 -29z m1360 17
c0 -8 -22 -33 -50 -56 -52 -44 -64 -77 -35 -101 13 -10 19 -10 33 4 23 20 32
20 32 2 0 -18 -38 -46 -62 -46 -9 0 -33 14 -53 31 l-35 31 0 -30 c0 -16 -7
-35 -16 -42 -13 -11 -23 -5 -69 43 -29 31 -55 57 -58 57 -2 0 -4 -12 -5 -27 0
-74 0 -73 -37 -73 l-35 0 0 100 0 100 53 0 c52 0 53 -1 74 -42 l22 -43 0 48 1
47 41 0 42 0 -7 -52 -7 -53 23 22 c26 24 129 92 141 92 4 1 7 -5 7 -12z m-912
-36 c-69 -30 -79 -55 -18 -45 55 9 52 -10 -5 -38 -66 -32 -49 -54 28 -35 44
12 34 -20 -10 -33 -55 -17 -118 -10 -117 13 0 9 1 51 2 92 l2 74 78 3 c42 2
82 1 87 -2 6 -2 -16 -16 -47 -29z m428 26 c88 7 98 -7 24 -32 -31 -10 -50 -22
-50 -32 0 -13 9 -15 50 -11 59 6 56 -4 -11 -37 -62 -32 -65 -50 -6 -42 24 3
51 9 60 13 30 11 18 -15 -14 -32 -21 -10 -50 -15 -86 -12 -52 3 -54 2 -50 -19
4 -20 0 -23 -24 -23 -17 0 -29 5 -29 13 0 30 -91 87 -139 87 -16 0 -20 -8 -23
-37 -3 -36 -5 -38 -42 -41 l-39 -3 5 91 c3 64 8 94 19 101 23 16 158 3 180
-17 25 -23 24 -39 -5 -62 l-25 -19 35 -11 34 -10 0 68 c0 63 2 69 23 72 12 2
26 1 31 -3 4 -4 42 -5 82 -2z m824 4 c0 -14 -23 -29 -59 -38 -51 -13 -52 -33
-2 -33 50 0 52 -11 6 -36 -52 -28 -47 -48 10 -40 36 6 45 4 45 -7 0 -18 -30
-27 -96 -27 l-51 0 -7 38 c-10 61 -7 119 7 130 7 6 37 12 67 15 30 2 61 4 68
5 6 1 12 -2 12 -7z m-2013 -421 c9 0 13 6 9 15 -9 26 0 17 29 -26 15 -23 21
-38 14 -34 -8 5 -10 4 -5 -4 4 -6 11 -9 16 -6 11 7 33 -22 25 -35 -4 -6 -1 -9
7 -8 7 2 12 -3 10 -10 -1 -8 1 -11 6 -8 5 3 24 -11 43 -31 19 -20 29 -33 22
-29 -6 3 -14 2 -17 -3 -4 -5 2 -8 11 -6 26 4 55 -14 47 -28 -4 -7 -4 -9 1 -5
11 11 47 -11 39 -24 -4 -7 -3 -8 4 -4 14 9 55 -12 47 -24 -3 -5 0 -12 6 -16 8
-4 9 -3 5 4 -4 7 -3 12 2 12 16 0 22 -13 12 -25 -7 -8 -5 -12 5 -12 8 0 12 4
9 9 -8 13 -2 11 86 -31 56 -26 77 -40 65 -44 -9 -4 -14 -3 -10 3 3 6 2 10 -4
10 -5 0 -16 3 -25 6 -10 4 -16 1 -16 -9 0 -8 -6 -18 -12 -21 -7 -3 1 -4 17 -1
27 4 26 2 -10 -14 -22 -10 -42 -17 -45 -15 -3 1 -7 -7 -7 -18 -1 -11 -4 -22
-6 -25 -7 -7 -145 65 -210 109 -73 50 -207 166 -207 180 0 6 7 5 18 -3 15 -13
16 -12 4 3 -8 10 -18 16 -24 15 -5 -1 -26 18 -46 42 -20 25 -31 41 -23 36 11
-6 13 -4 8 8 -3 9 -1 19 5 23 6 4 8 3 4 -4 -3 -6 -1 -14 5 -18 8 -4 8 -8 0
-13 -6 -4 -1 -18 15 -36 l25 -30 -18 29 c-13 22 -14 31 -5 34 10 3 10 7 1 18
-9 11 -7 14 9 14 21 0 37 26 22 35 -6 4 -5 15 2 28 11 19 13 20 16 5 2 -10 10
-18 19 -18z m1086 -30 c9 -19 35 -72 56 -118 41 -89 40 -97 -15 -90 -24 3 -34
14 -64 76 l-35 74 -15 -39 c-8 -21 -16 -41 -18 -45 -2 -5 7 -8 21 -8 20 0 47
-31 47 -55 0 -3 -41 -5 -91 -5 -106 0 -103 -14 -28 147 l49 104 37 -3 c32 -3
41 -9 56 -38z m337 -310 c0 -5 1 -13 3 -17 1 -5 -24 -8 -57 -9 -43 0 -62 -5
-71 -17 -15 -20 -75 -35 -75 -18 0 6 -9 11 -20 11 -11 0 -20 -6 -20 -14 0 -8
-7 -16 -15 -20 -18 -6 -45 2 -45 15 0 9 -86 6 -96 -4 -11 -11 -62 -8 -69 3 -3
6 -40 9 -83 7 -57 -1 -76 1 -74 11 1 6 -7 12 -19 12 -11 0 -18 -4 -15 -8 3 -5
-13 -9 -34 -10 -33 -2 -39 0 -33 14 5 14 1 15 -25 9 -34 -7 -39 -2 -20 19 10
10 24 10 78 -1 174 -37 416 -34 580 6 89 22 110 24 110 11z m265 -65 c0 -30
-145 -96 -173 -78 -26 15 -27 59 -3 80 12 9 21 27 20 38 0 19 -1 19 -9 -1 -5
-12 -15 -25 -22 -29 -10 -6 -11 -5 0 6 16 17 16 30 -1 23 -8 -3 -13 -23 -12
-58 0 -41 -3 -53 -15 -52 -8 1 -14 -5 -12 -11 1 -8 -9 -13 -29 -13 -19 0 -28
-4 -23 -11 4 -7 -2 -7 -17 1 -33 18 -33 17 -15 36 11 10 27 15 46 12 16 -3 26
0 23 5 -3 5 -27 6 -54 3 -49 -7 -76 7 -48 25 8 5 10 9 5 9 -5 0 -18 -8 -29
-17 -12 -11 -17 -12 -12 -4 6 11 2 13 -19 7 -64 -16 -180 -25 -301 -24 l-130
1 170 7 c178 7 316 33 435 80 30 12 60 23 67 24 7 1 15 5 18 8 3 3 36 -7 73
-22 47 -19 67 -32 67 -45z m-1159 27 c-2 -4 9 -26 25 -50 30 -45 36 -67 19
-77 -14 -9 -2 -25 18 -25 12 0 13 3 5 8 -19 12 3 82 25 82 9 0 24 5 32 10 11
8 7 9 -14 4 -19 -5 -27 -3 -23 3 7 11 -41 28 -51 19 -2 -3 3 -17 13 -32 9 -15
12 -23 6 -20 -13 9 -44 66 -38 72 2 2 22 -2 45 -10 35 -13 134 -33 242 -49 20
-3 17 -5 -10 -7 l-35 -2 30 -8 c24 -6 26 -8 8 -9 -25 -1 -32 -21 -8 -21 8 0
15 -4 15 -10 0 -5 -6 -10 -12 -10 -9 0 -8 -4 2 -10 13 -9 13 -10 0 -11 -8 -1
-25 0 -37 1 -13 1 -33 -6 -45 -14 l-23 -16 25 0 c14 0 54 -4 90 -10 62 -9 301
-7 405 4 l50 5 -45 -10 c-25 -7 -133 -12 -240 -12 -204 -1 -356 17 -428 50
-18 9 -35 13 -39 10 -3 -4 -20 1 -37 10 -17 9 -38 17 -46 18 -44 5 -61 17 -58
43 2 21 15 30 68 53 74 32 73 32 66 21z m1527 -18 c3 -4 2 -15 -4 -25 -16 -31
-157 -146 -187 -154 -15 -3 -40 -19 -57 -35 -29 -28 -162 -90 -192 -90 -50 0
42 81 165 145 31 16 68 39 82 51 27 24 171 114 181 114 3 0 9 -3 12 -6z
m-1852 -154 c55 -28 102 -57 105 -64 3 -8 14 -12 24 -9 26 7 250 -101 250
-121 0 -27 -19 -27 -108 -1 -91 28 -151 64 -153 93 0 10 -3 12 -6 5 -12 -30
-64 -10 -171 64 -66 47 -76 58 -67 73 10 16 20 13 126 -40z"/>
<path d="M1625 2881 l-40 -6 55 -8 c30 -4 72 -10 94 -13 29 -5 37 -3 31 7 -5
8 -4 10 4 5 16 -10 -7 -39 -25 -32 -13 5 -27 -18 -17 -28 11 -11 52 -6 55 7 2
9 9 7 22 -7 16 -16 16 -18 3 -13 -9 3 -19 2 -22 -3 -4 -6 5 -10 19 -10 21 0
26 5 26 24 0 13 6 27 13 29 7 3 6 6 -5 6 -9 1 -20 6 -24 13 -5 8 -2 9 9 5 10
-3 17 -2 17 3 0 5 12 8 28 7 15 -1 25 -7 22 -12 -3 -6 -10 -9 -16 -9 -6 1 -11
-5 -11 -12 0 -9 8 -12 24 -8 27 7 30 -7 7 -30 -14 -15 -10 -16 43 -14 l58 1
-45 7 c-25 4 -35 8 -22 8 12 1 22 6 22 12 0 5 -8 6 -17 3 -16 -6 -16 -5 -4 11
10 12 17 14 25 6 13 -13 26 -13 26 2 0 6 -3 8 -7 5 -3 -4 -12 -2 -19 4 -8 6
-21 9 -29 5 -8 -3 -15 -1 -15 4 0 6 10 10 23 11 21 0 21 1 2 9 -16 7 -13 9 18
9 20 1 37 -2 37 -7 0 -4 19 -5 43 -3 l42 5 -50 7 c-61 9 -345 9 -400 0z"/>
</g>
</svg>
