<?xml version="1.0" standalone="no"?>
<!DOCTYPE svg PUBLIC "-//W3C//DTD SVG 20010904//EN"
 "http://www.w3.org/TR/2001/REC-SVG-20010904/DTD/svg10.dtd">
<svg version="1.0" xmlns="http://www.w3.org/2000/svg"
 width="300.000000pt" height="300.000000pt" viewBox="0 0 300.000000 300.000000"
 preserveAspectRatio="xMidYMid meet">
<metadata>
Created by potrace 1.10, written by Peter Selinger 2001-2011
</metadata>
<g transform="translate(0.000000,300.000000) scale(0.100000,-0.100000)"
fill="#000000" stroke="none">
<path d="M1415 2510 c-513 -54 -931 -341 -1061 -726 -46 -139 -51 -299 -13
-459 20 -88 75 -223 85 -212 3 3 -4 23 -15 46 -36 69 -23 57 40 -40 113 -172
238 -286 414 -373 137 -69 232 -102 360 -126 202 -37 347 -35 560 6 218 42
463 167 624 320 76 71 179 200 207 259 9 20 19 34 21 31 6 -6 -25 -63 -82
-151 -21 -33 -30 -53 -20 -45 17 14 18 13 12 -2 -3 -9 -1 -18 4 -20 35 -12
-233 -281 -317 -319 -19 -9 -45 -25 -57 -37 -39 -37 -177 -87 -177 -64 1 17
20 33 100 80 47 28 96 59 110 70 57 44 163 103 176 98 9 -3 14 2 14 14 0 11
-6 20 -14 20 -8 0 -64 -32 -123 -71 -59 -38 -141 -86 -181 -105 -40 -19 -81
-43 -92 -54 -19 -19 -19 -22 -5 -50 15 -30 15 -30 -12 -41 -45 -17 -235 -59
-270 -59 -26 0 -33 4 -33 19 0 11 -10 27 -21 35 -21 14 -20 15 17 21 62 10 64
15 4 10 -138 -11 -182 -18 -169 -25 10 -7 10 -11 0 -23 -23 -28 8 -30 43 -3
l34 25 41 -22 c22 -12 41 -25 41 -28 0 -11 -145 -17 -300 -14 -138 4 -151 6
-269 44 -122 40 -161 61 -161 88 0 10 -4 11 -18 2 -14 -9 -26 -8 -53 6 -80 41
-284 211 -310 258 -7 13 -7 23 1 32 17 21 -103 185 -129 178 -15 -4 -22 4 -32
31 -7 19 -15 34 -17 31 -6 -5 42 -122 74 -180 62 -112 191 -250 314 -337 129
-91 309 -163 485 -193 134 -23 372 -22 516 4 417 73 775 349 895 689 14 41 16
55 6 61 -12 7 -7 29 28 106 17 38 30 152 30 257 0 454 -361 819 -906 917 -134
24 -293 32 -399 21z m395 -79 c93 -23 160 -45 160 -53 0 -5 4 -6 10 -3 5 3 24
0 42 -8 18 -8 49 -20 68 -27 61 -23 189 -103 258 -162 73 -62 142 -145 142
-172 0 -10 4 -15 9 -12 14 9 76 -109 103 -194 19 -63 23 -96 22 -200 0 -121
-20 -240 -39 -232 -12 5 -25 -22 -14 -28 13 -9 -49 -132 -105 -208 -121 -163
-301 -295 -483 -352 -23 -7 -40 -16 -38 -20 8 -12 -165 -60 -270 -75 -147 -21
-456 2 -539 40 -17 7 -41 16 -53 20 -13 3 -23 10 -23 15 0 5 -6 7 -14 4 -18
-7 -172 65 -255 120 -121 81 -281 260 -281 315 0 11 -9 25 -21 31 -11 6 -18
17 -16 23 2 7 -2 17 -8 24 -7 7 -23 49 -35 95 -28 103 -31 252 -6 348 34 133
130 299 173 300 16 0 20 5 16 20 -4 14 11 36 59 84 105 105 283 211 423 250
33 10 89 26 125 37 36 12 90 24 120 29 72 11 412 4 470 -9z m848 -663 c26
-106 35 -228 20 -298 -17 -81 -30 -135 -42 -165 -22 -60 -89 -180 -117 -213
-16 -18 -29 -36 -29 -40 0 -24 -212 -202 -239 -202 -6 0 -11 -4 -11 -10 0 -5
-5 -10 -11 -10 -6 0 -25 -11 -42 -23 -18 -13 -63 -39 -102 -58 -38 -19 -72
-36 -75 -39 -3 -3 -9 -6 -15 -7 -5 -1 -48 -16 -94 -32 -47 -17 -88 -28 -91
-26 -4 2 -31 -3 -61 -11 -87 -23 -325 -29 -449 -10 -174 27 -209 37 -360 103
-292 127 -510 373 -564 637 -3 11 -9 35 -14 51 -7 27 -7 203 1 247 9 53 16 17
16 -83 -1 -87 4 -134 21 -199 12 -47 24 -96 27 -110 8 -35 101 -174 167 -248
77 -86 198 -182 281 -224 17 -8 58 -29 92 -47 34 -18 117 -46 185 -64 117 -29
132 -31 328 -31 225 -1 289 8 463 65 219 72 460 255 583 445 71 110 110 212
122 319 6 55 11 123 11 150 0 55 -34 205 -55 247 -8 15 -14 33 -13 40 1 21 55
-102 67 -154z m-2244 25 c-4 -16 -13 -35 -21 -43 -12 -13 -13 -13 -9 0 19 53
26 70 31 70 3 0 2 -12 -1 -27z m2236 -624 c-6 -10 -15 -19 -21 -19 -6 0 -8 -9
-4 -19 4 -13 -1 -27 -14 -40 -12 -12 -19 -21 -16 -21 3 0 1 -9 -5 -20 -12 -22
-30 -27 -30 -7 0 22 81 158 91 152 5 -4 5 -13 -1 -26z m-2190 -115 c0 -23 -19
-25 -30 -4 -14 26 -4 45 16 29 8 -6 14 -17 14 -25z m44 -68 c30 -51 31 -56 14
-56 -15 1 -69 81 -62 92 10 16 23 7 48 -36z"/>
<path d="M1232 2353 c-13 -25 -21 -47 -19 -49 7 -7 57 56 57 71 0 30 -16 21
-38 -22z"/>
<path d="M1878 2384 c-14 -14 -8 -39 17 -69 26 -32 36 -15 11 20 -7 11 -15 28
-17 38 -2 11 -7 15 -11 11z"/>
<path d="M1090 2338 c0 -16 32 -37 57 -38 40 0 33 -17 -15 -35 -135 -51 -264
-129 -359 -219 l-63 -58 0 34 c0 36 -24 68 -51 68 -10 -1 -9 -3 4 -11 9 -5 17
-20 17 -32 0 -13 5 -28 11 -34 6 -6 9 -16 5 -21 -6 -10 -81 -26 -108 -23 -23
3 -23 -6 1 -18 22 -12 75 2 104 27 9 8 17 10 17 5 0 -6 -7 -16 -16 -23 -24
-21 -91 -140 -115 -205 -18 -49 -22 -82 -23 -185 0 -112 2 -132 27 -196 32
-84 32 -88 10 -79 -36 14 -78 16 -96 3 -15 -11 -7 -13 53 -13 38 0 70 -3 70
-6 0 -3 19 -28 43 -55 23 -26 36 -44 28 -39 -26 15 0 -17 68 -87 36 -38 70
-68 74 -68 4 0 23 -15 41 -33 68 -68 274 -157 406 -175 222 -31 384 -22 554
32 58 18 106 30 106 26 0 -4 -9 -15 -20 -25 -24 -22 -24 -76 0 -83 13 -5 13
-3 1 12 -12 15 -11 21 7 46 12 16 22 37 22 47 0 12 19 27 52 43 114 54 236
148 311 238 52 63 60 83 22 58 -31 -20 -32 -20 -38 3 -7 28 35 76 59 67 17 -7
17 -9 -9 -22 -31 -17 -28 -35 6 -30 25 4 89 123 112 211 42 163 30 254 -62
472 -4 10 2 10 25 2 35 -12 84 -9 89 6 2 6 -22 10 -60 10 -59 -1 -64 1 -92 34
-81 95 -126 137 -203 188 -235 157 -553 213 -857 152 -98 -20 -107 -20 -124
-5 -10 9 -22 16 -27 16 -5 0 -21 7 -36 14 -18 10 -28 11 -28 4z m554 -33 c7
-18 39 -19 67 -2 17 10 22 9 33 -6 8 -10 29 -18 53 -20 22 -1 47 -8 55 -15 9
-7 24 -11 34 -11 37 4 54 -1 54 -16 0 -18 12 -19 27 -4 8 8 13 7 18 -2 6 -8 4
-10 -5 -4 -9 5 -11 4 -6 -4 5 -7 16 -9 28 -5 15 4 18 3 13 -7 -6 -9 -3 -11 8
-6 10 3 17 2 17 -3 0 -15 71 -59 86 -53 7 2 21 0 31 -6 17 -10 17 -10 -1 -11
-27 0 -10 -14 17 -15 12 0 23 -7 23 -15 1 -8 2 -19 3 -24 0 -5 7 -3 14 3 10 8
20 4 42 -19 22 -23 25 -30 12 -30 -8 0 -19 5 -22 11 -4 6 -13 8 -20 5 -7 -2
-23 6 -36 20 -12 13 -27 24 -33 24 -6 0 9 -18 34 -39 25 -22 48 -37 52 -35 4
3 5 -2 2 -10 -3 -8 9 -31 28 -53 42 -46 81 -114 98 -168 15 -49 28 -65 49 -65
13 1 13 3 -4 16 -17 13 -18 16 -5 24 23 15 28 12 35 -20 4 -16 11 -32 16 -35
5 -4 9 -22 9 -41 0 -31 -3 -35 -20 -29 -16 5 -20 2 -20 -14 0 -14 5 -19 15
-15 19 8 19 -6 -1 -34 -14 -20 -14 -22 0 -22 9 0 16 5 16 12 0 6 2 9 5 6 9 -9
-20 -58 -35 -58 -12 -1 -12 -3 3 -14 23 -18 22 -47 -3 -53 -11 -3 -20 -9 -20
-14 0 -5 -4 -9 -10 -9 -14 0 -13 16 3 32 8 9 12 46 11 116 -1 89 1 102 16 102
22 0 30 9 23 26 -7 18 -23 18 -23 0 0 -18 -27 -28 -34 -13 -3 7 -3 1 1 -13 11
-42 4 -162 -11 -210 l-15 -45 7 40 c4 22 7 85 7 140 0 169 -54 292 -185 427
-32 34 -57 64 -55 68 4 7 -77 61 -142 94 -36 18 -47 20 -39 7 4 -5 -7 -4 -24
2 -16 6 -25 14 -20 17 18 11 -134 51 -171 45 -27 -4 -30 -3 -14 4 14 7 -2 9
-55 6 -51 -3 -67 -2 -50 4 18 7 4 9 -57 10 -69 1 -81 3 -77 16 7 18 70 20 78
3 4 -10 9 -8 18 5 16 21 44 22 52 2z m-201 -1 c20 -4 37 -10 37 -14 0 -12 -74
-18 -87 -7 -9 6 -13 6 -13 -2 0 -6 -10 -11 -22 -11 -12 0 -37 -5 -55 -12 -26
-10 -38 -10 -53 0 -16 10 -18 9 -14 -2 8 -20 -66 -41 -78 -23 -12 19 -9 27 7
21 8 -3 28 1 44 9 16 8 42 12 57 9 18 -3 31 0 38 11 17 23 74 31 139 21z m107
-40 c0 -2 -28 -3 -62 -3 -46 1 -55 3 -33 8 29 6 95 3 95 -5z m-141 -8 c-2 -2
-29 -6 -59 -9 -34 -3 -47 -2 -35 3 19 8 103 14 94 6z m-296 -57 c-21 -9 -38
-21 -38 -28 0 -7 -25 -26 -55 -43 -30 -17 -48 -24 -40 -15 8 8 32 24 53 35 32
17 34 20 17 25 -11 3 -20 2 -20 -2 0 -4 -28 -26 -63 -49 -34 -22 -78 -58 -97
-79 -20 -21 -24 -29 -10 -17 54 44 63 46 26 6 -24 -25 -43 -38 -47 -31 -9 16
-37 -4 -79 -57 -29 -37 -36 -41 -42 -26 -12 30 -8 36 37 71 25 18 45 39 45 46
0 16 23 35 49 40 31 6 41 14 35 29 -6 16 22 30 53 27 16 -2 21 2 18 12 -6 15
67 52 98 49 10 -1 16 2 12 8 -3 5 7 15 22 23 21 11 31 12 45 3 17 -10 15 -13
-19 -27z m687 6 c150 -40 311 -135 412 -243 68 -74 100 -128 127 -216 26 -84
29 -196 5 -196 -8 0 -12 5 -8 11 5 8 -6 9 -36 4 -24 -4 -62 -7 -84 -7 -23 1
-58 -8 -78 -18 l-38 -20 -20 22 c-20 22 -20 22 -74 4 -54 -19 -54 -19 -78 3
-16 16 -30 21 -48 16 -14 -3 -92 -7 -175 -8 -99 -2 -158 -7 -173 -15 -12 -7
-31 -10 -42 -7 -38 12 -200 19 -327 14 -21 -1 -123 1 -227 5 -103 4 -197 4
-208 0 -10 -3 -24 -18 -30 -32 l-11 -27 -8 30 c-16 57 18 216 66 305 l24 45 1
-116 c0 -91 3 -119 15 -129 12 -10 13 -16 4 -26 -17 -21 12 -28 97 -21 76 6
116 22 143 59 13 19 14 18 32 -11 26 -43 83 -57 158 -39 31 7 54 18 51 23 -3
6 -7 9 -10 8 -3 -1 -19 -4 -35 -8 l-30 -7 30 17 c41 23 80 17 79 -12 -1 -22 3
-23 66 -23 l66 0 2 72 c3 87 11 101 70 139 25 16 39 29 30 29 -12 0 -16 9 -14
32 1 28 -2 33 -24 34 -14 0 -43 10 -64 22 -43 23 -52 21 -114 -25 l-32 -24
-26 20 c-38 30 -55 26 -113 -19 -28 -22 -54 -40 -59 -40 -5 0 -20 -9 -33 -21
-31 -27 -36 -8 -10 35 26 41 18 70 -29 109 -25 22 -42 27 -82 27 l-51 0 19 21
c29 33 132 103 199 136 77 39 140 59 240 78 106 19 363 14 455 -10z m506 -212
c32 -44 39 -57 26 -49 -16 10 -15 -5 2 -27 9 -12 16 -14 21 -8 9 16 18 13 37
-13 17 -23 17 -24 -2 -19 -14 4 -20 0 -20 -11 0 -10 -4 -15 -9 -12 -16 10
-109 155 -103 161 12 12 29 4 48 -22z m-1322 -53 c14 -5 32 -20 41 -34 22 -34
8 -58 -58 -96 l-52 -30 48 0 c33 0 53 -6 66 -19 19 -19 20 -19 48 11 32 34
147 118 161 118 6 0 13 -7 16 -15 4 -11 -9 -26 -40 -48 -26 -18 -54 -37 -63
-44 -9 -6 -13 -14 -9 -18 4 -4 27 8 52 26 54 38 76 30 26 -9 -82 -64 -86 -68
-70 -87 14 -16 29 -16 90 0 24 6 23 5 -8 -24 -22 -22 -42 -31 -65 -31 -34 0
-93 30 -115 58 -12 16 -14 16 -23 0 -20 -36 -72 -57 -152 -61 l-77 -4 0 152
c0 83 3 155 7 158 10 11 148 8 177 -3z m-279 -40 c4 -13 -5 -41 -27 -80 -35
-64 -35 -65 -58 -50 -12 7 -12 12 -1 34 8 14 18 23 23 20 4 -3 5 -11 2 -17 -4
-7 1 -4 12 5 14 14 15 21 6 30 -18 18 -14 30 8 23 11 -3 20 -2 20 3 0 6 -5 12
-12 14 -13 5 -4 38 11 38 5 0 13 -9 16 -20z m723 -3 c2 -11 -9 -23 -32 -34
-20 -9 -36 -21 -36 -26 0 -17 66 0 110 28 23 15 45 23 48 20 8 -8 -65 -72 -91
-81 -16 -5 -18 -16 -16 -86 l3 -81 -49 0 -50 0 3 74 c2 41 6 83 9 93 5 18 3
17 -26 -3 -42 -30 -60 -23 -30 12 30 34 131 106 144 103 6 -2 11 -10 13 -19z
m-709 -64 c-56 -112 -73 -187 -66 -303 10 -163 53 -254 186 -393 46 -48 80
-87 74 -87 -5 0 -14 5 -21 12 -9 9 -17 8 -37 -2 -22 -12 -27 -11 -44 4 -19 17
-37 61 -21 51 5 -3 11 -1 15 5 5 9 -33 67 -68 105 -11 11 17 -41 35 -67 10
-14 10 -20 0 -30 -14 -14 -25 -6 -28 25 -4 33 -4 33 -14 17 -14 -22 -25 15
-13 43 8 17 4 34 -19 81 -49 97 -59 136 -63 236 -5 112 9 196 43 265 22 44 70
115 77 115 2 0 -15 -35 -36 -77z m1678 -22 c-8 -10 -8 -13 -1 -8 7 4 17 1 23
-7 9 -11 8 -15 -5 -20 -21 -8 -31 -1 -38 30 -5 18 -3 30 6 35 18 11 29 -12 15
-30z m-1768 -65 c8 -9 8 -28 1 -66 -13 -70 -13 -205 1 -254 6 -22 26 -71 44
-110 32 -65 35 -86 16 -86 -5 0 -16 12 -26 26 -12 18 -13 29 -6 38 13 16 4 27
-15 19 -18 -7 -29 23 -15 41 8 10 5 19 -14 40 -27 29 -31 42 -15 48 5 2 7 13
4 25 -4 13 -10 20 -15 17 -17 -10 -21 27 -5 45 20 22 21 47 1 55 -21 8 -19 26
3 26 16 1 16 1 0 14 -24 18 -23 30 3 23 15 -4 19 -1 17 11 -2 9 -11 16 -20 16
-15 -1 -15 2 0 42 18 47 23 52 41 30z m657 -28 c-3 -13 -6 -33 -6 -46 0 -14
-4 -20 -10 -17 -6 4 -8 15 -5 25 7 22 -9 33 -46 32 -16 0 -29 1 -29 4 0 9 45
23 74 23 25 1 28 -2 22 -21z m-367 -195 l21 -28 19 23 c18 21 41 30 41 15 0
-4 -12 -19 -26 -34 l-26 -27 29 -43 28 -43 3 67 3 67 59 0 c82 0 112 -15 108
-54 -3 -24 -12 -34 -55 -55 -47 -23 -52 -29 -50 -55 2 -27 -1 -29 -33 -29 -33
-1 -35 1 -32 28 4 28 4 28 -21 12 -25 -16 -26 -16 -53 28 l-28 44 -34 -40
c-31 -36 -52 -49 -52 -31 0 4 16 24 35 44 19 20 35 40 35 45 0 4 -11 21 -24
38 -18 23 -27 27 -37 18 -8 -6 -25 -13 -38 -15 -14 -1 -26 -9 -29 -15 -2 -9
11 -13 45 -14 l48 0 -45 -22 c-58 -28 -55 -26 -43 -38 6 -6 19 -6 38 1 34 13
47 3 21 -16 -11 -8 -41 -14 -68 -14 l-48 0 0 75 0 75 43 1 c35 0 72 5 139 18
3 0 16 -11 27 -26z m1151 18 c0 -5 -21 -27 -47 -48 -40 -34 -45 -43 -39 -66 7
-29 33 -36 42 -12 8 19 24 20 24 1 0 -16 -37 -46 -56 -46 -7 0 -26 14 -43 31
l-31 31 0 -31 c0 -47 -18 -47 -69 3 -26 25 -49 46 -52 46 -2 0 -3 -18 -1 -40
4 -40 4 -40 -30 -40 l-35 0 5 78 c2 42 5 77 6 78 0 1 18 4 39 7 38 6 39 5 55
-33 19 -51 32 -51 25 0 l-6 40 38 0 38 0 -7 -40 c-7 -42 3 -51 25 -23 15 17
99 72 112 73 4 0 7 -4 7 -9z m140 0 c0 -5 -20 -26 -45 -47 -46 -37 -56 -63
-31 -83 11 -9 18 -8 30 4 20 20 42 10 25 -11 -36 -43 -102 -30 -115 22 -8 30
9 51 74 94 48 31 62 36 62 21z m-880 -15 c-8 -8 -31 -19 -50 -23 -50 -13 -47
-39 5 -35 38 2 39 2 20 -13 -11 -9 -30 -18 -42 -22 -13 -3 -23 -12 -23 -20 0
-11 10 -13 48 -7 45 6 46 6 29 -12 -12 -13 -32 -18 -70 -19 l-52 0 0 77 0 77
50 4 c28 2 61 4 75 5 21 2 22 0 10 -12z m390 2 c0 -3 -20 -14 -45 -24 -25 -9
-45 -23 -45 -30 0 -16 3 -16 53 -5 52 12 47 -6 -8 -30 -25 -11 -45 -24 -45
-29 0 -13 32 -13 65 0 23 9 26 8 23 -7 -5 -25 -70 -40 -110 -25 -29 11 -30 10
-24 -14 6 -21 3 -24 -19 -24 -15 0 -25 6 -25 15 0 20 -68 63 -105 67 -28 3
-30 1 -27 -29 3 -32 2 -33 -33 -33 l-36 0 3 78 3 77 67 3 c37 2 77 -2 88 -8
27 -14 25 -44 -2 -63 l-23 -16 22 0 c12 -1 25 -5 28 -11 16 -25 24 -5 21 50
-2 32 -2 61 0 62 6 7 174 3 174 -4z m628 0 c-3 -7 -21 -17 -41 -22 -53 -14
-47 -34 11 -38 l47 -3 -44 -14 c-39 -13 -61 -34 -49 -46 2 -3 19 0 38 5 40 12
60 2 35 -17 -11 -7 -43 -13 -72 -13 l-54 0 3 73 3 72 40 6 c69 11 87 10 83 -3z
m72 -134 c11 -13 10 -16 -8 -21 -12 -3 -22 -12 -22 -19 0 -8 -5 -14 -12 -14
-9 0 -9 -3 0 -12 10 -10 15 -10 22 2 6 9 10 10 10 3 0 -15 -36 -36 -54 -31 -9
2 -6 17 11 56 26 56 33 61 53 36z m-1238 -31 c3 -26 6 -28 53 -28 28 0 60 4
73 9 19 6 24 4 29 -13 4 -16 13 -21 39 -21 28 0 37 5 46 28 6 15 10 33 9 40
-4 23 38 12 69 -19 20 -20 42 -32 61 -33 35 -1 39 -16 4 -16 -25 0 -34 -14
-16 -24 15 -10 61 12 61 29 0 13 9 16 45 15 3 0 21 6 40 14 34 15 41 11 36
-17 -1 -5 18 -7 41 -5 41 3 43 5 46 37 l3 33 29 -27 c16 -16 27 -32 24 -37 -3
-4 8 -8 25 -8 24 0 32 5 37 26 l6 25 22 -20 c28 -27 62 -27 76 -1 12 23 45 27
53 6 9 -24 59 -27 90 -5 l28 21 6 -21 c4 -17 13 -21 45 -21 l39 0 -42 -60
c-85 -121 -218 -229 -366 -296 -80 -37 -228 -78 -249 -70 -7 3 -16 1 -19 -4
-8 -13 -105 -13 -105 -1 0 6 24 12 53 14 28 2 5 3 -53 1 -58 -1 -122 -5 -142
-9 -26 -5 -38 -4 -38 4 0 6 10 12 23 12 17 1 18 2 4 6 -10 3 -24 0 -30 -6 -44
-36 -255 45 -387 150 -89 70 -220 220 -220 251 0 7 22 9 59 5 56 -5 61 -3 87
24 27 28 28 28 45 10 9 -10 19 -27 21 -37 4 -19 10 -21 39 -9 11 4 18 0 22
-14 4 -16 13 -21 40 -21 40 0 61 20 52 49 -5 16 1 25 27 41 44 27 56 25 60 -7z
m1142 -60 c-15 -27 -37 -63 -50 -81 -21 -32 -22 -66 -2 -78 5 -3 -3 -15 -17
-26 -22 -17 -27 -18 -40 -5 -12 12 -12 17 -1 26 7 6 15 8 18 6 3 -3 8 4 11 16
5 20 3 19 -23 -6 -16 -16 -27 -33 -23 -38 3 -6 2 -7 -3 -4 -6 3 -28 -10 -49
-28 -22 -19 -37 -34 -33 -35 4 0 22 13 41 29 31 28 34 29 45 11 10 -16 5 -21
-43 -41 -30 -12 -55 -28 -55 -35 0 -13 -32 -35 -47 -33 -4 1 -19 -2 -31 -6
-17 -6 -20 -10 -11 -16 10 -6 5 -11 -14 -18 -16 -6 -33 -11 -38 -11 -17 0 -9
19 12 30 11 7 19 13 17 15 -2 2 -32 -9 -66 -25 -34 -17 -67 -30 -74 -30 -7 0
29 21 81 45 51 25 98 42 104 38 5 -3 7 -1 4 4 -4 6 19 28 51 51 75 52 149 132
206 220 51 81 73 98 30 25z m-24 -114 c10 -18 9 -20 -7 -17 -10 2 -19 11 -21
21 -5 24 15 21 28 -4z m-1381 -145 c10 6 83 -40 129 -81 14 -13 31 -23 38 -23
19 0 18 -19 -2 -27 -24 -9 -59 11 -59 36 0 14 -12 29 -35 43 l-35 22 27 -27
c17 -16 25 -32 22 -41 -6 -16 -26 -23 -22 -8 6 16 -39 53 -57 46 -17 -7 -17
-6 0 19 9 15 13 27 7 27 -6 0 -15 -7 -19 -15 -8 -13 -11 -13 -31 1 -18 13 -21
19 -11 30 9 11 15 11 25 3 7 -6 18 -8 23 -5z m205 -116 c-5 -8 -2 -9 10 -5 10
4 15 3 11 -3 -13 -21 156 -51 331 -57 118 -4 160 -1 249 16 59 12 110 23 113
25 4 2 13 -2 19 -10 17 -18 3 -25 -50 -26 -23 0 -49 -6 -57 -13 -20 -16 -60
-26 -60 -14 0 5 -9 9 -21 9 -15 0 -19 -5 -15 -15 7 -18 -34 -21 -51 -4 -8 8
-20 9 -43 1 -17 -6 -29 -8 -26 -4 2 4 -41 7 -96 7 -74 -1 -101 2 -105 12 -6
15 -43 18 -43 3 0 -5 -9 -10 -20 -10 -11 0 -20 7 -20 15 0 11 -8 13 -30 9 -25
-5 -30 -3 -31 12 0 11 -3 14 -6 7 -5 -15 -33 -18 -33 -4 0 5 -11 11 -24 13
-20 3 -22 6 -15 26 5 12 11 22 14 22 4 0 3 -5 -1 -12z m816 -1 c0 -16 -47 -40
-61 -32 -17 11 -9 27 11 22 11 -3 18 -1 15 3 -3 5 1 11 7 13 22 9 28 7 28 -6z
m-450 -27 c0 -5 -13 -10 -30 -10 -16 0 -30 5 -30 10 0 6 14 10 30 10 17 0 30
-4 30 -10z"/>
<path d="M1750 1882 c-35 -12 -117 -82 -135 -116 -16 -30 -18 -40 -7 -56 6
-11 12 -26 12 -34 0 -17 70 -81 98 -90 14 -5 39 6 83 34 34 22 67 39 73 37 6
-2 14 -17 18 -34 10 -38 19 -42 86 -35 51 4 73 21 30 23 l-23 0 23 11 c18 9
22 19 22 57 0 56 16 88 24 50 3 -13 8 -42 9 -64 2 -21 9 -41 16 -43 6 -2 9 -8
5 -13 -7 -12 41 -30 69 -25 12 3 39 5 60 5 40 1 44 21 4 21 l-22 1 23 18 c25
22 27 43 10 92 -30 87 -104 143 -212 158 -75 11 -108 3 -135 -29 -16 -20 -16
-20 -56 7 -43 30 -52 33 -75 25z m93 -73 c31 -24 35 -57 10 -87 -30 -34 -105
-82 -129 -82 -28 0 -94 61 -94 87 0 21 41 64 105 111 39 29 40 29 60 11 11
-11 32 -29 48 -40z m257 22 c63 -34 96 -82 102 -150 l3 -43 -60 -2 -60 -2 0
64 c0 59 -2 66 -33 93 -18 16 -37 29 -42 29 -6 0 -10 -38 -10 -92 l0 -93 -47
1 -46 1 1 109 c0 60 1 109 2 109 29 3 172 -15 190 -24z"/>
<path d="M1738 1783 c-20 -24 -23 -93 -3 -93 24 0 46 43 39 78 -7 36 -15 39
-36 15z"/>
<path d="M900 1876 c0 -51 14 -60 32 -20 8 18 9 31 2 42 -21 33 -34 25 -34
-22z"/>
<path d="M900 1710 l0 -41 29 16 c17 8 33 20 37 26 8 14 -22 39 -48 39 -14 0
-18 -8 -18 -40z"/>
<path d="M1078 1464 c-4 -38 -4 -38 23 -24 24 14 25 46 0 53 -16 4 -20 -2 -23
-29z"/>
<path d="M1416 1492 c-10 -9 -7 -42 3 -42 20 0 41 13 41 25 0 13 -35 27 -44
17z"/>
<path d="M1473 1196 c-39 -33 -110 -193 -96 -215 22 -36 105 -52 158 -32 11 5
32 4 47 -1 38 -14 80 9 85 45 4 30 -62 183 -89 204 -32 27 -73 26 -105 -1z
m89 -26 c6 -12 62 -129 86 -182 2 -5 -12 -8 -32 -8 -33 0 -36 3 -62 60 -15 33
-30 60 -33 60 -6 0 -31 -58 -31 -73 0 -3 7 -4 16 0 16 6 44 -19 44 -39 0 -4
-34 -8 -75 -8 -41 0 -75 2 -75 4 0 3 16 40 36 83 20 43 40 88 45 101 7 19 15
23 40 20 18 -2 36 -10 41 -18z"/>
<path d="M2016 2325 c-10 -8 -22 -13 -25 -10 -4 2 -18 -5 -31 -16 l-25 -20 35
7 c47 9 70 22 70 39 0 18 0 18 -24 0z"/>
<path d="M2401 2036 c-7 -8 -11 -29 -9 -46 l3 -31 21 46 c14 30 17 45 9 45 -7
0 -18 -6 -24 -14z"/>
<path d="M2503 1418 c-18 -13 -33 -26 -33 -30 0 -9 58 11 66 23 3 5 16 9 30 9
14 0 22 4 19 10 -10 17 -49 11 -82 -12z"/>
<path d="M2460 1364 c0 -24 35 -74 52 -74 18 0 16 4 -12 40 -31 39 -40 47 -40
34z"/>
<path d="M595 1216 c-15 -25 -34 -50 -43 -56 -14 -8 -15 -9 -2 -10 27 0 58 29
70 66 18 52 6 52 -25 0z"/>
<path d="M1984 892 c3 -6 23 -16 44 -23 20 -6 43 -16 50 -22 19 -15 15 8 -5
26 -21 18 -99 35 -89 19z"/>
<path d="M1041 860 c-32 -8 -70 -35 -60 -44 2 -2 27 6 54 20 28 13 51 24 52
24 1 0 15 -19 32 -41 25 -35 28 -45 19 -63 -10 -19 -10 -20 5 -7 10 7 17 22
17 33 0 20 -61 89 -76 87 -5 -1 -24 -5 -43 -9z"/>
<path d="M711 781 c-12 -21 -5 -32 13 -25 15 6 155 -59 183 -84 10 -10 29 -18
42 -20 13 -1 63 -21 110 -45 62 -30 86 -47 85 -59 -1 -10 4 -18 12 -18 20 0
18 54 -3 72 -10 9 -49 26 -88 38 -82 27 -232 95 -292 133 -51 32 -50 32 -62 8z"/>
<path d="M976 623 c-8 -9 14 -33 30 -33 7 0 11 6 8 14 -6 16 -29 28 -38 19z"/>
</g>
</svg>
