<?xml version="1.0" encoding="utf-8"?>
<!-- Generator: Adobe Illustrator 27.6.0, SVG Export Plug-In . SVG Version: 6.00 Build 0)  -->
<svg version="1.1" id="Layer_1" xmlns="http://www.w3.org/2000/svg" xmlns:xlink="http://www.w3.org/1999/xlink" x="0px" y="0px"
	 viewBox="0 0 64 64" style="enable-background:new 0 0 64 64;" xml:space="preserve">
<style type="text/css">
	.st0{fill:#231F20;}
	.st1{font-family:'AdobeClean-ExtraBold';}
	.st2{font-size:14px;}
	.st3{fill:#EB1000;}
	.st4{fill:#E5173F;}
</style>
<text transform="matrix(1 0 0 1 28.4823 35.9721)" class="st0 st1 st2">+</text>
<polygon class="st3" points="31.6,46 28.9,52.7 32.2,52.7 33.3,56 23.4,56 29.6,41.3 33.8,41.3 40,56 35.6,56 "/>
<path class="st4" d="M31.4,18.2l-1.1,0.6c-0.2,0.1-0.2,0.2-0.2,0.3v3.9c0,0.2,0.1,0.2,0.2,0.2h1.1V18.2z"/>
<path class="st4" d="M33.4,17.1L32,17.8h-0.1v5.3h1.5c0.2,0,0.3-0.1,0.3-0.3v-5.5c0-0.1,0-0.3-0.2-0.3C33.5,17,33.5,17,33.4,17.1z"
	/>
<path class="st4" d="M31.2,9.4c-1.1,0-2.3,0.1-3.4,0.3c1.2-1.6,3.1-2.5,5.1-2.5c1.5,0,3,0.5,4.1,1.4c0.2,0.2,0.3,0.2,0.5,0.1
	c0.1-0.1,0.1-0.3,0-0.4c0,0,0,0,0,0c-1.4-1.7-3.5-2.7-5.7-2.6c-3,0.1-5.6,1.9-6.7,4.7l-2.5,1c-0.2,0.2-0.3,0.3-0.2,0.5
	c0.1,0.2,0.2,0.2,0.4,0.2c0,0,0,0,0.1,0c0.6-0.2,1.3-0.4,1.9-0.5c-0.1,0.4-0.1,0.7-0.1,1.1c0,2.5,1.2,4.8,3.3,6.1
	c0.2,0.1,0.4,0.1,0.5-0.1c0.1-0.2,0.1-0.3-0.1-0.5c-1.3-1.2-2-2.9-2-4.6c0-0.8,0.2-1.6,0.5-2.4l2.2-0.2c5.2,0,9.7,1.8,9.7,4
	s-1.5,2.3-3.2,3.1c-0.4,0.2-0.4,0.3-0.4,0.5c0,0.2,0.2,0.2,0.5,0.2c3.1-0.9,5.3-2.6,5.3-4.5S36.7,9.4,31.2,9.4z"/>
</svg>
