<?xml version="1.0" encoding="utf-8"?>
<!-- Generator: Adobe Illustrator 27.6.0, SVG Export Plug-In . SVG Version: 6.00 Build 0)  -->
<svg version="1.1" id="Layer_1" xmlns="http://www.w3.org/2000/svg" xmlns:xlink="http://www.w3.org/1999/xlink" x="0px" y="0px"
	 viewBox="0 0 64 64" style="enable-background:new 0 0 64 64;" xml:space="preserve">
<style type="text/css">
	.st0{fill:#FA0F00;}
	.st1{fill:#FFFFFF;}
	.st2{font-family:'AdobeClean-ExtraBold';}
	.st3{font-size:14px;}
	.st4{fill:none;}
	.st5{fill-rule:evenodd;clip-rule:evenodd;}
	.st6{fill-rule:evenodd;clip-rule:evenodd;fill:#01AEF0;}
</style>
<g id="surface1">
	<path class="st0" d="M23,42.2c0-1.8,1.4-3.2,3.2-3.2h14c1.8,0,3.2,1.4,3.2,3.2v14c0,1.8-1.4,3.2-3.2,3.2h-14
		c-1.8,0-3.2-1.4-3.2-3.2V42.2z"/>
	<path class="st0" d="M26.2,39h14c1.8,0,3.2,1.4,3.2,3.2v14c0,1.8-1.4,3.2-3.2,3.2h-14c-1.8,0-3.2-1.4-3.2-3.2v-14
		C23,40.5,24.5,39,26.2,39z"/>
	<path class="st1" d="M34.9,43.7l4.9,11.2h-3.5l-3-6.9l-1.9,4.2h2.2l1.2,2.7h-8l4.9-11.2C31.6,43.7,34.9,43.7,34.9,43.7z"/>
</g>
<text transform="matrix(1 0 0 1 30.0488 34.6377)" class="st2 st3">+</text>
<g id="layer1" transform="translate(-52.012614,-433.48952)">
	<g id="g3034" transform="matrix(3.543307,0,0,3.543307,-13.537534,48.099612)">
		<g id="Camada_x0020_1">
			<path id="path2993" class="st4" d="M23.8,114.1c-0.9,0.8-1.9,0-1.9-0.8c0-0.6,0.7-1.3,1.5-1l0.3-0.7c-1.8-0.6-2.8,1-2.6,2
				c0.3,1.7,2.2,2,3.2,1.1L23.8,114.1L23.8,114.1z"/>
			<path id="path2995" class="st4" d="M25.4,112.7c0-0.7-0.7-0.8-1-1l-0.3,0.7l0.6,0.3l0,2.3h0.7L25.4,112.7L25.4,112.7z"/>
			<line id="line2997" class="st4" x1="26.7" y1="114.9" x2="27.1" y2="114.2"/>
			<path id="path2999" class="st4" d="M27.1,114.2c0.5,0.3,1,0.2,1.4-0.1l0.6,0.6c-0.8,0.6-1.4,0.7-2.3,0.2"/>
			<path id="path3001" class="st4" d="M26.2,114.3c-0.7-1.1-0.2-2.3,0.8-2.7c1-0.4,2.3,0,2.6,1.3L26.2,114.3z"/>
			<path id="path3003" class="st4" d="M26.6,113.4c0-1.3,1.3-1.6,1.9-0.8L26.6,113.4z"/>
			<path id="path3005" class="st4" d="M30.6,114.2l0-3.6h-0.7l0,3.7c0,0.7,0.7,0.8,1,0.9l0.3-0.7L30.6,114.2L30.6,114.2z"/>
			<path id="path3007" class="st4" d="M34,114.1c-0.7,0.8-2.3-0.1-1.7-1.3l-0.7-0.4c-0.8,1.8,1.2,3.6,2.9,2.2L34,114.1L34,114.1z"/>
			<path id="path3009" class="st4" d="M34.2,113.8c0.5-1.2-0.9-2.1-1.7-1.3l-0.5-0.6c1.4-1.2,3.8,0.1,3,2.2L34.2,113.8z"/>
			<ellipse id="ellipse3011" class="st4" cx="25" cy="111" rx="0.5" ry="0.5"/>
			<path id="path3013" class="st5" d="M23.8,114.1c-0.9,0.8-1.9,0-1.9-0.8c0-0.6,0.7-1.3,1.5-1l0.3-0.7c-1.8-0.6-2.8,1-2.6,2
				c0.3,1.7,2.2,2,3.2,1.1L23.8,114.1L23.8,114.1z"/>
			<path id="path3015" class="st5" d="M24.6,112.7l0,2.3h0.7l0-2.3c0-0.7-0.7-0.8-1-1l-0.3,0.7L24.6,112.7L24.6,112.7z"/>
			<path id="path3017" class="st5" d="M26.9,111.6c-0.9,0.4-1.4,1.6-0.8,2.7l3.4-1.4C29.2,111.5,27.9,111.2,26.9,111.6z M26.6,113.4
				c0-1.3,1.3-1.6,1.9-0.8L26.6,113.4z"/>
			<path id="path3019" class="st5" d="M28.5,114.1c-0.4,0.4-0.8,0.4-1.4,0.1l-0.4,0.6c0.9,0.4,1.5,0.4,2.3-0.2L28.5,114.1z"/>
			<path id="path3021" class="st5" d="M29.9,110.6l0,3.7c0,0.7,0.7,0.8,1,0.9l0.3-0.7l-0.6-0.3l0-3.6H29.9L29.9,110.6z"/>
			<path id="path3023" class="st5" d="M31.5,112.5c-0.8,1.8,1.2,3.6,2.9,2.2l-0.5-0.6c-0.7,0.8-2.3-0.1-1.7-1.3L31.5,112.5
				L31.5,112.5z"/>
			<path id="path3025" class="st6" d="M32.5,112.5c0.8-0.8,2.2,0.1,1.7,1.3l0.7,0.3c0.8-2.1-1.6-3.4-3-2.2L32.5,112.5z"/>
			<path id="path3027" class="st6" d="M25,111.5c0.3,0,0.5-0.2,0.5-0.5c0-0.3-0.2-0.5-0.5-0.5c-0.3,0-0.5,0.2-0.5,0.5
				C24.5,111.3,24.7,111.5,25,111.5z"/>
		</g>
	</g>
</g>
</svg>
