<?xml version="1.0" encoding="UTF-8"?>
<svg xmlns="http://www.w3.org/2000/svg" xmlns:xlink="http://www.w3.org/1999/xlink" version="1.1" viewBox="0 0 64 64">
  <defs>
    <style>
      .cls-1 {
        font-family: AdobeClean-ExtraBold, 'Adobe Clean';
        font-size: 14px;
        font-weight: 700;
        isolation: isolate;
      }

      .cls-2 {
        fill: url(#radial-gradient-2);
      }

      .cls-3 {
        fill: url(#radial-gradient);
      }

      .cls-4 {
        fill: url(#linear-gradient);
      }

      .cls-5 {
        fill: #fff;
      }

      .cls-6 {
        fill: red;
      }
    </style>
    <radialGradient id="radial-gradient" cx="522" cy="-1271.4" fx="522" fy="-1271.4" r="8.7" gradientTransform="translate(-488 1292.1)" gradientUnits="userSpaceOnUse">
      <stop offset=".2" stop-color="#ee757b"/>
      <stop offset=".7" stop-color="#e4242d"/>
    </radialGradient>
    <radialGradient id="radial-gradient-2" cx="521.9" cy="-1279.2" fx="521.9" fy="-1279.2" r="12.3" gradientTransform="translate(-488 1292.1)" gradientUnits="userSpaceOnUse">
      <stop offset=".7" stop-color="#9f2024" stop-opacity="0"/>
      <stop offset="1" stop-color="#9f2024"/>
    </radialGradient>
    <linearGradient id="linear-gradient" x1="522" y1="-1275.9" x2="522" y2="-1289.3" gradientTransform="translate(-488 1292.1)" gradientUnits="userSpaceOnUse">
      <stop offset=".4" stop-color="#e31b2a" stop-opacity="0"/>
      <stop offset="1" stop-color="#fce8e2"/>
    </linearGradient>
  </defs>
  <!-- Generator: Adobe Illustrator 28.6.0, SVG Export Plug-In . SVG Version: 1.2.0 Build 709)  -->
  <g>
    <g id="Layer_1">
      <text class="cls-1" transform="translate(30 34.6)"><tspan x="0" y="0">+</tspan></text>
      <g>
        <path class="cls-3" d="M45,12.9c0-1.8-.5-3.7-1.3-5.3h0s0-.1,0-.1c-1.9-3.4-5.6-5.8-9.8-5.8h0c-6,0-11.1,5-11.1,11.1,0,0,0,0,0,0,0,1.5.3,2.9.9,4.3h0c0,0,0,0,0,0,1.7,4,5.7,6.8,10.3,6.8s.2,0,.3,0c6-.2,10.9-5.1,10.9-11.2Z"/>
        <path class="cls-2" d="M45,12.9c0-1.8-.5-3.7-1.3-5.3h0s0-.1,0-.1c-1.9-3.4-5.6-5.8-9.8-5.8h0c-6,0-11.1,5-11.1,11.1,0,0,0,0,0,0,0,1.5.3,2.9.9,4.3h0c0,0,0,0,0,0,1.7,4,5.7,6.8,10.3,6.8s.2,0,.3,0c6-.2,10.9-5.1,10.9-11.2Z"/>
        <path class="cls-4" d="M26.6,9.5c0,3.7,3.2,6.6,7.2,6.7h.3c4,0,7.2-3,7.2-6.6h0v-.2c0-3.7-3.3-6.6-7.4-6.6h0c-4.1,0-7.4,3-7.4,6.7"/>
        <path id="_x38_74f79dc-0f09-47a7-a44d-a433da37719a" class="cls-5" d="M26.7,11.5c.6,0,1.1.3,1.3.8h1c-.3-1-1.2-1.7-2.2-1.7-1.3,0-2.3,1-2.3,2.3s1,2.3,2.3,2.3c1,0,2-.7,2.2-1.7h-1c-.2.5-.7.8-1.3.8-.8,0-1.4-.6-1.4-1.4h0c0-.8.6-1.4,1.4-1.4h0ZM43.6,12.3h-2.3v.9h2.3s0-.9,0-.9ZM42.4,8.8l-2.2,2.2.6.6,2.2-2.2-.6-.6ZM39.4,10.7v-2.3s-.9,0-.9,0v2.3s.9,0,.9,0h0ZM36.5,11.5c-.1,0-.2,0-.3,0-.2,0-.5.3-.6.5v-.5h-.9s0,3.6,0,3.6h.9v-1.7c0-.3,0-.5.1-.6.1-.2.4-.5.8-.5h.1s.2,0,.2,0v-.9c0,0-.2,0-.2,0h0ZM33.1,13.7c0,.3,0,.5-.3.7-.2.1-.4.2-.6.2-.1,0-.2,0-.3-.1s-.1-.2-.1-.3,0-.3.2-.4c0,0,.2,0,.4-.1h.2c0,0,.2,0,.2-.1,0,0,.1,0,.2,0v.3ZM33.5,11.7c-.3-.2-.7-.2-1-.2-.6,0-1,.2-1.3.5-.2.2-.2.5-.3.8h.9c0-.1,0-.2.1-.3,0-.1.2-.2.5-.2s.3,0,.4,0,.2.2.2.3c0,.1,0,.2-.2.3,0,0-.2,0-.4,0h-.3c-.4,0-.6.2-.8.3-.3.2-.5.5-.5,1s.1.6.3.8.4.2.7.2c.7,0,1.2-.4,1.2-.4,0,0,0,.3,0,.4h.9v-2.6c0-.4-.1-.7-.4-.9h0ZM29.4,15.2h.9v-4.6h-.9v4.6ZM38.7,14.3c-.5,0-1-.4-1-1s.4-1,1-1c.5,0,1,.4,1,1,0,0,0,0,0,0,0,.5-.4,1-1,1ZM38.7,11.5c-1,0-1.9.8-1.9,1.9h0c0,1,.8,1.9,1.9,1.9h0c1,0,1.9-.8,1.9-1.9h0c0-1-.8-1.9-1.9-1.9,0,0,0,0,0,0"/>
      </g>
      <g id="Layer_1-Adobe">
        <polygon class="cls-6" points="24.8 58.6 31.9 41.2 37.1 41.2 44.4 58.6 39.2 58.6 34.5 47.8 31.3 55.3 34.7 55.3 36.2 58.6 24.8 58.6"/>
      </g>
    </g>
  </g>
</svg>