<?xml version="1.0" encoding="UTF-8" standalone="no" ?>
<!DOCTYPE svg PUBLIC "-//W3C//DTD SVG 1.1//EN" "http://www.w3.org/Graphics/SVG/1.1/DTD/svg11.dtd">
<svg xmlns="http://www.w3.org/2000/svg" xmlns:xlink="http://www.w3.org/1999/xlink" version="1.1" width="128" height="128" viewBox="0 0 128 128" xml:space="preserve">
<desc>Created with Fabric.js 5.2.4</desc>
<defs>
</defs>
<rect x="0" y="0" width="100%" height="100%" fill="transparent"></rect>
<g transform="matrix(1 0 0 1 64 64)" id="3cfb3d16-3f7c-46d2-8911-5fc8c671a53c"  >
<rect style="stroke: none; stroke-width: 1; stroke-dasharray: none; stroke-linecap: butt; stroke-dashoffset: 0; stroke-linejoin: miter; stroke-miterlimit: 4; fill: rgb(255,255,255); fill-rule: nonzero; opacity: 1; visibility: hidden;" vector-effect="non-scaling-stroke"  x="-64" y="-64" rx="0" ry="0" width="128" height="128" />
</g>
<g transform="matrix(0 0 0 0 0 0)" id="e01aff0f-8d4e-4475-bc10-4fc7c15475ac"  >
</g>
<g transform="matrix(0.18 0 0 0.16 64 71)" style="" id="403fedfa-121e-4890-8871-75ebb367707e"  >
		<text xml:space="preserve" font-family="Raleway" font-size="200" font-style="normal" font-weight="400" style="stroke: none; stroke-width: 1; stroke-dasharray: none; stroke-linecap: butt; stroke-dashoffset: 0; stroke-linejoin: miter; stroke-miterlimit: 4; fill: rgb(0,0,0); fill-rule: nonzero; opacity: 1; white-space: pre;" ><tspan x="-41.5" y="62.83" >+</tspan></text>
</g>
<g transform="matrix(2.13 0 0 2.13 64 33.67)"  >
<g style="" vector-effect="non-scaling-stroke"   >
		<g transform="matrix(1 0 0 1 0 0)"  >
<path style="stroke: none; stroke-width: 1; stroke-dasharray: none; stroke-linecap: butt; stroke-dashoffset: 0; stroke-linejoin: miter; stroke-miterlimit: 4; fill: rgb(249,12,0); fill-rule: nonzero; opacity: 1;" vector-effect="non-scaling-stroke"  transform=" translate(-12, -12)" d="M 1.796875 4.980469 C 1.796875 3.222656 3.222656 1.796875 4.980469 1.796875 L 19.011719 1.796875 C 20.773438 1.796875 22.199219 3.222656 22.199219 4.980469 L 22.199219 19.011719 C 22.199219 20.773438 20.773438 22.199219 19.011719 22.199219 L 4.980469 22.199219 C 3.222656 22.199219 1.796875 20.773438 1.796875 19.011719 Z M 1.796875 4.980469" stroke-linecap="round" />
</g>
		<g transform="matrix(1 0 0 1 0 0)"  >
<path style="stroke: none; stroke-width: 1; stroke-dasharray: none; stroke-linecap: butt; stroke-dashoffset: 0; stroke-linejoin: miter; stroke-miterlimit: 4; fill: rgb(249,12,0); fill-rule: nonzero; opacity: 1;" vector-effect="non-scaling-stroke"  transform=" translate(-12, -12)" d="M 4.980469 1.796875 L 19.011719 1.796875 C 20.773438 1.796875 22.199219 3.222656 22.199219 4.980469 L 22.199219 19.011719 C 22.199219 20.773438 20.773438 22.199219 19.011719 22.199219 L 4.980469 22.199219 C 3.222656 22.199219 1.796875 20.773438 1.796875 19.011719 L 1.796875 4.980469 C 1.796875 3.222656 3.222656 1.796875 4.980469 1.796875 Z M 4.980469 1.796875" stroke-linecap="round" />
</g>
		<g transform="matrix(1 0 0 1 0 0)"  >
<path style="stroke: none; stroke-width: 1; stroke-dasharray: none; stroke-linecap: butt; stroke-dashoffset: 0; stroke-linejoin: miter; stroke-miterlimit: 4; fill: rgb(255,255,255); fill-rule: nonzero; opacity: 1;" vector-effect="non-scaling-stroke"  transform=" translate(-12, -12)" d="M 13.613281 6.40625 L 18.519531 17.59375 L 15.039062 17.59375 L 12 10.671875 L 10.152344 14.890625 L 12.320312 14.890625 L 13.507812 17.59375 L 5.480469 17.59375 L 10.386719 6.40625 Z M 13.613281 6.40625" stroke-linecap="round" />
</g>
</g>
</g>
<g transform="matrix(1.28 0 0 1.28 64 98.38)"  >
<g style="" vector-effect="non-scaling-stroke"   >
		<g transform="matrix(1 0 0 1 -18.06 -7.92)"  >
<path style="stroke: none; stroke-width: 1; stroke-dasharray: none; stroke-linecap: butt; stroke-dashoffset: 0; stroke-linejoin: miter; stroke-miterlimit: 4; fill: rgb(255,202,5); fill-rule: evenodd; opacity: 1;" vector-effect="non-scaling-stroke"  transform=" translate(-18.94, -6.17)" d="M 11.552 6.174 C 12.410866480635304 5.894170170982458 13.308698373806411 5.752407240481757 14.211999999999998 5.7540000000000004 C 18.272 5.7540000000000004 21.661 8.578 22.436999999999998 12.334 L 28.189999999999998 11.184 C 26.87 4.801 21.115 0 14.213 0 C 12.630999999999998 0 11.113 0.252 9.69 0.718 L 11.552 6.174 z" stroke-linecap="round" />
</g>
		<g transform="matrix(1 0 0 1 -32.59 0)"  >
<path style="stroke: none; stroke-width: 1; stroke-dasharray: none; stroke-linecap: butt; stroke-dashoffset: 0; stroke-linejoin: miter; stroke-miterlimit: 4; fill: rgb(0,164,223); fill-rule: evenodd; opacity: 1;" vector-effect="non-scaling-stroke"  transform=" translate(-4.41, -14.1)" d="M 4.872 24.667 L 8.81 20.314 C 7.0520000000000005 18.791 5.9430000000000005 16.569 5.9430000000000005 14.094000000000001 C 5.9430000000000005 11.619000000000002 7.050000000000001 9.398000000000001 8.807 7.877000000000002 L 4.87 3.524 C 1.884 6.11 0 9.887 0 14.094 C 0 18.302 1.884 22.08 4.872 24.667" stroke-linecap="round" />
</g>
		<g transform="matrix(1 0 0 1 -18.06 7.93)"  >
<path style="stroke: none; stroke-width: 1; stroke-dasharray: none; stroke-linecap: butt; stroke-dashoffset: 0; stroke-linejoin: miter; stroke-miterlimit: 4; fill: rgb(238,65,35); fill-rule: evenodd; opacity: 1;" vector-effect="non-scaling-stroke"  transform=" translate(-18.94, -22.02)" d="M 22.438 15.857 C 21.659 19.612 18.274 22.433999999999997 14.217999999999998 22.433999999999997 C 13.313132230585543 22.435866367121335 12.413784155675993 22.29306447684854 11.553999999999998 22.011000000000003 L 9.69 27.473 C 11.112 27.939 12.634 28.189999999999998 14.216999999999999 28.189999999999998 C 21.110999999999997 28.189999999999998 26.865 23.392999999999997 28.189999999999998 17.013999999999996 L 22.438 15.856999999999996 z" stroke-linecap="round" />
</g>
		<g transform="matrix(1 0 0 1 15.85 0)"  >
<path style="stroke: none; stroke-width: 1; stroke-dasharray: none; stroke-linecap: butt; stroke-dashoffset: 0; stroke-linejoin: miter; stroke-miterlimit: 4; fill: rgb(0,0,0); fill-rule: evenodd; opacity: 1;" vector-effect="non-scaling-stroke"  transform=" translate(-52.86, -14.1)" d="M 44.476 18.725 L 44.472 18.729000000000003 L 44.309000000000005 18.619000000000003 C 43.839000000000006 19.383000000000003 43.109 20.003000000000004 42.184000000000005 20.405000000000005 C 40.42700000000001 21.172000000000004 38.79900000000001 20.975000000000005 37.63 19.945000000000004 L 37.523 20.109000000000005 C 37.521 20.107000000000006 37.521 20.106000000000005 37.519000000000005 20.106000000000005 L 35.525000000000006 23.102000000000004 C 36.020906422818776 23.4480661855766 36.552231199487785 23.740378617914377 37.11000000000001 23.974000000000004 C 39.31300000000001 24.894000000000005 41.56600000000001 24.851000000000003 43.78600000000001 23.881000000000004 C 45.39300000000001 23.182000000000002 46.65200000000001 22.116000000000003 47.51400000000001 20.765000000000004 L 44.47600000000001 18.725000000000005 z M 38.251 11.332 C 36.396 12.132000000000001 35.439 13.881 35.635999999999996 15.931000000000001 L 43.495999999999995 12.533000000000001 C 42.144 10.937000000000001 40.385999999999996 10.409 38.251 11.332 z M 33.033 20.46 C 32.81017013914655 20.088646170280175 32.6111043261501 19.70354066292295 32.437000000000005 19.307000000000002 C 31.530000000000005 17.192 31.487000000000005 15.004000000000001 32.252 12.903000000000002 C 33.094 10.599000000000002 34.702000000000005 8.835000000000003 36.781000000000006 7.937000000000002 C 39.394000000000005 6.807000000000002 42.28300000000001 7.030000000000002 44.787000000000006 8.523000000000001 C 46.37800000000001 9.439000000000002 47.50600000000001 10.855 48.36200000000001 12.856000000000002 C 48.47200000000001 13.112000000000002 48.56700000000001 13.386000000000001 48.66100000000001 13.619000000000002 L 33.03300000000001 20.459000000000003 z M 54.123000000000005 3.524000000000001 L 54.123000000000005 20.183 L 56.702000000000005 21.233 L 55.237 24.667 L 52.391000000000005 23.477 C 51.752 23.198 51.31700000000001 22.773 50.98800000000001 22.293 C 50.67300000000001 21.803 50.43800000000001 21.133 50.43800000000001 20.227999999999998 L 50.43800000000001 3.524 L 54.12300000000001 3.524 z M 60.803000000000004 15.939 C 60.80031248101439 17.298084416506978 61.38335010139767 18.592427933757865 62.403000000000006 19.491 L 59.761 22.457 C 57.89909293754494 20.801286885878117 56.83663475136763 18.42659453144067 56.843 15.935000000000002 C 56.8408232764647 13.444698739470079 57.90652650985375 11.07299021118299 59.77 9.421 L 62.415000000000006 12.384 C 61.38989115430397 13.280897620011714 60.802217005540776 14.576915981583145 60.803000000000004 15.939 z M 65.503 20.667 C 67.775 20.669 69.671 19.052000000000003 70.113 16.901000000000003 L 73.996 17.697000000000003 C 73.18599999999999 21.666000000000004 69.68799999999999 24.651000000000003 65.499 24.647000000000002 C 64.5639509965897 24.646673804223205 63.635172424110486 24.494354118336616 62.748999999999995 24.196 L 64.01299999999999 20.423000000000002 C 64.481 20.579 64.98299999999999 20.666 65.50299999999999 20.667 z M 65.515 7.239000000000001 C 69.707 7.242000000000001 73.201 10.239 74 14.213000000000001 L 70.116 15.003 C 69.67686321586665 12.806501745465148 67.75095871147556 11.223537891150215 65.511 11.218 C 65.00423134416023 11.218102071872273 64.50078602507686 11.299814860080305 64.02 11.46 L 62.767999999999994 7.683000000000001 C 63.6535781028005 7.387206662046081 64.58133023830844 7.237253277202423 65.51499999999999 7.239 z" stroke-linecap="round" />
</g>
</g>
</g>
</svg>