<?xml version="1.0" encoding="UTF-8"?>
<svg xmlns="http://www.w3.org/2000/svg" xmlns:xlink="http://www.w3.org/1999/xlink" width="24px" height="24px" viewBox="0 0 24 24" version="1.1">
<g id="surface1">
<path style=" stroke:none;fill-rule:nonzero;fill:rgb(98.039216%,5.882353%,0%);fill-opacity:1;" d="M 1.796875 4.980469 C 1.796875 3.222656 3.222656 1.796875 4.980469 1.796875 L 19.011719 1.796875 C 20.773438 1.796875 22.199219 3.222656 22.199219 4.980469 L 22.199219 19.011719 C 22.199219 20.773438 20.773438 22.199219 19.011719 22.199219 L 4.980469 22.199219 C 3.222656 22.199219 1.796875 20.773438 1.796875 19.011719 Z M 1.796875 4.980469 "/>
<path style=" stroke:none;fill-rule:nonzero;fill:rgb(98.039216%,5.882353%,0%);fill-opacity:1;" d="M 4.980469 1.796875 L 19.011719 1.796875 C 20.773438 1.796875 22.199219 3.222656 22.199219 4.980469 L 22.199219 19.011719 C 22.199219 20.773438 20.773438 22.199219 19.011719 22.199219 L 4.980469 22.199219 C 3.222656 22.199219 1.796875 20.773438 1.796875 19.011719 L 1.796875 4.980469 C 1.796875 3.222656 3.222656 1.796875 4.980469 1.796875 Z M 4.980469 1.796875 "/>
<path style=" stroke:none;fill-rule:nonzero;fill:rgb(100%,100%,100%);fill-opacity:1;" d="M 13.613281 6.40625 L 18.519531 17.59375 L 15.039062 17.59375 L 12 10.671875 L 10.152344 14.890625 L 12.320312 14.890625 L 13.507812 17.59375 L 5.480469 17.59375 L 10.386719 6.40625 Z M 13.613281 6.40625 "/>
</g>
</svg>
