<svg xmlns="http://www.w3.org/2000/svg" version="1.0" viewBox="0 0 296 296"><path fill="none" d="M89 37c0 .7.3 1 .7.7.3-.4.3-1 0-1.4-.4-.3-.7 0-.7.7zm128 0c0 .7.3 1 .7.7.3-.4.3-1 0-1.4-.4-.3-.7 0-.7.7zm73.3 72.7c.4.3 1 .3 1.4 0 .3-.4 0-.7-.7-.7s-1 .3-.7.7zM4.2 140c0 1.4.2 1.9.5 1.2.2-.6.2-1.8 0-2.5-.3-.6-.5-.1-.5 1.3zm-.2 9.9c0 .6.4 1.3 1 1.6.6.3.7-.1.4-.9-.7-1.8-1.4-2.1-1.4-.7zM173 275c0 .7.3 1 .7.7.3-.4.3-1 0-1.4-.4-.3-.7 0-.7.7zm-23.2 3.7c.6.2 1.8.2 2.5 0 .6-.3.1-.5-1.3-.5-1.4 0-1.9.2-1.2.5zm6 0c.7.3 1.6.2 1.9-.1.4-.3-.2-.6-1.3-.5-1.1 0-1.4.3-.6.6zm15.5-253c.4.3 1 .3 1.4 0 .3-.4 0-.7-.7-.7s-1 .3-.7.7zM295 155c0 .7.3 1 .7.7.3-.4.3-1 0-1.4-.4-.3-.7 0-.7.7zM129.3 276.7c.4.3 1 .3 1.4 0 .3-.4 0-.7-.7-.7s-1 .3-.7.7z"/><path fill="gray" fill-opacity=".01" d="M135.3 25.7c.4.3 1 .3 1.4 0 .3-.4 0-.7-.7-.7s-1 .3-.7.7zm34 0c.4.3 1 .3 1.4 0 .3-.4 0-.7-.7-.7s-1 .3-.7.7zm125.8 103.9c0 1.1.3 1.4.6.6.3-.7.2-1.6-.1-1.9-.3-.4-.6.2-.5 1.3zM295 153c0 .7.3 1 .7.7.3-.4.3-1 0-1.4-.4-.3-.7 0-.7.7zM131.3 276.7c.4.3 1 .3 1.4 0 .3-.4 0-.7-.7-.7s-1 .3-.7.7z"/><path fill="#A55" fill-opacity=".01" d="M137.8 25.7c.7.3 1.6.2 1.9-.1.4-.3-.2-.6-1.3-.5-1.1 0-1.4.3-.6.6zm29.5 0c.4.3 1 .3 1.4 0 .3-.4 0-.7-.7-.7s-1 .3-.7.7zM295 132c0 .7.3 1 .7.7.3-.4.3-1 0-1.4-.4-.3-.7 0-.7.7zm0 19c0 .7.3 1 .7.7.3-.4.3-1 0-1.4-.4-.3-.7 0-.7.7zM36.5 232c.3.5.8 1 1.1 1 .3 0 .2-.5-.1-1-.3-.6-.8-1-1.1-1-.3 0-.2.4.1 1zm8 8c.3.5.8 1 1.1 1 .3 0 .2-.5-.1-1-.3-.6-.8-1-1.1-1-.3 0-.2.4.1 1z"/><path fill="#804040" fill-opacity=".02" d="M165.3 25.7c.4.3 1 .3 1.4 0 .3-.4 0-.7-.7-.7s-1 .3-.7.7zM5.1 131.6c0 1.1.3 1.4.6.6.3-.7.2-1.6-.1-1.9-.3-.4-.6.2-.5 1.3zM41 236.5c1.3 1.4 2.6 2.5 2.8 2.5.3 0-.5-1.1-1.8-2.5s-2.6-2.5-2.8-2.5c-.3 0 .5 1.1 1.8 2.5z"/><path fill="maroon" fill-opacity=".02" d="M142.8 25.7c1.2.2 3 .2 4 0 .9-.3-.1-.5-2.3-.4-2.2 0-3 .2-1.7.4zm17 0c1.2.2 3 .2 4 0 .9-.3-.1-.5-2.3-.4-2.2 0-3 .2-1.7.4zM295 135c0 .7.3 1 .7.7.3-.4.3-1 0-1.4-.4-.3-.7 0-.7.7zm0 9c0 .7.3 1 .7.7.3-.4.3-1 0-1.4-.4-.3-.7 0-.7.7zm.1 4.6c0 1.1.3 1.4.6.6.3-.7.2-1.6-.1-1.9-.3-.4-.6.2-.5 1.3zM5 155c0 .7.3 1 .7.7.3-.4.3-1 0-1.4-.4-.3-.7 0-.7.7z"/><path fill="#400000" fill-opacity=".02" d="M148.8 25.7c.7.3 1.6.2 1.9-.1.4-.3-.2-.6-1.3-.5-1.1 0-1.4.3-.6.6zm7.5 0c.4.3 1 .3 1.4 0 .3-.4 0-.7-.7-.7s-1 .3-.7.7zm138.9 112.8c0 1.6.2 2.2.5 1.2.2-.9.2-2.3 0-3-.3-.6-.5.1-.5 1.8zm-.2 7.5c0 .7.3 1 .7.7.3-.4.3-1 0-1.4-.4-.3-.7 0-.7.7zM107.3 272.7c.4.3 1 .3 1.4 0 .3-.4 0-.7-.7-.7s-1 .3-.7.7zm27.5 4c.7.3 1.6.2 1.9-.1.4-.3-.2-.6-1.3-.5-1.1 0-1.4.3-.6.6zm25.5 0c.4.3 1 .3 1.4 0 .3-.4 0-.7-.7-.7s-1 .3-.7.7z"/><path fill-opacity=".01" d="M12 190c0 .7.3 1 .7.7.3-.4.3-1 0-1.4-.4-.3-.7 0-.7.7zm127.3 86.7c1.5.2 3.9.2 5.5 0 1.5-.2.2-.4-2.8-.4s-4.3.2-2.7.4zm13-251c.4.3 1 .3 1.4 0 .3-.4 0-.7-.7-.7s-1 .3-.7.7z"/><path fill-opacity=".02" d="m36.4 71.2-1.9 2.3 2.3-1.9c2.1-1.8 2.7-2.6 1.9-2.6-.2 0-1.2 1-2.3 2.2zm225.5 158.5-2.4 2.8 2.8-2.4c2.5-2.3 3.2-3.1 2.4-3.1-.2 0-1.4 1.2-2.8 2.7zm-5.5 5.5-1.9 2.3 2.3-1.9c1.2-1.1 2.2-2.1 2.2-2.3 0-.8-.8-.2-2.6 1.9z"/><path fill="#600" fill-opacity=".02" d="M130.3 26.7c.4.3 1 .3 1.4 0 .3-.4 0-.7-.7-.7s-1 .3-.7.7zM261 64.4c0 .2.8 1 1.8 1.7 1.5 1.3 1.6 1.2.3-.4s-2.1-2.1-2.1-1.3zm6.5 6.6c.3.5.8 1 1.1 1 .3 0 .2-.5-.1-1-.3-.6-.8-1-1.1-1-.3 0-.2.4.1 1z"/><path fill="none" d="M4.3 145.5c0 2.2.2 3 .4 1.7.2-1.2.2-3 0-4-.3-.9-.5.1-.4 2.3z"/><g fill="#7F0000" stroke-width="0"><path d="M136 28.1c-19.6 1.9-42.1 8.4-60.1 17.4-15.8 7.9-24.8 14.3-36.5 26-20.4 20.2-30.7 41.8-32.1 67-.6 10.9.8 24.3 2.5 25.4.5.3 1.7 3.1 2.7 6.1 5.2 16.1 14.8 31.4 28.5 45.1 33 33.4 88.4 47.8 141.3 36.8 34.2-7.1 69.3-28.2 87.5-52.7 9.2-12.5 20.2-35.6 20.2-42.7 0-1.3.8-2.8 1.7-3.4 1.6-.8 1.8-2.5 1.6-12.8-.4-33.7-15-61.6-43.2-82.9-9.8-7.4-30.8-18.1-42.8-21.8-23-7.1-48-9.7-71.3-7.5zm51.9 10.3c6.8 1.5 13.6 3.3 15.2 4.1 1.6.9 3.1 1.5 3.4 1.5 2.9.1 19.8 8 28.2 13.2 25.1 15.6 42.1 39.9 46.4 66.3 1.9 12.3 0 32.4-4 41-.5 1.1-1.6 4-2.5 6.6-4.1 11.6-18.9 31-31.3 41.1-19.4 15.9-39.7 25.4-65.6 31-8.5 1.8-13.4 2.2-29.7 2.2-27.8 0-42.7-3.1-64.4-13.3-35.7-16.7-58.4-44-64.3-77.1-1.8-10-1.2-25.2 1.3-34.5 2.1-7.9 8.1-20.7 13.3-28.4 4-5.9 4.8-6.4 8.1-6.2.8 0 1-.2.4-.5-2.3-1-.1-4.4 7.1-11.3 17-16.1 35.8-26.2 64-34.1 14.5-4.1 22.7-5 43-4.5 15.7.3 21.2.8 31.4 2.9z"/><path d="M147.3 49.7c3.1.2 5.7.8 5.7 1.3 0 .6.5 1 1.1 1 .5 0 .7-.5.4-1-.4-.7 1.5-1 5.4-.9 3.4.1 6.4-.1 6.8-.4.3-.4-5.2-.6-12.3-.5-7.1.1-10.3.3-7.1.5zm-13.5 1c.7.3 1.6.2 1.9-.1.4-.3-.2-.6-1.3-.5-1.1 0-1.4.3-.6.6zm35.7.2c-2.5.5-2.7.8-1.2 1.4 2.6 1 4.9.9 4.2-.2-.3-.5.3-1.2 1.2-1.4 2.8-.7-.8-.6-4.2.2zm-42.5.5c0 .2.9.6 2 .9 1.1.3 1.8.1 1.4-.4-.5-.9-3.4-1.3-3.4-.5zm12 .6c0 .7.3 1 .7.7.3-.4.3-1 0-1.4-.4-.3-.7 0-.7.7zm8 0c0 .7.3 1 .7.7.3-.4.3-1 0-1.4-.4-.3-.7 0-.7.7zm32.3-.3c.4.3 1 .3 1.4 0 .3-.4 0-.7-.7-.7s-1 .3-.7.7zm-56 1c2 .5 2.3 2.9.5 3.6-1 .4-1 .6-.1.6.7.1 1.7-.8 2.2-1.8 1.1-1.9-.4-3.3-3.2-3-.7.1-.4.3.6.6zm32.7.3c0 .5.5 1 1.1 1 .5 0 .7-.5.4-1-.3-.6-.8-1-1.1-1-.2 0-.4.4-.4 1zm20.5 0c.3.5 1.8 1 3.2 1 3.2 0 2.8-.5-1-1.4-1.9-.4-2.6-.3-2.2.4zm6.8-.3c.4.3 1 .3 1.4 0 .3-.4 0-.7-.7-.7s-1 .3-.7.7zM119 54c.8.5 2 1 2.5 1 .6 0 .3-.5-.5-1s-1.9-1-2.5-1c-.5 0-.3.5.5 1zm-4 1c0 .5.5 1 1.1 1 .5 0 .7-.5.4-1-.3-.6-.8-1-1.1-1-.2 0-.4.4-.4 1zm13.8-.3c.6.2 1.8.2 2.5 0 .6-.3.1-.5-1.3-.5-1.4 0-1.9.2-1.2.5zm55 0c.6.2 1.8.2 2.5 0 .6-.3.1-.5-1.3-.5-1.4 0-1.9.2-1.2.5zm5.7.3c-1.1.5-1.4.9-.7.9.7.1 1.1.5.8 1-.3.4.6.6 1.9.3 1.4-.2 2.7-.8 3-1.2.3-.5-.5-.6-1.7-.3-1.9.4-2 .3-.8-.6 1.8-1.3.3-1.3-2.5-.1zm-82 2c.3.5.8 1 1.1 1 .2 0 .4-.5.4-1 0-.6-.5-1-1.1-1-.5 0-.7.4-.4 1zm12.8-.3c.4.3 1 .3 1.4 0 .3-.4 0-.7-.7-.7s-1 .3-.7.7zm77 0c.4.3 1 .3 1.4 0 .3-.4 0-.7-.7-.7s-1 .3-.7.7zm-93 1c.4.3 1 .3 1.4 0 .3-.4 0-.7-.7-.7s-1 .3-.7.7zm8 0c.4.3 1 .3 1.4 0 .3-.4 0-.7-.7-.7s-1 .3-.7.7zm14.5 0c.6.2 1.8.2 2.5 0 .6-.3.1-.5-1.3-.5-1.4 0-1.9.2-1.2.5zm21.5 0c3.1.2 8.3.2 11.5 0 3.1-.2.5-.3-5.8-.3s-8.9.1-5.7.3zm52 0c.4.3 1 .3 1.4 0 .3-.4 0-.7-.7-.7s-1 .3-.7.7zm-97.7 1.4c.4.8-.1.9-1.7.4-2-.5-2.1-.4-.9.5 1.3 1 1.2 1.1-.6.7-1.2-.2-2.1.1-2.1.8 0 1.4 3.2.8 6-1 1.6-1.1 1.6-1.3.2-1.9-1-.4-1.4-.2-.9.5zm34.2-.4c1.2.2 3 .2 4 0 .9-.3-.1-.5-2.3-.4-2.2 0-3 .2-1.7.4zm33.5 0c.9.2 2.5.2 3.5 0 .9-.3.1-.5-1.8-.5-1.9 0-2.7.2-1.7.5zm-53 1c.4.3 1 .3 1.4 0 .3-.4 0-.7-.7-.7s-1 .3-.7.7zm8.7.3c-1.7.6-.9.7 2.5.3 2.8-.3 5.2-.7 5.4-.9.8-.7-5.4-.2-7.9.6zm24.8-.3c3.4.2 8.8.2 12 0 3.1-.2.3-.3-6.3-.3s-9.2.1-5.7.3zm27 0c.7.3 1.6.2 1.9-.1.4-.3-.2-.6-1.3-.5-1.1 0-1.4.3-.6.6zm23.3-.2c-.1 1.4 3.1 4 5.2 4.1.9.1 1.7-.4 1.7-1.1 0-.7.6-1.6 1.3-1.9.6-.3.1-.3-1.2 0-1.6.4-2.1.3-1.7-.5.5-.8 0-.8-1.8-.1-1.7.6-2.6.6-3-.3-.2-.7-.5-.7-.5-.2zm-29.3 1.2c.6.2 1.8.2 2.5 0 .6-.3.1-.5-1.3-.5-1.4 0-1.9.2-1.2.5zm11 0c.7.3 1.6.2 1.9-.1.4-.3-.2-.6-1.3-.5-1.1 0-1.4.3-.6.6zm-60.3 1.7c2.1 1 2.5 1.5 1.2 1.5-1 .1-2.7-.4-3.8-1-3.5-1.8-19.7 4.5-32.9 12.9-13.3 8.4-28.1 24.1-33.6 35.7-1.9 3.9-4.1 10.2-4.9 14-1.5 7.2-1.8 21.7-.5 27 .4 1.6.5-1.6.2-7.3-.5-11 2.1-28.3 4-26.4.6.6.3 3.4-.7 7.3-1.3 5-1.6 9.1-1.2 18.4.3 6.6.9 13.3 1.2 15 .5 2.4.4 2.7-.5 1.5-2.1-2.8-.1 3.1 3.7 10.5 4.2 8.3 8.4 13.8 17.3 22.4 12.5 12.2 30.3 21.9 45.8 25.1 5.6 1.1 7.8 1.9 6.2 2.2-1.4.2 1 .4 5.2.3 4.2 0 7.9-.3 8.3-.6.3-.4 2.5-.5 4.8-.3l4.2.3-4-.9c-2.2-.6-7.6-1.2-12-1.3-4.4-.2-8.9-.8-10-1.4-1.1-.5-3.6-1.3-5.5-1.7-5.7-1.1-21.1-9.1-29.6-15.4-4.3-3.2-11.5-9.6-15.8-14.3-4.4-4.6-7.6-7.8-7.1-7 .5 1 .4 1.2-.4.7-.6-.4-.9-1.2-.6-1.7.4-.5-.5-2.4-1.9-4.2-1.5-1.9-2.6-3.7-2.6-4.2 0-.4 3-.5 6.6-.2 5.2.5 7.6.2 11.7-1.3 6.3-2.4 5.9-2.4 5.5.1-.4 3.1 2.6 4.8 5.3 3 2-1.2 2.1-1.1 1.6.8-.4 1.7.1 2.1 4 2.7 2.7.4 5.5.2 7-.5 2.3-1 2.5-1.6 1.9-4.9-.5-3.7-.5-3.7 4.7-5.7 5.2-2.1 7.3-4.9 4.6-6.5-1.6-1.1-11.9 4-11.3 5.5.3.6 0 2.4-.6 3.9-.9 2.4-1.5 2.7-4.7 2.4-3.5-.3-3.8-.5-3.5-3 .3-2.7.3-2.7-2.9-1.6-3.4 1.2-3.5 1.1-6.5-3.8-.9-1.6-1.5-1.3-5.3 2.9-2.4 2.6-4.7 4.7-5.2 4.7-.4 0 1.5-2.3 4.2-5.1 3.4-3.5 4.7-5.4 3.9-5.9-.8-.5-2.6.8-4.7 3.1-3.7 4-5.3 4.8-5.3 2.6 0-1-1.2-1.1-5.8-.3-3.3.5-6.6.7-7.4.3-3.6-1.3-5.1-26-2.2-37.1 1.4-5.3 8.4-23.2 10.3-26.1.3-.6.8 6.4 1.1 15.5l.6 16.5.2-17.9.2-17.9 7.2-7c8.2-7.8 12.1-10.7 22.9-16.6 8.2-4.5 9-4.7 8.7-2.9-.2.7-2.8 2.7-5.8 4.3-7.1 3.9-12.9 7.9-21.3 14.9L69.8 94l6.4-.2c5.6-.1 5.8-.2 1.5-.5l-4.7-.4 5.2-4.6C101.1 68.7 125 61 160 62.3c16.6.6 27.4 2.8 39.3 8.1 3.2 1.5 5.6 2.2 5.3 1.7-.8-1.3-14.5-6.5-23.1-8.7-5.5-1.4-10.9-1.8-25.5-1.9-10.2 0-21.2.2-24.5.5-3.3.2-7.3.1-9-.3l-3-.8 3 1.5zm-3 1.6c.8 1.3-.5 1.3-2.5 0-1.3-.8-1.3-1 .2-1 .9 0 2 .4 2.3 1zm-3.5 1.1c1.2.9 1.1 1-.7.6-1.3-.3-2.3-.2-2.3.2 0 1-8.2 4.3-8.8 3.6-.3-.3 0-.5.7-.5s1-.4.7-.9c-.4-.5 1.3-1.6 3.6-2.4 5.3-1.9 5-1.9 6.8-.6zm-62.2 53.4c-.3.3-.9-.2-1.2-1.2-.6-1.4-.5-1.5.5-.6.7.7 1 1.5.7 1.8zm48.9 44.2c-.4.3-1 .3-1.4 0-.3-.4 0-.7.7-.7s1 .3.7.7zM62.5 166c-1.1.5-3.1.8-4.5.8-2.3 0-2.2-.1.5-.8 4.2-1.1 6.5-1.1 4 0zM80 197.4c3 2.6 4.6 4.3 3.4 3.8-1.1-.6-2.6-1.8-3.4-2.6-.7-.9-1.8-1.6-2.4-1.6-1.4 0-9.3-8.2-12.5-13-1.6-2.5-.6-1.8 3.6 2.5 3.2 3.4 8.3 8.2 11.3 10.9zm53.7 23.3c-.4.3-1 .3-1.4 0-.3-.4 0-.7.7-.7s1 .3.7.7zm45.6-159c.4.3 1 .3 1.4 0 .3-.4 0-.7-.7-.7s-1 .3-.7.7zm7 0c.4.3 1 .3 1.4 0 .3-.4 0-.7-.7-.7s-1 .3-.7.7zm-80 1c.4.3 1 .3 1.4 0 .3-.4 0-.7-.7-.7s-1 .3-.7.7zm77 0c.4.3 1 .3 1.4 0 .3-.4 0-.7-.7-.7s-1 .3-.7.7zm7.2.3c1.1.5 2.7.9 3.5.9.9 0 .8-.4-.5-.9-1.1-.5-2.7-.9-3.5-.9-.9 0-.8.4.5.9zm18.5 0c0 .7.3 1 .7.7.3-.4.3-1 0-1.4-.4-.3-.7 0-.7.7zm-104.7 1.7c.4.3 1 .3 1.4 0 .3-.4 0-.7-.7-.7s-1 .3-.7.7zm92.7.3c.8.5 2 1 2.5 1 .6 0 .3-.5-.5-1s-1.9-1-2.5-1c-.5 0-.3.5.5 1zm4.3-.3c.4.3 1 .3 1.4 0 .3-.4 0-.7-.7-.7s-1 .3-.7.7zm11.1 1.2c.1.8.9 1.5 1.9 1.7.9.1 1.5-.2 1.1-.7-.3-.5-.9-.7-1.4-.4-.5.3-1 0-1.3-.7-.3-.9-.4-.8-.3.1zm-125.9.2c.6.9.3 1.1-.8.6-.9-.3-1.9-.3-2.1.2-.3.4 1 .7 2.9.6 1.9 0 3.6-.3 3.7-.6.2-.2.1-.3-.1-.2-.2.1-1.3-.2-2.4-.8-1.5-.9-1.8-.8-1.2.2zm14.8-.4c.4.3 1 .3 1.4 0 .3-.4 0-.7-.7-.7s-1 .3-.7.7zm109.1 5.8c4.3 2.4 9.9 6 12.4 8l4.7 3.7-4-3.7c-4-3.7-18.1-12.5-20-12.5-.5 0 2.6 2 6.9 4.5zm7.2-3.7c-.8 1.4.8 2.7 3.9 3l3 .3-2.5-2c-2.7-2.3-3.6-2.5-4.4-1.3zM81.5 69c.6 1 .4 1.2-.8.7-2.4-.9-3.2 1.2-1.1 2.8 1.1.8 2.4 1.4 2.9 1.4.6 0 .2-.5-.7-1.2-1.5-1-1.5-1.2-.1-2.2 1.3-1 1.3-1.4.3-2-.9-.6-1.1-.4-.5.5zM211 69c3.5 2.4 5.4 3.1 3 1.1-1.4-1.1-2.9-2.1-3.5-2.1-.5 0-.3.5.5 1zm13.5 0c.3.5.8 1 1.1 1 .3 0 .2-.5-.1-1-.3-.6-.8-1-1.1-1-.3 0-.2.4.1 1zm2.9 1.9c.5.8 0 1.4-1.3 1.8-1.2.3-2.1.9-2.1 1.5 0 1 3.6-.7 4.5-2.1.3-.5 0-1.3-.6-1.7-.8-.5-.9-.3-.5.5zm-152 1.3c-.4.7-.3.8.4.4 1.2-.7 1.6-1.6.8-1.6-.3 0-.8.5-1.2 1.2zm11.9.5c.4.3 1 .3 1.4 0 .3-.4 0-.7-.7-.7s-1 .3-.7.7zm129.7-.3c0 .3.9 1 2 1.6 1.1.6 2 .8 2 .6 0-.3-.9-1-2-1.6-1.1-.6-2-.8-2-.6zM71.7 75c-.8 1.1-1.6 1.8-1.9 1.5-.7-.7-4.1 3.3-4.4 5.1-.1.8.2 1.2.7.8.5-.3.7-.9.4-1.3-.8-1.4 2.8-3.8 5.3-3.6 1.3.1 2.6-.3 2.9-.8.3-.6.1-.7-.5-.3-.7.4-1.2.1-1.2-.8 0-1 .6-1.3 1.5-1 .8.4 1.5.4 1.5.1 0-1.6-3.1-1.3-4.3.3z"/><path d="M206 73.3c0 .3 3.2 2.4 7.2 4.7 8.8 5.3 21.8 17.5 27 25.4 5.7 8.9 9 20.1 9.1 31.1 0 11.1-.3 12.7-2 12.1-1.1-.5-1.1-.1.1 1.6 1.4 2 1.3 2.3-.9 4.4-1.3 1.2-3.4 2.5-4.5 2.9-1.1.4-1.8 1.1-1.4 1.6.3.6 2 .1 3.8-1.1 4-2.4 4.6-2.5 4.6-.5 0 .8-.6 1.5-1.2 1.5-1 0-.9.3.1.9.7.5 1.1 1.7.7 2.7-.5 1.7-1.5 1.9-7.3 1.8-5.2-.2-7-.6-8-2-.7-1-1.1-2.4-.8-3.2.2-.7 0-1-.5-.7-.6.3-1 .1-1-.6s-1.1-1-3-.7l-3 .5 2.2-2.4c2.5-2.7 3.3-2.9 2.4-.7-.5 1.4-.4 1.5.9.4 1.2-1 1.5-.9 1.7.6.1 1.1.4-.6.7-3.6.3-3 .5-5.7.4-5.9-.1-.2-2.8 1.8-5.8 4.4-4.5 3.8-5.6 5.3-5.3 7.4.4 3.1 3.6 4.1 5.4 1.6 1.9-2.6 3.3-1 3 3.6-.3 4.4-1.7 5.9-5.6 5.8-2.3 0-2.2-.1.8-1.4 2.1-.9 3.1-1.9 2.6-2.6-.5-.8-.3-.9.6-.4.9.5 1.1.4.6-.3-.4-.8-1.5-.8-3.1-.2-5 1.9-12.4-3.5-11-8 .3-1 2.8-3.5 5.6-5.5 5-3.8 6.8-5.8 2.5-3-2.1 1.4-2.5 1.4-3.6 0-.7-.8-1.8-1.5-2.5-1.5s-1.5-.7-1.9-1.5c-.7-2-1.9-1.9-4.7.6l-2.4 2.1 2.5-1.6c6.1-3.9 5.3.1-1 5.4-5.2 4.4-6.4 7.6-3.5 10 1.3 1 1.9 1 3.3-.4 2.3-2 3.2-2 3.2-.2s-3.8 4.6-6.2 4.6c-.9 0-3.4-1.5-5.4-3.2l-3.7-3.3.5 3.1c.2 1.8-.1 3.6-.9 4.3-1.8 1.6-4.9-.3-9.4-5.9-1.8-2.2-3.7-4-4.3-4-.6 0-.4.5.4 1 1 .6 1.1 1 .3 1s-1.3 1.5-1.3 4.1v4l-3.7-.3-3.8-.3.4-5.9c.2-3.2-.1-5.6-.5-5.4-.5.2-3.5 1.6-6.6 3.1-3.2 1.5-5.8 3-5.8 3.5 0 .4 1.4.9 3 1 1.7.1 3-.2 3-.6 0-.5 1.4-.9 3-.9 1.8 0 2.9.5 2.7 1.1-.7 2.2-5.3 3.6-11 3.4-4.9-.3-5.7 0-5.7 1.4 0 1 .6 1.8 1.3 1.8.9 0 .9.2-.1.9-.8.4-1.2 1.2-1 1.7.1.5-1.2 1-2.9 1.2-3 .3-3.3.6-3.3 3.8 0 3.4.9 4 5 3.4 2.2-.3 5-3.1 5-5 0-1.3 1.1-1.9 4.5-2.3 2.5-.2 5.4-1.2 6.4-2.1 2.4-2.2 3.4-2 2.2.3-.8 1.5-.7 2 .5 2.5 2.7 1 8.9.7 10.2-.6 1.5-1.5 1.6-5.4.2-6.3-.5-.3-1-1.6-1-2.7 0-2.1 0-2.1 2-.3 1.2 1 1.8 2.5 1.6 3.2-.3.7 0 1.2.7 1 .7-.1 1.3 1.2 1.5 3.1l.3 3.4 6.2-.6c10.2-.8 14.6-1.7 15.8-3.2 1.6-1.9 3.6-1.8 6.6.6 3.3 2.5 7.3 2.6 10.6 0 2.1-1.7 2.6-1.8 3.1-.5.3 1 1.9 1.5 4.6 1.5h4.1l-4.3 6.2c-5.8 8.3-17.7 19.9-25.9 25.4-9 5.9-25.8 13.9-33.9 15.9-3.6.9-6.7 1.9-7 2.2-.3.3.6.3 2-.1 1.4-.3 5.6-1.1 9.4-1.6 7.9-1.2 21.6-7.2 31.7-14 8.1-5.4 23.4-20.6 21.8-21.6-.8-.5-.9-.3-.4.6.6.9.4 1.1-.4.6-1.5-1-.6-2.1 1.6-2.1.9 0 3.6-3.1 6-6.8 2.4-3.8 4-6.6 3.4-6.3-.5.4-1.2.2-1.6-.4-.3-.5-2-1-3.7-1-4.4 0-3.1-.6 2.4-1.2 3.4-.4 4.6-.2 4.1.6-.4.6.1.5 1-.3 2.2-1.8 2.1-.9-.3 3.9-1.1 2.2-1.7 4-1.3 4 .5 0 2.2-3.2 3.8-7 2.8-6.6 5.2-8.9 7.5-7.5.7.4.7 1.3 0 2.6-.8 1.5-.7 1.9.4 1.9 1 0 1.3-.6.9-1.7s-.3-1.4.5-.9c.7.4 1.2.3 1.2-.3 0-.5-.6-1.1-1.2-1.4-1-.3-.9-.8.2-2.3 1.4-1.8 1.4-1.8-.2-.5-1 .7-2.5 1.1-3.3.7-1.7-.6-2-3.2-.5-3.9.6-.3.5-.4-.2-.3-.7.1-1.9 2.1-2.7 4.5-2.2 6.8-2.4 4.1-.5-7.1 1.8-10.7 1.3-26.5-.7-25.2-.6.3-.7-.5-.3-2.2.5-1.9.4-2.5-.5-2-.8.5-1 .1-.7-1.6.3-1.2-.1-3.7-.9-5.3-.9-1.7-1.3-2.2-1-1.2 1.2 4.4-.9 3.4-3.1-1.4-1.6-3.4-2.1-5.6-1.5-6.2 1.6-1.6-.7-5.1-2.3-3.7-1 .8-1.7.5-2.8-1.2-2.5-3.7-12.3-13.4-18-17.6-5.7-4.2-14.8-9.7-14.8-8.9zm36.3 29.4c-.5 1.2-.3 1.4.7.8.9-.6 1.1-.4.5.4-.5.9-1.1.9-1.7.3-.6-.6-.7-1.5-.4-2.1 1.1-1.7 1.6-1.3.9.6zm7.3 16c-1 1-1.9-.5-1-1.8.6-1.1.8-1.1 1.2 0 .2.7.1 1.5-.2 1.8zm1.1 45c-.4.3-.7 0-.7-.7s.3-1 .7-.7c.3.4.3 1 0 1.4zm-5 0c-.4.3-1 .3-1.4 0-.3-.4 0-.7.7-.7s1 .3.7.7zm-66 1.9c-.3.3-1.2.4-1.9.1-.8-.3-.5-.6.6-.6 1.1-.1 1.7.2 1.3.5zm62 2.1c-.4.3-1 .3-1.4 0-.3-.4 0-.7.7-.7s1 .3.7.7zm-6.7 15.7c0 .2-.8 1-1.7 1.7-1.6 1.3-1.7 1.2-.4-.4 1.3-1.6 2.1-2.1 2.1-1.3zm-6.7 6.1c-1 1.3-2.5 2.7-3.3 3-.8.4-.2-.8 1.4-2.4 3.6-3.7 4.3-4 1.9-.6zm3.1-115.7c.3.5 0 1.3-.6 1.5-.9.4-1 .6-.1.6 1.7.1 2.5-1.6 1.2-2.5-.7-.4-.9-.3-.5.4zm-8.9 2.2c.3.5.8 1 1.1 1 .3 0 .2-.5-.1-1-.3-.6-.8-1-1.1-1-.3 0-.2.4.1 1zm15.6 3.7c2 2.1 2.7 3.3 1.6 3-1.6-.6-1.6-.5-.1 1.8 1.3 2 1.9 2.3 3 1.4 1.2-.9 1.3-.9.9.4-.4.8-.1 1.8.4 2.2.6.3.9 1 .6 1.5-.9 1.5 3.5 3.4 4.8 2.1.6-.6.8-1.2.4-1.2-.4-.1-1-.2-1.4-.3-1.5-.3-3.3-1.7-3.3-2.7 0-.6.6-.7 1.3-.3.6.4-1.5-2.1-4.8-5.5-3.3-3.3-6.2-6.1-6.4-6.1-.3 0 1.1 1.6 3 3.7zm4.4 4.3c.3.5.4 1 .1 1-.3 0-.8-.5-1.1-1-.3-.6-.4-1-.1-1 .3 0 .8.4 1.1 1zM226 78.4c0 .2.8 1 1.8 1.7 1.5 1.3 1.6 1.2.3-.4s-2.1-2.1-2.1-1.3zm5 3.9c0 .2 1.4 1.6 3.2 3.3 1.7 1.6 2.7 2.2 2.2 1.4-.5-.8-.9-1.9-.9-2.4s-1-1.2-2.2-1.7c-1.3-.5-2.3-.7-2.3-.6zM62.6 84.7c-.6 1.4-.5 1.5.5.6.7-.7 1-1.5.7-1.8-.3-.3-.9.2-1.2 1.2zm4.8-.5c-.4.7-.3.8.4.4 1.2-.7 1.6-1.6.8-1.6-.3 0-.8.5-1.2 1.2z"/><path d="M232.4 87.9c2.5 3 4.3 5.8 4 6.3-.3.5-.1.7.4.6.5-.2 1.9.8 3.2 2.2l2.2 2.5-2-3c-1.1-1.7-4.4-5.5-7.2-8.5l-5.2-5.5 4.6 5.4zM58 90c-.9.6-1 1-.3 1 .6 0 1.5-.5 1.8-1 .8-1.2.4-1.2-1.5 0zm-4.6 2.2-1.9 2.3 2.3-1.9c2.1-1.8 2.7-2.6 1.9-2.6-.2 0-1.2 1-2.3 2.2zm2.9.5c.4.3 1 .3 1.4 0 .3-.4 0-.7-.7-.7s-1 .3-.7.7zm193.1 2.9c1 .7 2.4 3 3.2 5.1l1.3 3.8-.2-3.7c-.1-2-.6-3.4-1-3.1-.5.3-.7-.3-.5-1.2.2-1.3-.4-1.9-2.1-2-2.2-.2-2.2-.1-.7 1.1zm-199 1c-1 .8-1.3 1.3-.6.9.6-.3 1.2-.1 1.2.5s.5.8 1.1.5c.6-.4 1.6.1 2.3 1 1.2 1.7 1.3 1.7 1.3 0 0-1-.9-2-2-2.3-1.4-.4-1.6-.7-.5-1.3.7-.5.8-.9.2-.9-.5 0-1.9.7-3 1.6zm26.7 6.6c-.1 5.5 0 5.7 1.7 4 .9-.9 1.7-2.9 1.7-4.4 0-3.1-1.4-2.7-1.6.5-.1 1.2-.5.4-.9-1.8-.7-3.8-.7-3.8-.9 1.7zM131 101c-5.1 3.3-6.7 3.6-9.4 1.5-3.1-2.3-4.9-2-3.4.6 1.5 2.3.4 3.4-8.6 9.7-2.7 1.8-4.6 3.6-4.3 3.8.3.3 3.3-1.3 6.6-3.5 3.3-2.3 6.2-3.7 6.5-3.2.3.5-2.4 3.5-6 6.6-6.2 5.5-8.1 9.4-4.1 8.7.9-.2 1.7.2 1.7.8 0 .5.7 1 1.6 1 .8 0 1.2-.5.9-1.1-.4-.6-.1-.9.6-.8.8.1 2.2-.1 3.2-.6 1-.4 2.1-.5 2.4-.1.9.9-2.8 4.7-6.2 6.2-2.4 1-2.6 1.3-1 1.4 1.1.1 1.4.4.7.7-.6.2-1 .9-.6 1.4.9 1.5-8.5 1-11.6-.6-1.7-.9-3-1.2-3-.8-.1.5-1.2-.5-2.5-2.2-2.2-2.7-2.5-2.8-4.2-1.3-3.9 3.4-8 4.5-18.3 5.1-5.8.3-11.6 1-13 1.5-2.2.8-2 1 2.5 2 9.9 2.2 19.9 2.4 24.6.6 2.4-.9 6-1.7 7.9-1.7 1.9 0 2.9-.2 2.3-.4-.7-.3-1.3-1-1.3-1.6 0-.7 1.1.1 2.5 1.6s3.6 2.7 4.8 2.8c1.2 0 5.9.4 10.4.7 5.3.5 8.4.4 8.6-.3.2-.6 1.4-.4 3.1.5 2 1 3.2 1.1 4.4.3.9-.5 3.4-.8 5.5-.6 3.7.4 9.7-1.9 9.7-3.7 0-1.2-1.4-1.3-11-1.1-5.1.2-7.9.7-8.6 1.7-1 1.2-1.2.9-1.6-1.5l-.4-3 6.5.6c8.3.7 13.5-.6 13.9-3.3.2-1.2-.4-2.7-1.3-3.4-2.8-2.3-1.7-4.5 3.8-7.3 2.8-1.5 6.9-3.3 9-4.1 2.5-1 3.7-2.1 3.7-3.4 0-2.3-2.4-4.6-4.2-4-1.8.6-4.1-1.9-3.2-3.4.5-.7-1.4.7-4.1 3-2.8 2.4-5 4.8-5 5.2 0 .5-.4 1.2-.9 1.7s-.6.3-.2-.5c.4-.7.1-1.2-.8-1.2-1.3 0-1.6 1.6-1.6 10v10h-12v-9.3c0-5.2-.3-9.7-.6-10-.4-.3-1.6 0-2.8.8-2.5 1.8-3.6 1.9-3.6.2s5.2-6.6 12.4-11.6c6.7-4.7 6.4-5.5-.4-1.1zm-11.3 22.2c.7.6 1.3 1.6 1.3 2.2 0 .6-.5.4-1-.4s-2.4-2-4.2-2.7c-3.2-1.3-3.2-1.3-.3-.7 1.6.3 3.6 1 4.2 1.6zM91 131.5c-.7.8-1.6 1.5-2.1 1.5s-.1-.8.9-1.8c2-2.2 3.1-1.9 1.2.3zm-5 3.5c-.8.5-1.9 1-2.5 1-.5 0-.3-.5.5-1s2-1 2.5-1c.6 0 .3.5-.5 1zm-4.3.7c-.4.3-1 .3-1.4 0-.3-.4 0-.7.7-.7s1 .3.7.7zm-14.4 1c-.7.2-1.9.2-2.5 0-.7-.3-.2-.5 1.2-.5s1.9.2 1.3.5z"/><path d="M139.2 100.1c.9 1.5 1 2.3.2 2.6-.6.2-2.6 1.5-4.4 2.8l-3.4 2.5h3.8c3.6 0 11.8-3.9 13.2-6.2.5-.7.1-.7-1.1-.1-1.3.8-2.3.4-4.1-1.4-1.3-1.2-3-2.3-3.9-2.3-1.3 0-1.3.3-.3 2.1zm-46.7.9c.3 1 .1 2.8-.4 3.9-1.5 2.7 1.2 3.6 3.4 1.2 2.1-2.5 1.1-7.1-1.7-7.1-1.5 0-1.8.5-1.3 2zm-44.8.2c.4.7.8 1.6.8 2 0 .5.4.8.9.7.5 0 1.3.5 1.7 1.3.7 1.1.9 1.1.9-.1 0-.7-1-2.2-2.2-3.2-2.5-2.2-3.3-2.4-2.1-.7zm-2.3 2c-.4.7-.3.8.4.4 1.2-.7 1.6-1.6.8-1.6-.3 0-.8.5-1.2 1.2zm62.3 2.8c-3 2.2-6.3 4-7.2 4-.9 0-1.4.4-1.1.8.3.5-.8 2.2-2.4 3.7-2.6 2.5-3.1 2.6-4.7 1.4-1.5-1.2-1.5-1 .1.9 1.9 2.2 1.9 2.2 3.3.2.7-1 5.2-4.7 9.8-8.1 7.6-5.5 9.3-6.9 8.2-6.9-.2 0-2.9 1.8-6 4zm147.3-2.1c-1.3 2.5-1.3 4.4 0 3.6.5-.3 1.5.6 2.3 2.1 1.2 2.2 1.5 2.4 2 1 .5-1.1.3-1.5-.5-1-.7.5-.9 0-.6-1.4.4-1.4.2-2-.5-1.5-.7.4-.8 0-.4-1.1.5-1.1.3-1.5-.5-1s-.9.2-.5-.9c.9-2.3 0-2.1-1.3.2zm-78.4 1.9c-4.8 2.8-14.6 12.7-14.6 14.8.1 1.3.5.9 1.5-1.3 1.2-2.8 3.9-5.3 14.1-13 3.4-2.6 3-2.8-1-.5zm5.4-1c0 .5 2.3 2.8 5 5.1 5.2 4.4 6.5 8.2 3.8 11-1.1 1-.8 1.1 1.4.7 1.5-.2 2.9.1 3.2.7.2.7.4-2.4.4-6.8 0-5.1-.3-6.8-.7-4.7l-.6 3.4-2.3-3.1c-2.2-3-10.2-7.9-10.2-6.3zm15.3.2c-1.3.5-2.3 1.1-2.3 1.2 0 .2 4.4.3 9.8.3 8.5 0 10.4.3 14.7 2.5 6.6 3.4 11 9.8 12 17.5.6 5 .9 5.6 2.8 5.3 3-.4 3.1-2.5.7-9.1-2.3-6-9.1-13.6-14.7-16.2-3.8-1.8-19.9-2.9-23-1.5zm51.7 1c0 .7.3 1 .7.7.3-.4.3-1 0-1.4-.4-.3-.7 0-.7.7zm2 .5c0 .8.4 1.5 1 1.5.5 0 .7-.7.4-1.5-.4-.8-.8-1.5-1-1.5-.2 0-.4.7-.4 1.5zM44 110c0 .7.3 1 .7.7.3-.4.3-1 0-1.4-.4-.3-.7 0-.7.7zm2.7.4c-.4 1 0 1.4 1.3 1.3 1.4-.1 1.6-.4.8-1.4-1.3-1.6-1.5-1.6-2.1.1zm37.8 2.1c-2.7 1.3-4.2 2.4-3.3 2.4 1 .1 3.2-.8 5-1.9 4.3-2.6 5.6-2.5 3.2.2l-1.9 2.3 2.3-1.9c4.8-4.1 2.2-4.6-5.3-1.1zm10.8-1.8c.4.3 1 .3 1.4 0 .3-.4 0-.7-.7-.7s-1 .3-.7.7z"/><path d="M207.4 111.6c.3.9.6 5.8.6 11 0 8.6.2 9.4 1.9 9.4 2.4 0 3.6-3.2 2.2-5.9-1.3-2.4-1.4-7.1-.2-9 1.5-2.3 4.1 4.1 4.2 10.1 0 3.9.3 4.8.9 3.3 1.4-3.3 1.1-9.5-.7-13.2-2.2-4.6-10.5-10-8.9-5.7zm-159.9 3.3c-.7 2.4-1.5 2.6-3.5.8-.8-.6-.7-.3.3.9.9 1.1 1.7 2.7 1.8 3.5 0 .8.7-.4 1.5-2.5.8-2.2 1.2-4.1 1-4.3-.2-.3-.7.5-1.1 1.6zm128.9-.7c-.5.7-.3.8.6.3.8-.5.7.1-.3 1.6-.9 1.3-1.7 4.1-1.7 6.2 0 3.4.2 3.7 2 2.7 2.8-1.5 3.8-4 3.3-8.3-.5-3.6-2.4-4.9-3.9-2.5zm81.5.7c1.4 2.5 2 2.7 1.7.4-.2-.9-.8-1.9-1.5-2.1-1-.3-1 0-.2 1.7zm-4.8.9c0 .4.4 1.6.9 2.7.7 1.6.9 1.7.9.3.1-.9.7-1.8 1.3-2 .7-.3.2-.7-1-1-1.2-.4-2.2-.3-2.1 0zM62 117c0 .7.3 1 .7.7.3-.4.3-1 0-1.4-.4-.3-.7 0-.7.7zm97.5 0c-.3.6.1.7.9.4 1.8-.7 2.1-1.4.7-1.4-.6 0-1.3.4-1.6 1zm102.5 1c0 .7.3 1 .7.7.3-.4.3-1 0-1.4-.4-.3-.7 0-.7.7zm-223.4 2.2c.3.4.9.8 1.5.8.5 0 .9-.4.9-.8 0-.5-.7-.9-1.5-.9s-1.2.4-.9.9zm218.4.8c0 .7.3 1 .7.7.3-.4.3-1 0-1.4-.4-.3-.7 0-.7.7zm-177.8 2.1c-3.2 2.9-1.7 4.4 2.1 2.2 1.7-1 3.2-2.4 3.5-3.1.6-2-3.2-1.4-5.6.9zM263 122c0 .7.3 1 .7.7.3-.4.3-1 0-1.4-.4-.3-.7 0-.7.7zm-226 1c0 .7.3 1 .7.7.3-.4.3-1 0-1.4-.4-.3-.7 0-.7.7zm2.6 1.2c.3.5 1 .6 1.5.3 1.3-.9 1.1-1.2-.6-1.2-.8 0-1.2.4-.9.9z"/><path d="M162.8 124.6c-.6 2.8 1.6 6.6 5.9 10.4 2.1 1.9 3.7 3.6 3.5 3.9-.2.3.2.7.9 1 .7.2.9-.1.4-.9-.5-.9-.4-1.1.4-.6.6.4.9 1.2.6 1.7-.4.5.3.9 1.4.9 1.1 0 2.3-.5 2.6-1.1.8-1.2 11.1-5.9 13-5.9 1.5 0 2.5-2.2 2.5-5.7 0-2.4-.2-2.5-3.7-1.8-2.1.4-4.5 1.2-5.3 1.8-.8.6-.4-.2 1-1.8l2.5-2.8-4 2.8c-5.3 3.8-6.5 5-4.2 4.2 2.4-.9 2.1 0-.4 1.4-1.6.8-2 .8-1.4 0 .5-.8-.1-1-1.9-.5-2.8.7-7.5-2-11.2-6.4-2-2.3-2.2-2.3-2.6-.6zm93.3 1.6c-.1 2 1.4 2.4 2.5.6.4-.6.3-.8-.4-.4-.5.3-1.3 0-1.5-.6-.3-.8-.6-.6-.6.4zm-60.9 1.8c0 1.4.2 1.9.5 1.2.2-.6.2-1.8 0-2.5-.3-.6-.5-.1-.5 1.3zm66.1-1.3c.4.3 1 .3 1.4 0 .3-.4 0-.7-.7-.7s-1 .3-.7.7zm2.9 1.8c0 1.6.2 2.2.5 1.2.2-.9.2-2.3 0-3-.3-.6-.5.1-.5 1.8zM36 128c0 .7.3 1 .7.7.3-.4.3-1 0-1.4-.4-.3-.7 0-.7.7zm49 2.1c-1.9 1-2.8 1.8-1.9 1.9.9 0 2.7-.9 4-2 2.9-2.4 2.5-2.3-2.1.1zm13-1.6c0 .8 6.1 3.6 7 3.3.5-.2-.9-1.1-3-2-2.2-.9-4-1.5-4-1.3zm-58.7 1.2c.4.3 1 .3 1.4 0 .3-.4 0-.7-.7-.7s-1 .3-.7.7zm221.2 2.3c.3.5.8 1 1.1 1 .3 0 .2-.5-.1-1-.3-.6-.8-1-1.1-1-.3 0-.2.4.1 1zm-223.4 1.6c0 1.1.3 1.4.6.6.3-.7.2-1.6-.1-1.9-.3-.4-.6.2-.5 1.3zm32.7-.9c2.3.2 5.9.2 8 0 2-.2.1-.4-4.3-.4-4.4 0-6.1.2-3.7.4zm129.5 0c1.5.2 3.9.2 5.5 0 1.5-.2.2-.4-2.8-.4s-4.3.2-2.7.4zm24 0c.4.3 1 .3 1.4 0 .3-.4 0-.7-.7-.7s-1 .3-.7.7zm4 0c.9.2 2.3.2 3 0 .6-.3-.1-.5-1.8-.5-1.6 0-2.2.2-1.2.5zm-192 6.8c0 3.3.2 4.5.4 2.7.2-1.8.2-4.5 0-6s-.4 0-.4 3.3zm167-4.7c-6.4.2-7.3.5-7.3 2.2 0 1 .4 2.1.9 2.5 1.1.6 18.8.8 32.6.3 9.2-.4 14.6-2.1 12.7-4-.9-.9-16.2-1.3-25.2-.6-1.4.1-3.4 0-4.5-.3s-5.3-.3-9.2-.1zm29.7.6c0 .2-1.8.6-3.9.8-2.2.2-3.7 0-3.5-.4.5-.8 7.4-1.1 7.4-.4zM37 138c0 .7.3 1 .7.7.3-.4.3-1 0-1.4-.4-.3-.7 0-.7.7zm223 .7c-2.5 1.5-2.5 1.5-.2 1 2-.5 2.3-.2 1.9 1.4-.3 1-.1 1.9.4 1.9s.9-1.4.9-3c0-1.7-.1-3-.2-2.9-.2.1-1.4.8-2.8 1.6zm4.2 2.3c0 1.9.2 2.7.5 1.7.2-.9.2-2.5 0-3.5-.3-.9-.5-.1-.5 1.8zm-224 1.6c-.7.8-.8 1.4-.3 1.4 1 0 2.5-1.9 2-2.5-.2-.1-1 .3-1.7 1.1zm79.3.4-3 .8h3.5c1.9 0 4.6-.4 6-.8 2.4-.8 2.4-.8-.5-.8-1.6 0-4.3.4-6 .8zm47.5.1c-4.3.7-4.3.7 1.3.5 6.7-.3 7.8 1.6 2 3.5-8.2 2.6-7.8 5.6.6 4.4 5-.7 5.1-.8 5.1-4.1 0-3.2.2-3.4 3.2-3.4 1.7 0 2.9-.2 2.7-.4-1-.8-10.8-1.2-14.9-.5zm25.8-.4c1.2.2 3 .2 4 0 .9-.3-.1-.5-2.3-.4-2.2 0-3 .2-1.7.4zm-130 1c.6.2 1.8.2 2.5 0 .6-.3.1-.5-1.3-.5-1.4 0-1.9.2-1.2.5zM79 145c1.6 3 2.6 3.1 4.8.7l2.1-2.2-3.9-.2c-3.6-.1-3.9 0-3 1.7zm33.3-1.3c.4.3 1 .3 1.4 0 .3-.4 0-.7-.7-.7s-1 .3-.7.7zm73.3.1c.6.4 2.1 2.5 3.2 4.7l2.1 4 .1-3.2c0-4.4-1-6.9-2.1-5.1-.7 1-.9 1-.9 0 0-.6-.8-1.2-1.7-1.2-1.1 0-1.4.3-.7.8zm13 3.9c-.3 2.5-.5 4.8-.3 4.9.1.2 2-1.3 4.2-3.2 2.2-2 3.5-3.3 2.9-3-.7.3-2.3-.3-3.7-1.4l-2.4-1.9-.7 4.6zm40.7-4c.9.2 2.5.2 3.5 0 .9-.3.1-.5-1.8-.5-1.9 0-2.7.2-1.7.5zM86.2 147c-2.2 2.9-2.6 4.8-.8 4.2.5-.2.4.4-.4 1.2-.8 1.1-.9 1.6-.1 1.6.6 0 1 .3.9.7-.3 1.1 2.5 5.3 3.4 5.3.5 0 .8-3.4.8-7.5V145h6.8c4.7 0 7.9.6 10.5 1.9 2 1 3.4 1.4 3.1.9-1.4-2.2-7.7-3.8-14.6-3.7-6.8 0-7.4.2-9.6 2.9zm39.8-1c-1.9 1.1-4.2 1.9-5.1 2-1.4 0-2.9 1.9-2.9 3.6 0 .3 2.3.2 5.1-.2 4.2-.6 5.1-.4 4.7.7-.3.8-.9 1.4-1.4 1.5-3.4.4-7.4 2.8-7.4 4.5 0 1 .5 1.9 1.1 1.9.5 0 .7-.5.3-1.1-.5-.8.1-1 1.9-.7 1.5.3 2.4.1 2.1-.3-.3-.5.2-.9 1.1-.9.9 0 1.3.4 1 1-.3.5 0 1 .8 1 .7 0 1.4-.6 1.4-1.3 0-.6.3-4 .8-7.5.4-3.4.5-6.2.3-6.2-.1.1-1.9.9-3.8 2zm12.8-1c11.3 1 15.2 4.5 9.8 8.8l-2.5 1.9 3.3 1 3.3 1 .2-5.2.2-5.2-4.1-1.7c-2.6-1-6.6-1.5-11.3-1.5l-7.2.2 8.3.7zm123.2 0c0 .7.3 1 .7.7.3-.4.3-1 0-1.4-.4-.3-.7 0-.7.7zm-194.1 1.7c-1.2 1.4-1.2 1.6 0 .8 1-.6 1.2-.4.6.4-.4.7-1.8 1.1-3.1.8-1.3-.2-2.1 0-1.8.4.3.5 1.8.9 3.4.9 4 0 4.6 1.6 1.3 3.5l-2.8 1.5 2.8-.6c2.1-.5 2.7-.2 2.7 1 0 2.1 1.3 2 3.4-.2 1.5-1.8 1.4-2.1-1.8-5.4-1.9-2-3.2-3.9-2.9-4.2.4-.3.4-.6.1-.6-.3 0-1.2.8-1.9 1.7zM37 147c0 .7.3 1 .7.7.3-.4.3-1 0-1.4-.4-.3-.7 0-.7.7zm218.6.5c-.9 2.6-.7 3.2.5 1.2.6-1 .9-2.1.6-2.3-.2-.3-.7.2-1.1 1.1zm3.8-.4c-.4.7-.3.9.4.5.6-.3 1.3.2 1.5 1.1.4 1.6.5 1.6.6.1.1-2.1-1.5-3.2-2.5-1.7zM53 148c0 .7.3 1 .7.7.3-.4.3-1 0-1.4-.4-.3-.7 0-.7.7zm210.1.6c0 1.1.3 1.4.6.6.3-.7.2-1.6-.1-1.9-.3-.4-.6.2-.5 1.3zm-23.6.5c-.4.6-.4 1.3-.1 1.6.3.4.6.2.6-.4 0-.6 1-.9 2.3-.6 1.8.4 1.9.3.7-.6-1.9-1.4-2.7-1.4-3.5 0zm-202.8.6c-.4.3-.7 1.1-.7 1.7 0 .6.5.4 1.1-.4.8-1.1.9-.5.5 2.5s-.3 3.6.5 2.5.9-.6.5 2c-.4 2.5-.3 3.1.4 2s1-1.1 1-.2c0 .7.5 1 1.1.6.7-.4.8-.9.1-1.3-.5-.3-1.3-2.7-1.7-5.4-.7-4.5-1.4-5.5-2.8-4z"/><path d="M100.3 149.7c-.7.3-1.3 1.8-1.3 3.4v2.9l2-2c2.9-2.9 2.4-5.4-.7-4.3zm37.8 1.1c-.9 1.7-.7 1.9 1.7 1.8 1.7-.1 2.7-.7 2.7-1.6 0-2.2-3.2-2.4-4.4-.2zM53 151c0 .7.3 1 .7.7.3-.4.3-1 0-1.4-.4-.3-.7 0-.7.7zm209.1 2.6c0 1.1.3 1.4.6.6.3-.7.2-1.6-.1-1.9-.3-.4-.6.2-.5 1.3zm-213 4c0 1.1.3 1.4.6.6.3-.7.2-1.6-.1-1.9-.3-.4-.6.2-.5 1.3zm67.9.4c0 .7.3 1 .7.7.3-.4.3-1 0-1.4-.4-.3-.7 0-.7.7zm20 2.9c0 3.9-.1 4.1-3.2 4.2l-3.3.2 3.5.7 3.5.7-4.2.2c-3.3.1-4.3.5-4.8 2.2-.4 1.1-.5 2.2-.3 2.4.4.4 5.4.7 9.7.6l3.4-.1-.6-6c-.6-5.3-.5-5.9 1.1-5.3 3 1.1 4.2 2.5 4.2 4.9 0 2.5 2.3 3.3 3.5 1.3.4-.6 1.4-.8 2.2-.5 1 .4 1.3 0 1.1-1.1-.4-2.4-7.6-7.1-12-7.9l-3.8-.6v4.1zm-71.7-2.2c.4.3 1 .3 1.4 0 .3-.4 0-.7-.7-.7s-1 .3-.7.7zm5.1.5c-.4.7-.3.8.4.4 1.2-.7 1.6-1.6.8-1.6-.3 0-.8.5-1.2 1.2zM46 161c0 .7.3 1 .7.7.3-.4.3-1 0-1.4-.4-.3-.7 0-.7.7zm80 .7c0 .6-.6 1.1-1.2 1-.7 0-4 .1-7.3.2-4.4.2-5.5.5-4 1.1 1.8.8 1.7.9-.8.9-2.2.1-2.8.5-2.5 1.8.3 1.5 1.6 1.8 9.1 1.9 9.1.1 9.4 0 8.7-4.6-.2-1.8-2-3.9-2-2.3zM39 163c0 .5.7.7 1.5.4.8-.4 1.5-.8 1.5-1 0-.2-.7-.4-1.5-.4s-1.5.4-1.5 1zm8 .5c0 .5.5 1.7 1 2.5s1 1 1 .5c0-.6-.5-1.7-1-2.5s-1-1.1-1-.5zm-4.7 1.2c.4.3 1 .3 1.4 0 .3-.4 0-.7-.7-.7s-1 .3-.7.7zm215.2.3c.3.5.8 1 1.1 1 .3 0 .2-.5-.1-1-.3-.6-.8-1-1.1-1-.3 0-.2.4.1 1zm-1 2c.3.5.8 1 1.1 1 .3 0 .2-.5-.1-1-.3-.6-.8-1-1.1-1-.3 0-.2.4.1 1zm-3 1c.3.5.8 1 1.1 1 .3 0 .2-.5-.1-1-.3-.6-.8-1-1.1-1-.3 0-.2.4.1 1zm-211 1.1c-.4.6-.5 1.2-.2 1.5.2.3.7-.2 1-1.1.7-1.7.1-2-.8-.4zm210.5 1.3c0 .2.7.7 1.6 1 .8.3 1.2.2.9-.4-.6-1-2.5-1.4-2.5-.6zm-206.3 8c4 7 5 8.3 5 6.1 0-.8-.4-1.5-.9-1.5-.4 0-.8-.7-.8-1.5s-.5-1.5-1.1-1.5c-.5 0-.7-.5-.4-1 .3-.6.1-1-.5-1s-.8-.5-.5-1c.3-.6.1-1-.6-1-.8 0-.7-.5.2-1.7 1-1.1 1-1.4.2-.9-.7.4-1.3.3-1.3-.2s-.6-.9-1.4-.9c-.9 0-.2 2 2.1 6.1zm206.8-5.4c.3.5.8 1 1.1 1 .3 0 .2-.5-.1-1-.3-.6-.8-1-1.1-1-.3 0-.2.4.1 1zm-3 1.9c-.3.6.3.9 1.4.8 1.1 0 1.7-.5 1.5-.9-.7-1.1-2.2-1-2.9.1zM53.7 178c.3 1.1.9 2 1.5 2 .5 0 .4-.9-.2-2-.6-1.1-1.2-2-1.4-2-.2 0-.2.9.1 2zm186.4 4.3c-1.3 2.1-1.2 2.1.5.5 1-1 1.6-2 1.3-2.2-.3-.3-1.1.5-1.8 1.7zm9.3-1.1c-.4.7-.3.8.4.4 1.2-.7 1.6-1.6.8-1.6-.3 0-.8.5-1.2 1.2zm-2.9.7c.3.6-.3 1.4-1.2 2-1 .5-1.4 1.3-1 1.7.5.5 1.2.3 1.6-.5.5-.7 1.1-1.2 1.5-1.2.3.1.6-.1.6-.4V182c0-.6-.5-1-1.1-1-.5 0-.8.4-.4.9zm-188 2.1c.3.5.8 1 1.1 1 .3 0 .2-.5-.1-1-.3-.6-.8-1-1.1-1-.3 0-.2.4.1 1zm179.8 1.7c.4.3 1 .3 1.4 0 .3-.4 0-.7-.7-.7s-1 .3-.7.7zm-181.6 1.6c-.6 1.5-1 1.6-2.9.6-1.8-1-1.7-.6.9 2.7 1.7 2.1 5.4 6.1 8.1 8.7 4 3.9 5 4.5 5.6 3.2.3-.9.2-1.4-.2-1.1-1.4.8-9.4-7.2-8.6-8.5.5-.8.3-.9-.6-.4-1 .6-1.2.4-.7-.8.3-.9.3-1.6-.1-1.6-1.9.3-2.6-.2-1.3-1 .7-.5 1.1-1.5.9-2.2-.3-.9-.6-.8-1.1.4zm3.3-.9c0 .2.8 1 1.8 1.7 1.5 1.3 1.6 1.2.3-.4s-2.1-2.1-2.1-1.3zm184 2.1c-.7.8-1.9 1.5-2.6 1.5-.8 0-1.4.5-1.4 1 0 1.8-7.2 9-8.3 8.3-.6-.4-.7-.1-.2.6.5.9 2.8-.7 7.6-5.5 3.8-3.8 6.9-7 6.9-7.1 0-.7-.9-.2-2 1.2zm-9.4 1.2c-.6 1.4-.5 1.5.5.6.7-.7 1-1.5.7-1.8-.3-.3-.9.2-1.2 1.2z"/><path d="M230 194.3c-1.4 1.2-2 1.8-1.3 1.3.8-.5 2-.3 3.1.5 1.5 1.2 1.6 1.2.5-.2-1-1.2-1-1.8-.1-2.7 2.1-2.1.4-1.3-2.2 1.1zm-161.5.7c1 1.1 2 2 2.3 2 .3 0-.3-.9-1.3-2s-2-2-2.3-2c-.3 0 .3.9 1.3 2zm-5 .1c-.4.6-.5 1.2-.2 1.5.2.3.7-.2 1-1.1.7-1.7.1-2-.8-.4zm160.4 3.6c-1.3 1.6-1.2 1.7.4.4 1.6-1.3 2.1-2.1 1.3-2.1-.2 0-1 .8-1.7 1.7zm-151.2.3c.9 1 1 1.7.1 2.7-.9 1.1-.7 1.8.7 3.1 1.8 1.6 1.8 1.6.5-.1-1.8-2.4.2-4.6 2.5-2.7.8.7 1.5 1 1.5.7 0-.3-1.5-1.6-3.2-2.8-1.8-1.2-2.7-1.6-2.1-.9zm155.6 1.7c.4.3 1 .3 1.4 0 .3-.4 0-.7-.7-.7s-1 .3-.7.7zm-159.3 3c0 1.6 6.2 6.3 7.4 5.5.6-.3-.4-1.2-2.1-1.9-1.8-.7-3.6-2.1-4.2-3-.6-1-1.1-1.3-1.1-.6zm158.4.5c-.4.7-.3.8.4.4 1.2-.7 1.6-1.6.8-1.6-.3 0-.8.5-1.2 1.2zM80 205c0 .7.3 1 .7.7.3-.4.3-1 0-1.4-.4-.3-.7 0-.7.7zm143.9 1.7c-1.3 1.6-1.2 1.7.4.4.9-.7 1.7-1.5 1.7-1.7 0-.8-.8-.3-2.1 1.3zm-140.4.3c.3.5.8 1 1.1 1 .3 0 .2-.5-.1-1-.3-.6-.8-1-1.1-1-.3 0-.2.4.1 1zm134.4.2c-.7 1.3-.4 4.6.3 4.2.4-.3.5-1 .2-1.6-.4-.6 0-1.4.7-1.9 1-.6 1.1-.9.2-.9-.7 0-1.4.1-1.4.2zM81.5 209c-.3.5.1 1 1 1s1.3-.5 1-1c-.3-.6-.8-1-1-1-.2 0-.7.4-1 1zm5 0c.3.5.8 1 1.1 1 .3 0 .2-.5-.1-1-.3-.6-.8-1-1.1-1-.3 0-.2.4.1 1zm133.9.2c-.4.7-.3.8.4.4 1.2-.7 1.6-1.6.8-1.6-.3 0-.8.5-1.2 1.2zm-8.9.8c.3.5.8 1 1.1 1 .3 0 .2-.5-.1-1-.3-.6-.8-1-1.1-1-.3 0-.2.4.1 1zm-134 1.1c.4.5 1 .7 1.5.4.4-.3 1.1.2 1.4 1.1.3.8 1 1.2 1.6.9.5-.3 1-.1 1 .5s.5.8 1.1.5c.6-.5.3-1.3-1-2.2-2.5-1.7-6.4-2.6-5.6-1.2zm11.8-.4c.4.3 1 .3 1.4 0 .3-.4 0-.7-.7-.7s-1 .3-.7.7zM92 212c0 .7.3 1 .7.7.3-.4.3-1 0-1.4-.4-.3-.7 0-.7.7zm-2 0c-.7 3.1-.7 3.9.1 3.4.8-.5 1.3 1 1 2.9-.1.5.3.6.8.3.5-.4 1.2 0 1.4.6.4 1 .6 1 .6 0 .1-.7.7-1 1.4-.7.6.4.2-.2-.9-1.2-1.2-1-2.6-2.7-3.2-3.8-.6-1.1-1.2-1.8-1.2-1.5zm108.3 2.7c.4.3 1 .3 1.4 0 .3-.4 0-.7-.7-.7s-1 .3-.7.7zM87 216c0 .7.3 1 .7.7.3-.4.3-1 0-1.4-.4-.3-.7 0-.7.7zm107.5 0c-1.6.7-1.7.9-.3.9.9.1 2-.4 2.3-.9.7-1.1.7-1.1-2 0zM98 218c-.9.6-1 1-.3 1 .6 0 1.5-.5 1.8-1 .8-1.2.4-1.2-1.5 0zm91.3.7c.4.3 1 .3 1.4 0 .3-.4 0-.7-.7-.7s-1 .3-.7.7zm6.3.5c-2.1.8-2.5 1.3-1.5 1.9 2 1.3 3.7 1.1 1.9-.2-1.2-.9-1.1-1 .6-.6 1.3.3 2.1-.1 2.1-.9s-.1-1.4-.1-1.3c-.1 0-1.4.5-3 1.1zm-31.3.5c.9.2 2.3.2 3 0 .6-.3-.1-.5-1.8-.5-1.6 0-2.2.2-1.2.5zm-65.9 1.5c-.4.7-.3.8.4.4 1.2-.7 1.6-1.6.8-1.6-.3 0-.8.5-1.2 1.2zm5.9-.5c.4.3 1 .3 1.4 0 .3-.4 0-.7-.7-.7s-1 .3-.7.7zm6.7 1c-1.3 1.5-1.2 1.6.4 1 1-.4 2-.7 2.2-.7.2 0 .4-.5.4-1 0-1.5-1.3-1.2-3 .7zm42.8-1c1.8.2 4.5.2 6 0s0-.4-3.3-.4-4.5.2-2.7.4zm20 1c.7.3 1.6.2 1.9-.1.4-.3-.2-.6-1.3-.5-1.1 0-1.4.3-.6.6zm-45.5 1c.4.3 1 .3 1.4 0 .3-.4 0-.7-.7-.7s-1 .3-.7.7zm40.5 0c.6.2 1.8.2 2.5 0 .6-.3.1-.5-1.3-.5-1.4 0-1.9.2-1.2.5zm16.2.3c-2.5.6-2.5.6.5 1.2 3.4.7 3.7.6 2.7-.8-.4-.6-1.8-.8-3.2-.4zm-25.7.7c.9.2 2.5.2 3.5 0 .9-.3.1-.5-1.8-.5-1.9 0-2.7.2-1.7.5zm18.3.1c-.3.5.1.9.9.9s1.2-.4.9-.9c-.3-.4-.7-.8-.9-.8-.2 0-.6.4-.9.8zm-51.9 1.5c.4.6 0 .8-1 .4-1-.3-1.7-.2-1.7.3 0 1.5 2.6 1.2 3.9-.3.8-1 .7-1.4-.4-1.4-.8 0-1.1.5-.8 1zm-13.4 1.4c.4.3 1 .3 1.4 0 .3-.4 0-.7-.7-.7s-1 .3-.7.7zm8 0c.4.3 1 .3 1.4 0 .3-.4 0-.7-.7-.7s-1 .3-.7.7zm30.7.8c-1 1.2-.8 1.3 1 1 2.9-.6 3.4-1.1 1.6-1.8-.8-.3-2 0-2.6.8zm5.3 0c0 .7.6 1.1 1.4.8.7-.3 1.3-.6 1.3-.8 0-.2-.6-.5-1.3-.8-.8-.3-1.4.1-1.4.8zm24-.8c.4.3 1 .3 1.4 0 .3-.4 0-.7-.7-.7s-1 .3-.7.7zm-63 1c.4.3 1 .3 1.4 0 .3-.4 0-.7-.7-.7s-1 .3-.7.7zm15.5 0c.7.3 1.6.2 1.9-.1.4-.3-.2-.6-1.3-.5-1.1 0-1.4.3-.6.6zm31.6.8c-1.9 1.4-1.8 1.4.4 1.5 1.3 0 2.2-.6 2.2-1.5 0-1.9-.1-1.9-2.6 0zm11.9-.8c.4.3 1 .3 1.4 0 .3-.4 0-.7-.7-.7s-1 .3-.7.7zm-53.5 1c.7.3 1.6.2 1.9-.1.4-.3-.2-.6-1.3-.5-1.1 0-1.4.3-.6.6zm48.5 0c.4.3 1 .3 1.4 0 .3-.4 0-.7-.7-.7s-1 .3-.7.7zm-41.5 1c.6.2 1.8.2 2.5 0 .6-.3.1-.5-1.3-.5-1.4 0-1.9.2-1.2.5zm15 1c2.3.2 5.9.2 8 0 2-.2.1-.4-4.3-.4-4.4 0-6.1.2-3.7.4z"/><path d="M284.4 189.4c-.5 2-.9 2.4-1.9 1.6-1.1-.9-1.2-.7-.8 1 .4 1.3-.2 3.2-1.6 5-1.1 1.6-2.1 3.2-2.1 3.6 0 .3-2.9 4.2-6.5 8.5-4 4.8-6.3 8.4-5.9 9.2.4.6.3.9-.1.4-.5-.4-3 1.4-5.7 4-4.5 4.5-6.3 7.3-3.5 5.7.6-.4-.4.9-2.2 2.9-4.3 4.6-5.6 4.9-1.5.5 1.6-1.8-.2-.3-4.1 3.3-8.4 7.9-20.9 16.2-28.7 19.1-3.3 1.2-5.5 2.5-5.1 3.1.3.6.1.7-.5.3-1.1-.7-2.7-.4-18.9 3.8-18.5 4.8-27.2 5.6-56.3 5-31.8-.6-34.9-.7-34.5-1.5.2-.3-2.7-1-6.4-1.7-7.9-1.3-25.1-9.2-32.7-14.8-4.8-3.7-11.4-9.7-26.4-24.2-4.1-4-8-7.6-8.5-8-.6-.4-1.6-1.8-2.3-3.2-.7-1.4-2.5-4.5-4.2-7-1.6-2.5-4.1-6.8-5.6-9.7-1.5-2.9-2.9-5.1-3.1-4.9-.9.9 7.2 17.7 12.3 25.3 5.9 8.9 24.3 28.3 26.8 28.3.8 0 1.7.7 2 1.6.3.8 1.1 1.2 1.6.9 1.3-.8 6.3 2.3 5.5 3.4-.2.5.3.8 1.3.7.9 0 1.6.4 1.5 1.1-.2.7.3 1 1.1.7.8-.3 1.7 0 2.2.7.5.8.3 1-.6.4-.8-.5-1.1-.4-.6.3.4.6 1.4.8 2.3.5 1-.4 1.4-.2 1 .4-.8 1.3 2 2.6 3.5 1.6.7-.3.8-.1.4.5-.7 1.2.5 1.6 3.3 1.3.8-.2 1 .2.5 1-.4.8-.3 1 .5.5.6-.4 2.8-.2 4.7.4 2.7.9 3.3 1.5 2.3 2.1-1.6 1 .5 1.4 5.4 1 3.3-.3 8.7 1.9 8.7 3.6 0 1.2 9.3 3.6 20.5 5.2 10.1 1.4 31.6 2.2 28.5 1.1-1.7-.7.4-.8 6.5-.5 11.4.7 29.9-2.3 44.1-7 9.5-3.2 28.4-11.8 28.4-13.1 0-.3-.5-.2-1.2.2-.6.4-.8.3-.5-.4 1.2-1.8 9.7-6.3 10.7-5.7.6.4.9.1.8-.7-.2-.7.5-1.3 1.4-1.3 1 0 1.8-.5 1.9-1 .1-1.4 3-4.5 4.2-4.5.5 0 .3.8-.4 1.7-.8 1 .9-.1 3.6-2.4 6.7-5.5 18.3-17.7 22.7-23.8 5.7-8 14.7-26.9 13.4-28.3-.3-.2-.8.8-1.2 2.2z"/><path d="M62.5 241c.3.5.8 1 1.1 1 .3 0 .2-.5-.1-1-.3-.6-.8-1-1.1-1-.3 0-.2.4.1 1zm34.8 17.7c.4.3 1 .3 1.4 0 .3-.4 0-.7-.7-.7s-1 .3-.7.7z"/></g><path fill="#500" fill-opacity=".01" d="M5 135c0 .7.3 1 .7.7.3-.4.3-1 0-1.4-.4-.3-.7 0-.7.7z"/><g fill="red" stroke-width="0"><path d="M131.5 36c-3.3.5-8.1 1.5-10.7 2.1-4.3 1-4.6 1.2-3.5 3 1 1.6.7 2.8-1.7 7.2-1.6 2.8-3.1 5.4-3.2 5.6-.2.2-1.1-.2-2-1-.9-.8-3.5-2.1-5.8-2.9-2.9-1.1-4.2-2.2-4.4-3.8-.2-1.2-.5-2.2-.6-2.2-.1 0-3.1 1.2-6.6 2.6-17.1 6.9-30.9 15.6-43 27-6.7 6.4-11.4 12.9-8.4 11.7.7-.2 1.4-1.4 1.6-2.5.7-4.7 6.9-4.8 7.6-.2.2 1 .8 2.9 1.4 4.2 1.4 2.6.2 4.2-3.4 4.8-1.3.2-3.6.7-5.3 1-1.9.3-3.7 0-5-1-1.7-1.3-1.8-1.8-.7-3.5 2.7-4.6 0-1.7-3.9 4-5.2 7.7-11.2 20.5-13.3 28.4-2.3 8.5-3.1 23.6-1.7 32.5 1.2 7.6 5.8 23 6.9 23 .3 0 1.4-.7 2.4-1.6 1.5-1.4 2.8-1.5 8-.8 7.6 1.1 8.1 2.2 4 9-2.4 4.2-3.3 4.9-5.9 4.9h-3.1l4.2 6c9.2 13.3 26.9 28.2 43.3 36.4 7.3 3.6 8.3 3.8 8.3 1.1 0-1.3 1-2.4 2.8-3.1 1.5-.6 4.2-1.8 6-2.7 4-1.9 4.5-1.5 9.3 7.5 1.5 2.9-.2 5.3-4 5.4-3.9.1 7.1 3.5 18.2 5.6 14.3 2.6 45 2.4 58.4-.5 21.8-4.7 36.5-10.8 54.7-22.9 15.8-10.5 28.7-24.3 38.1-40.9 5-8.8 5.4-10 2.5-8.2-2.4 1.5-4.9.3-6.6-3-.6-1.2-1.8-3-2.7-4-1.5-1.7-1.3-1.9 4.8-4.6 6.8-2.9 9.4-2.9 9.6.1.2 4.8 3-9.5 3.6-18.4.9-15.1-2.1-30.5-8.6-43.2-2.1-4-2.3-4.2-4.1-2.6-1 .9-2.6 1.6-3.6 1.6-3 .1-10.6-.9-11.1-1.4-.9-.9 2.3-8.9 4.4-10.8 1.8-1.8 2.4-1.9 4.4-.8 2 1 1.9.7-.8-2.7-9.5-11.9-26.4-24.9-41.9-32l-7.6-3.6-1.5 2.2c-1.2 1.7-12.3 7.6-12.7 6.8-.1-.2-1.3-2.7-2.6-5.7-2.4-5.2-2.4-5.3-.5-6.7 1-.8 1.7-1.6 1.4-1.8-.2-.2-5.3-1.4-11.4-2.6-12.3-2.5-43.1-3.6-54-2zM181 51.5c44 9.6 73.3 34 82.1 68.4 8.8 34.2-14 76-51.5 94.8-3.9 1.9-7.3 3.7-7.5 3.9-.8.8 3.4 3.3 6.5 3.8 1.7.4 3.9 1.3 5 2 1.8 1.4 1.8 1.5 0 3.4-2.9 3.3-14.3 7.4-16.6 6.2-2.5-1.3-2.5-4-.2-7.1 1.6-2.2 4.5-7.9 3.9-7.9-.1 0-3.4 1.3-7.3 2.9-21.2 8.7-46.9 10.9-73.4 6.5-10.6-1.8-19-4.5-30.6-9.9-22.3-10.3-36.9-24.4-47.8-46-11.8-23.4-10.9-47.3 2.5-70.3 4.9-8.3 23.7-26.9 33.2-32.7 15-9.2 37.2-16.9 56.2-19.4 10-1.4 36.5-.5 45.5 1.4z"/><path d="M136 56.1c-6.8 1.3-14.1 2.6-18.3 3.4-2.1.4-4 1.1-4.3 1.6-.2.4-1.1.6-1.9.2-.8-.3-1.5 0-1.5.7 0 .6-.4.9-.9.5-.5-.3-1.6.2-2.5 1.1-.9.8-2 1.2-2.6.9-.5-.3-1-.1-1 .4 0 .6-.8 1.1-1.8 1.1-2.1 0-11.8 4.5-12.4 5.7-.1.4-2 1.7-4 2.7-5 2.5-22.6 17.3-26 21.8-4.8 6.3-8.3 13.1-11.8 22.8-3.2 8.9-3.4 10.3-3.4 22.5 0 11.5.2 13.6 2.3 17.9 1.3 2.8 2.9 6.6 3.6 8.6 2.5 7 9.6 17.1 17.8 25.2 9.7 9.5 18.7 15.3 36.7 23.7 6.5 3 16.5 5.1 19.8 4.1l2.7-.8-3.3-.1c-1.8-.1-3.1-.5-2.8-1 .3-.4-.5-.6-1.7-.4-4.8.9-23.4-7-34.7-14.7-6.2-4.3-16.8-14.3-22.2-21-15.8-19.8-19.2-48.9-8.4-71.5 5.6-11.7 20.3-27.2 34-36 20-12.8 46.4-19.4 72.6-18.2 25.8 1.2 46.4 8.4 63.6 22.1 23.5 18.8 33.8 44 28.9 71.1-.9 5.3-1.4 9.9-1.1 10.2.3.4.6.1.6-.6s.4-1 .9-.7c.5.4.7-.3.4-1.3-.3-1 .1-3 .8-4.2 1.9-3.4 2.3-7 2.2-18.4-.2-14.7-4.2-26.6-13.5-40.2-3.1-4.6-12.8-14.7-14.1-14.8-.5 0-1.4-.7-2-1.5-.7-.8-2.8-2.3-4.7-3.4-1.9-1-4.1-2.6-4.7-3.4-.7-.9-1.3-1.2-1.3-.8 0 .4-1.3-.1-3-1.1-1.6-.9-3-2.1-3-2.6 0-.4-.4-.5-1-.2-.5.3-1 .1-1-.5s-.4-.8-1-.5c-.5.3-1 .2-1-.2 0-.5-1-.9-2.2-1-1.1-.1-2.4-.6-2.7-1-.3-.4-1-.9-1.6-1-.5-.2-4.3-1.4-8.4-2.8-4.1-1.4-11.5-3.2-16.5-3.9-10.1-1.6-31.7-1.8-38.6-.5z"/><path d="M133.5 63.1c-21.7 3.3-39.1 11.3-55.3 25.3L72.8 93h4.6c2.7 0 4.6.5 4.6 1.1 0 .6.9.9 2 .6 1.1-.3 2-.2 2 .1 0 1.1 6 4.2 8 4.2 2.6 0 3.6 4.7 1.5 7.1-.9.9-2.3 1.5-3 1.3-.7-.3-3.2.8-5.6 2.5-4.7 3.5-4.6 3.9.6 1.4 4.1-2 5.6-1.1 3 1.7-1 1.1-1.5 2.1-1.2 2.1.4.1 1 .2 1.5.3.4.1 1.8.8 3.2 1.5 1.4.8 2.2 1 1.7.6-.9-1 2.2-4.7 3.4-3.9.4.2.6-.5.4-1.7-.4-1.8 0-2 2-1.7 1.3.3 2.2.1 1.9-.3-.6-1.1 3.1-3 4.1-2.1.5.4.5.2.2-.4-.6-1.1 3.2-4.4 5.7-4.8.6-.1 2.1-.6 3.4-1 1.5-.5 3.1-.2 4.7.8 2.5 1.7 8.4 1.7 8.2.1-.1-.6.6-.9 1.5-.9 1 .1 1.6-.2 1.3-.6-.6-1 2.1-2.2 5.8-2.7 1.9-.2 3.6.5 5.1 2.1 1.8 1.7 2.8 2.1 4.1 1.3 1.3-.7 1.6-.6 1.1.2-.4.6 0 1.1.9 1.1s1.3.5 1 1c-.8 1.3 1.7 3.8 3.3 3.2 1.8-.6 4.2 1.7 4.2 4 0 1.3-1.2 2.4-3.7 3.4-2.1.8-6.2 2.6-9 4.1-5.5 2.8-6.6 5-3.8 7.3.9.7 1.5 2.2 1.3 3.4-.4 2.7-5.6 4-13.9 3.3l-6.5-.6.4 3c.4 2.4.6 2.7 1.6 1.5.7-1 3.5-1.5 8.6-1.7 9.6-.2 11-.1 11 1.1 0 1.8-6 4.1-9.7 3.7-2.1-.2-4.6.1-5.5.6-1.2.8-2.4.7-4.4-.3-1.7-.9-2.9-1.1-3.1-.5-.2.7-3.3.8-8.6.3-4.5-.3-9.2-.7-10.4-.7-1.2-.1-3.4-1.3-4.8-2.8-1.4-1.5-2.5-2.3-2.5-1.6 0 .6.6 1.3 1.3 1.6.6.2-.4.4-2.3.4s-5.5.8-7.9 1.7c-4.7 1.8-14.7 1.6-24.6-.6-4.5-1-4.7-1.2-2.5-2 1.4-.5 7.2-1.2 13-1.5 10.3-.6 14.4-1.7 18.3-5.1 1.7-1.5 2-1.4 4.2 1.3 1.3 1.7 2.4 2.7 2.5 2.2 0-.4 1.3-.1 3 .8 3.3 1.7 12.5 2.1 11.5.5-.3-.6 0-1 .7-1.1.7 0 .2-.5-1.1-1-1.4-.5-3.8-.7-5.4-.3-2 .4-2.7.3-2.3-.5.4-.7.1-.9-.8-.5s-3-1-5.4-3.5l-4-4.2-2.7 3.3c-1.6 1.8-3.2 3.2-3.7 3-.5-.1-.7.2-.4.7.7 1.1-3 2.5-4.4 1.6-.5-.3-1-.1-1 .4 0 1.5-14.3 1.4-15.8-.1-.8-.8-1.2-6.1-1.2-17.2 0-9.5-.4-15.6-.9-15.1-1.6 1.7-8.9 19.8-10.5 26.1-1.9 7.2-2 23.1-.3 31.4l1.2 5.5 4.5.1c3.6.1 3.8.1.9-.3-3.9-.4-4-.7-5.5-12.3-.4-3.3 1.2-5 4.7-5 1.5 0 3.1-.4 3.4-1 .3-.5 2.3-.9 4.3-.9h8.7c8-.1 10 .3 9.7 1.9-.3 1.3-.1 1.3 1.2 0 1.2-1.2 3.5-1.4 10.1-1.2 4.8.2 8.3.7 8 1.3-.3.5.1.6 1 .3.8-.4 2.6.1 3.9.9 2.4 1.6 2.9 4.9 1.1 8.9-.4 1.1-.3 1.8.5 1.8.6 0 1 1 .8 2.2-.2 1.7-1.7 2.8-5.5 4.3-5.2 2-5.2 2-4.7 5.7.6 3.3.4 3.9-1.9 4.9-1.5.7-4.3.9-7 .5-3.9-.6-4.4-1-4-2.7.5-1.9.4-2-1.6-.8-2.7 1.8-5.7.1-5.3-3 .4-2.5.8-2.5-5.5-.1-4.1 1.5-6.5 1.8-11.7 1.3-3.6-.3-6.6-.2-6.6.2 0 1.9 10.7 14.9 17.7 21.6 12 11.4 30.6 22.7 40.5 24.6 1.8.3 4.2 1.1 5.3 1.6 1.1.6 5.6 1.2 10 1.4 4.4.1 9.8.7 12 1.3l4 .9-4.2-.3c-2.4-.2-4.6 0-4.9.6-.4.5-2.6.7-5.3.4-2.7-.4-5.2-.2-6.1.5-1.2.9-1 1 .9.5 1.4-.3 3-.1 3.6.4 1.5 1.2 21 1.6 30 .6 3.9-.5 8.4-.9 10.2-.9 1.8 0 2.9-.5 2.6-1-.4-.6.3-.8 1.5-.5 1.2.4 2.4.2 2.7-.3.3-.4 1.2-.6 2-.2.8.3 2.3.2 3.3-.3 2-.9 1.8-.8 6.2-1.8 1.9-.5 3.8-1.3 4.1-1.8.3-.5 1.6-1 2.7-1.1 1.2-.1 2.2-.5 2.2-.9s.5-.8 1.2-.8c1.7 0 17.1-8.8 20.4-11.7 1.6-1.4 5.4-4.5 8.4-6.8 5.8-4.5 7-5.8 11-11.5 1.3-1.9 2.9-3.8 3.5-4.2.5-.4.6-.8.1-.8-.6 0-.1-.7 1-1.5 1-.8 1.5-1.5.9-1.5-.5 0-.3-.5.5-1s1.5-1.3 1.5-1.7c0-1.7 2.8-7.3 3.4-6.9.3.2.7-.7.7-2l.2-2.4-1.8 2.2c-.9 1.3-3.9 5.7-6.5 9.8-13.1 20.6-40.4 40.1-60.1 43-3.8.5-8 1.3-9.4 1.6-1.4.4-2.3.4-2 .1.3-.3 3.4-1.3 7-2.2 8.1-2 24.9-10 33.9-15.9 8.2-5.5 20.1-17.1 25.9-25.4l4.3-6.2H238c-2.7 0-4.3-.5-4.6-1.5-.5-1.3-1-1.2-3.1.5-3.3 2.6-7.3 2.5-10.6 0-3-2.4-5-2.5-6.6-.6-1.2 1.5-5.6 2.4-15.8 3.2l-6.2.6-.3-3.4c-.2-1.9-.8-3.2-1.5-3.1-.7.2-1-.3-.7-1 .2-.7-.4-2.2-1.6-3.2-2-1.8-2-1.8-2 .3 0 1.1.5 2.4 1 2.7 1.4.9 1.3 4.8-.2 6.3-1.3 1.3-7.5 1.6-10.2.6-1.2-.5-1.3-1-.5-2.5 1.2-2.3.2-2.5-2.2-.3-1 .9-3.9 1.9-6.4 2.1-3.4.4-4.5 1-4.5 2.3 0 1.9-2.8 4.7-5 5-4.1.6-5 0-5-3.4 0-3.2.3-3.5 3.3-3.8 3.8-.4 4.3-2.2.7-2.4-1.4-.1-3.2-.5-4.1-.9-1-.3-2-.2-2.4.4-1.2 2-3.5 1.2-3.5-1.3 0-2.4-1.2-3.8-4.2-4.9-1.6-.6-1.7 0-1.1 5.3l.6 6-3.4.1c-4.3.1-9.3-.2-9.7-.6-.2-.2-.1-1.3.3-2.4.5-1.7 1.5-2.1 4.8-2.2 2.3-.1 3.3-.3 2.2-.6-1.1-.2-3-.6-4.2-.9-1.8-.3-2.3-1.1-2.3-3.4 0-1.7-.4-3-.8-3-1.2 0-3.2 2.2-3.2 3.5 0 .5.5.3 1-.5.7-1.2 1.1-1 1.8 1 1.9 5 .8 5.7-8.6 5.6-7.4-.1-8.7-.4-9-1.9-.3-1.3.4-1.7 2.5-1.8 1.7-.1 2.1-.3 1.1-.6-1.6-.4-1.8-1.8-1.8-10.7v-10.3h2.8c1.5 0 5.1-.3 8-.8 4.5-.7 5.2-.5 5.2.9 0 1 .5 1.4 1 1.1.6-.3 1-.1 1 .4 0 .6 1 1.1 2.3 1 2.1 0 2.1-.1.2-.9-1.4-.6.3-.9 5.3-.9 4.4-.1 8.7.5 10.9 1.4 3.3 1.4 3.8 1.4 4.6-.1.7-1.3 1.8-1.4 5.9-.9 3.6.5 4.9.4 4.4-.4-.5-.7.4-1.1 2.6-1.1 1.8 0 4.4-.3 5.8-.6 1.5-.3 2-.2 1.3.3-.6.4 2.2.7 6.5.7 4.7-.1 8 .3 8.4 1 .5.7.8.6.8-.4 0-1.3.1-1.3 1 0 .8 1.3 1 1.2 1-.3 0-1.3.8-1.7 3.5-1.7 2 0 3.5.5 3.5 1.2 0 .6.3.8.7.5.3-.4 1.4 0 2.4.9 2.5 2.2 5 2.3 7.3.3 1-1 2.4-1.6 2.9-1.2.6.3.7.1.4-.4-.4-.6 0-1.4.9-1.7 2.2-.9 2.6-.8 1.8.6-.4.7-.3.8.4.4s1.2-.2 1.2.3c0 .6.6 1.1 1.4 1.1.7 0 1.9.7 2.6 1.5 1 1.2 1.6 1.2 3.4.3 1.1-.7 2.3-1.3 2.6-1.3.3 0 1.5-.6 2.8-1.3 1.8-1.1 2.5-1 3.7.1.8.8 1.3 1.6 1.2 1.8-.1.3.3-.1.8-.7.6-.6 3.6-1 6.8-.9 3.1.1 5.7-.2 5.7-.6 0-.5.7-.6 1.7-.2 1.5.6 1.6-.2 1-8.3-.7-11.1-4.4-23.1-9.5-31-7.8-12-25.8-26.4-41.7-33.3-12.4-5.5-21.9-7.3-41-7.6-9.9-.2-20.7 0-24 .6zm52.6 42.9c3.8 2 5.9 4.2 5.2 5.4-.3.6-.3.8.2.4.4-.4 1.4 0 2.1 1 1.2 1.5 1.4 1.3 1.5-1.8.1-1.9.1-3.8 0-4.3-.5-3.1 18.8-3.2 25.3-.2 5.5 2.6 12.4 10.2 14.6 16.2 2.6 6.9 2.3 8.8-1.3 8.8-1.5-.1-2.7.3-2.7.7 0 .5-2.8.6-6.2.4-3.5-.3-6.9-.5-7.5-.5-.9-.1-1.3-1.8-1.3-5.1 0-5.8-2.6-12.2-4.1-9.9-1.2 1.9-1.1 6.6.2 9 1.6 3.1.2 6.2-2.7 5.6-1.3-.2-2.4 0-2.4.4 0 .5-2.2.9-5 .9-4 0-5.1-.4-6-2.1-.7-1.1-.9-3.1-.6-4.4.3-1.3.3-3 0-3.8-.8-2.2-5.5-1.1-7.7 1.8-1 1.4-2.2 2.3-2.6 2-.4-.2-.8.2-.8 1 0 .9.4 1.1 1.1.6.6-.5 2.8-1.2 4.9-1.6 3.5-.7 3.7-.6 3.7 1.8 0 3.5-1 5.7-2.5 5.7-1.4 0-11.2 4.4-13.7 6.2-1.3.9-2.2.9-4.4 0-1.4-.7-2.4-1.5-2.1-1.8.3-.3-1-2-2.9-3.6-4.6-4-6.4-7.7-5.3-10.6.5-1.3.5-2.2-.1-2.2s-1-.8-1-1.7c0-2.1 9.7-11.6 11-10.8.5.3.8 0 .5-.7-.6-1.5 5-4.4 8.1-4.2 1.2.1 3.2.8 4.5 1.4zm-89.4 4.7c-.4.3-1 .3-1.4 0-.3-.4 0-.7.7-.7s1 .3.7.7zm-34 7c-.4.3-.7 0-.7-.7s.3-1 .7-.7c.3.4.3 1 0 1.4zm99.3-1.3c0 .2-.7.7-1.6 1-.8.3-1.2.2-.9-.4.6-1 2.5-1.4 2.5-.6zm54 18.8c9-.7 24.3-.3 25.2.6 1.9 1.9-3.5 3.6-12.7 4-13.8.5-31.5.3-32.6-.3-.5-.4-.9-1.5-.9-2.5 0-1.7.9-2 7.3-2.2 3.9-.2 8.1-.2 9.2.1 1.1.3 3.1.4 4.5.3zM155.7 188c4.1 8 9.9 21.1 9.5 21.5-.3.3-2 .5-3.9.5-3.1 0-3.5-.4-7.1-7.7-3.9-7.6-3.9-7.6-4.9-4.7-.6 1.6-1.4 3.7-1.8 4.6-.6 1.4-.2 1.8 1.7 1.8 2.4 0 5.4 4 4.1 5.4-.8.8-15.8.8-16.6 0-.6-.6.5-3.3 6.7-16.7l3.5-7.8 3.8.3c2.8.2 4.1.9 5 2.8zm11.6 31.7c-.7.2-2.1.2-3 0-1-.3-.4-.5 1.2-.5 1.7 0 2.4.2 1.8.5zm-7.5 1c-1.5.2-4.2.2-6 0-1.8-.2-.6-.4 2.7-.4 3.3 0 4.8.2 3.3.4z"/><path d="M180 118c0 .7.3 1 .7.7.3-.4.3-1 0-1.4-.4-.3-.7 0-.7.7zm-15 7.4c0 .2.8 1 1.8 1.7 1.5 1.3 1.6 1.2.3-.4s-2.1-2.1-2.1-1.3zm13.3 6.3c0 .8.6.9 1.9.2 1-.5 1.8-1.1 1.8-1.2 0-.2-.8-.3-1.8-.3s-1.9.6-1.9 1.3zm-4.8 7.3c.3.5.8 1 1.1 1 .3 0 .2-.5-.1-1-.3-.6-.8-1-1.1-1-.3 0-.2.4.1 1zm-33.2-26.5c0 .8.4 1.2.9.9.5-.3.6-1 .3-1.5-.9-1.3-1.2-1.1-1.2.6zm-33.9 8.7c-.4.7-.3.8.4.4s1.2-.9 1.2-1.2c0-.8-.9-.4-1.6.8zm9.2 1c2 .8 2.9 1.8 2.7 2.8-.4 1.2-.3 1.2.5.1.8-1.1 1-1.1 1.5 0 .3.8.6.9.6.3.1-1.7-2-3.2-5.4-3.8l-3-.6 3.1 1.2zm9.2 21.5c.7.3 1.6.2 1.9-.1.4-.3-.2-.6-1.3-.5-1.1 0-1.4.3-.6.6zm108.3 4.9c0 1.1.3 1.4.6.6.3-.7.2-1.6-.1-1.9-.3-.4-.6.2-.5 1.3zM69 152.1c0 .5.5.7 1 .4.6-.3 1-.8 1-1.1 0-.2-.4-.4-1-.4-.5 0-1 .5-1 1.1zm57 .5c0 .8.5 1.2 1 .9.6-.3 1-1 1-1.6 0-.5-.4-.9-1-.9-.5 0-1 .7-1 1.6zm45.8-.9c.6.2.9 1 .5 1.6-.4.7.2.5 1.3-.3 1-.8 2.1-1.6 2.3-1.7.2-.2-.9-.3-2.5-.2-1.6 0-2.3.3-1.6.6zm55.4 1.6-2.2 2.4 3-.5c1.9-.3 3 0 3 .7s.5.9 1.2.5.8-.3.4.4-.2 2 .3 2.9c.8 1.4 1 .7 1-3.2 0-3.7-.3-4.5-.9-3-.8 1.9-.9 1.9-.9.1-.1-1.5-.4-1.6-1.6-.6-1.3 1.1-1.4 1-.9-.4.9-2.2.1-2-2.4.7zm-75.8 3.9c-.4.7-.3.8.4.4s1.2-.9 1.2-1.2c0-.8-.9-.4-1.6.8z"/><path d="M229.2 157.4c.7.8 1.5 1.2 1.7 1.1.5-.6-1-2.5-2-2.5-.5 0-.4.6.3 1.4zm-160.6 3.3c-.6 1.4-.5 1.5.5.6.7-.7 1-1.5.7-1.8-.3-.3-.9.2-1.2 1.2zm106.1.4c.4 1.3.8 1.8 1.1 1 .2-.7-.1-1.8-.6-2.3-.8-.8-.9-.4-.5 1.3zm53.9.5c-.5 1.4-.4 1.5.9.4 1.7-1.4 1.9-2 .6-2-.5 0-1.2.7-1.5 1.6zm-71.6.4c0 .7.3 1 .7.7.3-.4.3-1 0-1.4-.4-.3-.7 0-.7.7zm88 .7c-1.3 1.5-1.2 1.6.4 1 1-.4 2-.7 2.2-.7.2 0 .4-.5.4-1 0-1.5-1.3-1.2-3 .7zm-123.7 0c.4.3 1 .3 1.4 0 .3-.4 0-.7-.7-.7s-1 .3-.7.7zm116 0c.4.3 1 .3 1.4 0 .3-.4 0-.7-.7-.7s-1 .3-.7.7zm-59.5 3c.7.3 1.6.2 1.9-.1.4-.3-.2-.6-1.3-.5-1.1 0-1.4.3-.6.6zm-87.9 2.6c.5.5 2.1.7 3.7.5 2.7-.3 2.6-.4-.8-.9-2.2-.3-3.4-.1-2.9.4zm42.4 52.4c.4.3 1 .3 1.4 0 .3-.4 0-.7-.7-.7s-1 .3-.7.7zM108.4 42.2c-.4.7-.3.8.4.4s1.2-.9 1.2-1.2c0-.8-.9-.4-1.6.8zm90.9-.5c.4.3 1 .3 1.4 0 .3-.4 0-.7-.7-.7s-1 .3-.7.7zM266 88.9c0 2.5.6 2.7 1.3.6.4-.8.2-1.7-.3-2-.6-.4-1 .3-1 1.4z"/><path d="M290.7 153.7c-.4.3-.7 1.7-.7 2.9 0 7-11 30.2-20.2 42.6-18.2 24.5-53.3 45.6-87.5 52.7-43.5 9-88.5 1-123.8-21.9-19.9-13-39.1-38.1-46.1-60.3-1-3.1-2.1-5.7-2.6-5.7-1.1 0-1.1 0 .8 8.2.9 4 3.4 10.5 5.6 14.6 2.9 5.5 3.6 7.7 2.8 8.7-1.2 1.5.3 3.1 1.9 2 1.4-.8 4.3 3.7 3.1 4.9-1.5 1.5-1.2 2.5.8 2 2-.6 7.5 7.7 7 10.5-.4 2 3 5.8 14.8 16.7 5.6 5.1 9.1 7.7 9 6.7-.2-3 2.7-2.4 12.9 3 8.6 4.5 10 5.6 10.3 8 .3 2.2-.1 2.7-1.8 2.7-2.4 0-7.1-2.3-11.5-5.5-4.7-3.5-8.5-5.8-8.5-5.1 0 1.6 14.7 11.3 23.9 15.7 13.1 6.3 26.2 8.8 50.3 9.6l16.6.6 4.6-3.8c2.5-2 4.9-3.5 5.3-3.3 2.7 1.2 8.3 5.1 8.3 5.7 0 1.2 18-1.6 29.3-4.5 5.6-1.4 11.8-3 13.7-3.5 15.3-3.6 31-13.8 45.3-29.2 15.8-17.1 20.9-23.7 20.3-26-.3-1.2.8-4.2 2.7-7.6 1.8-3.1 3.9-7.1 4.6-8.9 1.6-3.7 3.1-4.2 3.1-1 .1 2.2.1 2.2 1.2.4.8-1.5.8-2.1 0-2.4-1.8-.6-1.5-2.6 1.5-8.9 3.1-6.8 2.7-5.6 3.7-11.8.4-2.8 1-6 1.3-7.3.5-2.1-.6-3-2-1.5zm-37.4 71.9c.3.3.3 1.3 0 2.1-.9 2.4-16.2 15-19 15.8-1.4.3-4.3 2.1-6.4 3.8-3.4 3-15.9 8.7-18.9 8.7-.6 0-1-.8-.8-1.8.3-1.7 9.6-8.3 19.4-13.8 2.8-1.6 9.3-5.7 14.5-9.2 9.6-6.3 10.1-6.6 11.2-5.6zM95.8 254c6.1 2.9 10.2 5.5 10.2 6.4 0 2.3-2.1 2.4-9.4.4-11.4-3.1-16.6-6.4-16.6-10.6 0-2.1.3-2.3 2.8-1.7 1.5.3 7.3 2.8 13 5.5z"/><path d="M236.6 236.9c-1 1.1-1.6 2.5-1.4 3.1.4 1.4 4.8-1.7 4.8-3.6 0-2-1.4-1.8-3.4.5zm-13.3 8.6c-.3.9-.3 1.8-.1 2.1.9.9 3.8-.8 3.8-2.2 0-1.9-2.9-1.8-3.7.1zM86 253.9c1.3 2.6 4.3 2.8 3.8.3-.2-.9-1.4-1.8-2.6-2-2.1-.3-2.2-.1-1.2 1.7zm188.6-89.3c-.3.9-.2 2.3.3 3.1.6 1.2.9 1 1.3-1.1.6-2.9-.6-4.5-1.6-2zM28 182c2.2 4.4 2.8 4.9 2.5 2.2-.3-2.8-1.5-5-3.1-5.6-1-.4-.9.5.6 3.4zm255.1 7.4c-.7.8-.8 1.7-.3 2 .6.3 1.2-.3 1.5-1.4.6-2.4.4-2.5-1.2-.6zm-5.8 9.3c.4.3 1 .3 1.4 0 .3-.4 0-.7-.7-.7s-1 .3-.7.7zM93.5 235.9c-.3.5.4 1.3 1.6 1.6 2.8.9 3.3.2.9-1.3-1.1-.6-2.1-.8-2.5-.3zm-25 8.1c-.8 1.3 1.2 4 3.1 4 2 0 1.7-1.4-.5-3.4-1.3-1.2-2.1-1.4-2.6-.6zm94.3 22.7c.7.3 1.6.2 1.9-.1.4-.3-.2-.6-1.3-.5-1.1 0-1.4.3-.6.6z"/></g><g fill="#FFF" stroke-width="0"><path d="M110.4 41.5c-1.2.8-2.4 1.2-2.7.9-.3-.3-2.2-.1-4.2.6-5 1.7-4.5 4.9 1.1 7 2.3.8 4.9 2.1 5.8 2.9.9.8 1.8 1.2 2 1 2.2-2.7 5.8-11 5.3-12.2-.8-2.1-4.6-2.2-7.3-.2zm85 .9c-1.9 1.4-1.8 1.5.8 7l2.7 5.5 4.8-2.1c4.8-2 8.3-4.5 8.3-5.8 0-.8-5.1-3.4-6.2-3.2-.4.1-2.3-.5-4.2-1.3-4.3-1.8-3.8-1.8-6.2-.1zm-36 10.1c-.7 1.7-3.4 2.1-3.4.5 0-1.5-6.6-1.2-7.9.3-.9 1.2 1.3 1.5 12.7 2 25.4 1.2 44.5 7.7 64.7 22.2 4.2 3.1 8 5.3 8.3 5 .3-.3 1.4.2 2.4 1.2 2.8 2.5 3.5.6.8-2.2-1.7-1.8-2.9-2.3-4.7-1.9-2 .5-2.4.3-2.2-1.2.5-3.1-.9-4.6-3.2-3.4-1.5.8-2.1.7-2.5-.4-.3-.8-.3-2 .1-2.6.3-.5 0-1-.9-1-.8 0-1.6.4-1.8 1-.4 1.3-9.8-4.9-9.8-6.6 0-.8-.6-1.1-1.5-.8-.9.4-1.5.1-1.5-.7 0-1-.3-1-1.1-.2-1.5 1.5-6.5-.3-8.4-3-1.1-1.5-2.5-2.1-5.2-2-2.1.1-4.5-.5-5.5-1.4-.9-.8-2.1-1.3-2.5-1-1.3.8-9.6-1.4-11.2-3-1-1-1.7-1.1-2.4-.4-1.7 1.7-7.7 1.4-7.7-.4 0-.9-.9-1.5-2.5-1.5-1.4 0-2.8.7-3.1 1.5zm-23.1.3c-2.7 1.7.3 3.2 5 2.6 2.6-.4 4.5-1 4.2-1.4-.2-.4-1.8-.5-3.5-.2-1.8.2-3 0-3-.7 0-1.3-1-1.4-2.7-.3zm-3.2 1.1c-.1 1-1 1.2-3.6.8-2.6-.4-3.5-.2-3.5.9 0 .9-1.1 1.4-3.4 1.4-1.9 0-3.8.4-4.1 1-.8 1.3-.3 1.3 7.9-.4 7.5-1.6 8-1.9 7.3-3.8-.4-1-.6-1-.6.1zM110.3 59c-2.7 1.1-3.1 3.4-.5 2.6.9-.3 2.9-.8 4.5-1.2 1.5-.3 2.7-1 2.7-1.5 0-1.1-3.8-1.1-6.7.1zm-10.5 3.3c-1.4.6-2.9 1.9-3.2 3-.4 1.7-.8 1.8-2 .8-.9-.7-1.6-.8-2-.2-1.2 1.9 3.1 2.1 7 .2 2.1-1 4.6-2 5.4-2.3 1.2-.4 1.1-.7-.5-1.5-1.3-.6-2.9-.6-4.7 0zM88 69.1c0 .5-.4.7-1 .4-1.4-.8-3.5.7-3.5 2.5 0 .9-1 1.5-2.5 1.6-4.5.2-4.9.4-6.2 3.1-.8 1.7-2.3 2.9-3.8 3.1-2.9.4-6 2.9-6 4.8 0 .7-.9 2.2-2.1 3.3-1.2 1.1-1.8 2.5-1.4 3.1.9 1.5 5.5-2.7 5.5-5.1 0-1 1-2.5 2.2-3.3 3.7-2.6 4.4-1.8 1.2 1.6-1.6 1.7.7.2 5.2-3.4 4.4-3.6 10-7.5 12.2-8.8 4.6-2.6 5.3-4 2.2-4-1.1 0-2 .5-2 1.1zM78.5 77c-1 1.1-2.1 1.8-2.3 1.5-.3-.3.3-1.2 1.4-2 2.7-2 3-1.8.9.5zm-34.3 3.2c-.7.7-1.2 2.4-1.2 3.9 0 2.1-.4 2.6-1.8 2.2-2.3-.5-4.5 1.9-3.6 4 .8 2.1 3.9 3.1 7.2 2.1 1.5-.4 3.5-.8 4.5-.9 3-.3 4.2-2.2 3-4.7-.6-1.3-1.5-3.5-2.2-5.1-1.1-2.9-3.8-3.6-5.9-1.5zM258.5 85c-2.5 2.8-4.7 9.2-3.5 10.4.5.5 3.6 1.1 6.8 1.3 7.2.5 9.4-1.1 7.2-5.3-1-1.8-1.6-2.1-2.2-1.2-.5.9-.8.4-.8-1.3 0-1.7-.9-3.3-2.5-4.3-3-2-2.8-2-5 .4z"/><path d="M234 84.4c0 .2.8 1 1.8 1.7 1.5 1.3 1.6 1.2.3-.4s-2.1-2.1-2.1-1.3zm4.5 2.5c-.3.6 2 4.8 5 9.5 5.1 7.8 5.8 8.4 7.5 7.3 2.2-1.3 2.3-1.6 1.1-3.6-.5-.7-1.4-1-2-.6-1.7 1-4.2-1.5-3.6-3.6.3-.9 0-2.1-.6-2.5-.9-.5-1-.2-.5 1.1.7 1.8.6 1.8-1.3.1-2.1-1.9-1.9-4.2.2-2.9.6.3.1-.8-1.2-2.5-2.3-3.3-3.5-3.9-4.6-2.3zm-179.1 6c.6.8.1 1-1.8.5-3.1-.7-4.7 1.9-2.4 4.2 1.2 1.2 1.7 1 3.6-1.5 1.5-2.1 1.8-3.2 1-3.7-.7-.4-.8-.3-.4.5zm7.9 2.1c-2.3.9-2.3 1.2-2.3 19v18h6.8c8.9 0 13.6-1.4 18.1-5.5l3.8-3.5 2.4 2.7c5 5.4 14.4 7 19.3 3.2 1.4-1.1 2.6-2.7 2.6-3.5 0-1.1-.6-1.1-3.5.3-2.8 1.3-3.9 1.4-6 .5-4-1.8-2.9-4.3 4.2-10.1 7.8-6.3 7.1-7.9-1.2-2.6-8.2 5.3-7.9 3.5.5-2.5 6.9-5.1 8.6-8.1 4.9-8.8-1.7-.3-18.6 11.7-20.8 14.9-1.3 1.8-1.5 1.9-3.3.3-1.1-1-4.1-1.9-7.4-2.2l-5.5-.5 5-3.3c9.2-6.2 10.2-11.2 2.9-15-3.8-2-17.1-2.9-20.5-1.4zm12.5 4.2c1.7 1.7 1.5 6.4-.4 8.2-.8.9-1.7 1.6-2 1.6-.2 0-.4-2.5-.4-5.5 0-5.6.6-6.5 2.8-4.3zm4.1 21.3c1.7 1.7.7 3.1-3.8 5.8l-3.1 1.8v-5.2c0-5.1 0-5.1 2.8-4.4 1.5.3 3.3 1.3 4.1 2zM50.6 99.7c-.3.4 0 1.4.8 2.2 2.1 2.3.4 5-1.8 3.2-2-1.6-2-.3-.1 2.2 1.3 1.8 1.5 1.6 3.4-2 1.9-3.8 1.9-4 .1-5-1-.7-2.1-.9-2.4-.6z"/><path d="M129.6 103.7c-6.9 4.8-11.5 9.7-10.3 10.9.3.3 2.1-.3 3.9-1.4l3.3-2.1-.3 10.5-.3 10.4H138v-10c0-5.5.4-10 .9-10 1.7 0 11.5-8.4 10.3-8.8-.7-.2-3.3.8-5.7 2.3-3.2 1.8-5.7 2.5-8.1 2.3l-3.6-.3 4.1-2.5c4-2.5 5-5.2 2.1-5.8-.9-.1-4.6 1.9-8.4 4.5zm43.9 5.9c-6.3 4.6-10.5 9.1-10.5 11.1 0 1.8 5.9 8.2 9.2 9.9 2.8 1.4 3.2 1.4 7.5-1.2 12.2-7.1 15.2-12.9 9.1-17.8-1.8-1.4-4.2-3.5-5.3-4.6-1.2-1.1-2.5-2-3-1.9-.6 0-3.7 2-7 4.5zm6.7 11.9c-.6 1.3-2 2.9-3.2 3.5-1.9 1-2 .8-2-4.4 0-4.6.4-5.8 2.3-7.1 2.1-1.5 2.2-1.4 3.1 2.1.5 2.3.5 4.4-.2 5.9zM196 119v13.1l5.8-.3 5.7-.3v-10.8c-.1-5.9.2-10.7.5-10.7s2 .9 3.8 2c4.4 2.7 6.5 8 6 14.8l-.5 5.3 7.1-.3 7.1-.3-.3-5c-.8-12.9-10.9-20.5-27.3-20.5H196v13zm55-10.6c0 1.4 3.2 7.6 4 7.6 1.6 0 2.3-2.1 1.1-3.3-.9-.9-1.1-.7-.6.8.6 1.6.5 1.7-.4.5-.5-.8-.8-2.5-.4-3.7.4-1.9.1-2.3-1.6-2.3-1.2 0-2.1.2-2.1.4zm-202.8 3.2c-.6 1.1-1.1 1.3-1.6.5-1-1.6-2.3-1.4-3 .5-.3.8.1 2.2 1 3.1 1.7 1.8 1.6 1.8 3.8-2.5 1.7-3.2 1.5-4.6-.2-1.6zm208.6 5.1c-1 .2-1.8.8-1.8 1.3s.8 1.4 1.8 1.9c1.5.9 1.5 1.2.2 2-2.1 1.4-.5 2.4 1.9 1.2 1.7-1 1.9-1.5.9-4.1-.5-1.7-1.1-2.9-1.1-2.9-.1.1-1 .3-1.9.6zM41 118.9c0 .5.6 1.1 1.4 1.4 2.2.9.8 4.7-1.8 4.7-2.1 0-2.1.1.2 1.8 1.5 1.2 2.1 2.4 1.6 3.5-.5 1.4-.9 1.5-2 .6-.9-.8-1.4-.8-1.4-.1 0 .6.5 1.4 1 1.7 1.5.9 1.2 2.5-.5 2.5-2.1 0-1.9 1.7.5 3 1.1.6 2 2.1 2 3.3 0 1.2-.9 2.8-2 3.5-1.1.7-2 1.8-2 2.6 0 .7.9 1.6 2 1.9 1.4.4 2 1.4 2 3.5 0 1.7-.5 3.2-1 3.4-.6.2.3 1.9 2 3.7 3.4 3.9 3.5 4.2 1.9 5.8-1.6 1.6-.3 4.5 1.8 4.1 1.4-.2 1.8.3 1.6 2.7-.3 3.6 2.6 7.8 4.5 6.6 1-.6.3-2.7-2.7-9.2-6.1-12.6-7.5-19.3-6.8-31.9.4-5.8 1.1-12 1.7-13.9.7-2.4.6-3.8-.1-4.8-1.3-1.5-3.9-1.8-3.9-.4z"/><path d="M40 122c0 .5.5 1 1 1 .6 0 1-.5 1-1 0-.6-.4-1-1-1-.5 0-1 .4-1 1zm218.8 5.7c-2.9.4-3.1 1.1-1.8 5.3l.8 2.5.1-2.7c.1-2.5.3-2.7 2.6-1.8 2.2.9 2.5.7 2.5-1.5 0-1.4-.3-2.4-.7-2.4-.5.1-2 .4-3.5.6zm0 8c-1 .2-1.8 1.4-1.8 2.5 0 1.9.2 1.9 2.2.6 2.2-1.5 3.6-3.9 2.1-3.7-.4.1-1.6.3-2.5.6zm-1.8 7.9c0 2.9 2.5 3.3 3.3.5.3-1.3-.1-2.1-1.4-2.4-1.5-.4-1.9 0-1.9 1.9zm-27-.8c-.8.3-4.1 2.3-7.3 4.5-8.1 5.6-8.9 10.9-2.2 14.1 3.7 1.8 8.1.9 9.1-1.9 1-2.4-.2-2.9-2.7-1.1-1.7 1.1-2.6 1.3-3.6.4-2.7-2.2-1.4-5.5 3.8-10 4.9-4.2 6.3-7.1 2.9-6zm-168 1.6c-7.3 1.1-7.5 1.2-7.8 4.1-.2 1.6-.1 5.3.3 8.2l.6 5.3h4.7c6 0 9.2-.9 9.2-2.5 0-.9-1.1-1.2-4-.8-5.3.7-5.2-.9.2-4.1l4.2-2.5-4.2-.7c-4.6-.7-5.2-2.7-1.1-3.2 1.3-.2 3.2-1.1 4.1-1.9 1.5-1.3 1.9-1.1 4.7 2.7l3.1 4.3-4.1 4.9c-5.2 6.1-4.2 7.8 1.2 2 2.2-2.3 4.1-4.2 4.3-4.2.2 0 1.7 2 3.3 4.5 2.8 4.5 3.4 4.7 7.6 3 1.4-.6 1.7-.2 1.7 1.9 0 2.2.4 2.6 3 2.6 4.1 0 4.5-.2 4.6-2.5.1-1.1.2-2.5.3-3.1 0-.7 2.6-2.4 5.6-3.9 8.9-4.3 9.8-9.1 2.2-12-2.6-1-6.4-1.5-9.7-1.3l-5.5.3-.3 7.2c-.2 4-.6 7.3-1 7.3-.9 0-6.2-7.5-6.2-8.7 0-.5 1.1-2 2.5-3.3 3.9-3.6 3.2-5.6-.9-2.5l-3.5 2.6-1.6-2.5c-2-3-4.7-3.2-17.5-1.2zm40.7 6.3c.5 1.4-2.3 5.3-3.9 5.3-.4 0-.8-1.8-.8-3.9 0-3.5.2-3.9 2.1-3.4 1.1.3 2.3 1.2 2.6 2zm88.2-3v4.8l-2.2-4.3c-2.1-4.1-2.2-4.2-7.4-4.2H176v20h7v-5c0-2.8.3-5 .6-5 .4 0 3.1 2.5 6 5.6 4.5 4.7 5.7 5.4 6.9 4.4.8-.7 1.5-2.6 1.5-4.3v-3.1l2.8 2.6c3.8 3.6 6.8 4.3 9.7 2.4 1.4-.9 2.5-2.3 2.5-3.1 0-1.9-.9-1.9-3.2.1-1.4 1.4-2 1.4-3.3.4-2.9-2.4-1.7-5.6 3.7-10.3 5.2-4.5 5.9-6.5 1.9-5.2-1.1.3-4.7 2.6-8.1 5l-6 4.5.3-4.8.2-4.7-3.7-.3-3.8-.3-.1 4.8zm50.1-3.8-6.5.6-.5 3.5c-.3 1.9-.3 5.9-.2 8.7l.4 5.3h5.1c6.6 0 9.7-.9 9.7-2.6 0-1.6-.3-1.6-5.2-.5-2 .5-3.9.6-4.2.4-1.1-1.1 1.4-4.1 4.3-5.3 3.9-1.6 2.9-3.4-1.5-2.7-2.9.5-3.4.3-3.4-1.4 0-1.2.7-1.9 2-1.9 2.6 0 8-2.7 8-4 0-.6-.3-.9-.7-.8-.5.1-3.7.4-7.3.7z"/><path d="M112 153.6v9.7l6.1-.6c3.9-.3 6.8-1.2 7.8-2.2 1.5-1.6 1.3-1.6-3.6-1-6.8.9-7.2-1.2-.8-4.3 5.8-2.8 6-4.6.4-3.7-3.5.6-4 .5-3.7-1 .1-.9 2-2.3 4.2-3 7.2-2.5 6.6-3.5-2.2-3.5H112v9.6zm41.4-8.7c-.2.2-.4 3.3-.4 6.9 0 5.7-.2 6.3-1.7 5.7-1-.4-2.6-1-3.5-1.2-1.6-.5-1.5-.8.7-2.5 3-2.4 3.1-3.9.5-6.3-1.6-1.5-3.8-1.9-9.9-1.9-4.4-.1-8.2.2-8.6.5-.3.4-.9 4.8-1.2 9.9l-.6 9.1 3.9-.3c3.7-.3 3.9-.5 4.2-4.1.3-2.9.7-3.7 2.3-3.7 4.8 0 13.9 5.7 13.9 8.7 0 .7 1.1 1.3 2.6 1.3 2.3 0 2.5-.3 1.9-3.1-.6-2.9-.6-3 1.3-2 4.2 2.3 15.2.5 15.2-2.5 0-1-.6-1.1-2.6-.4-3.3 1.3-8.4 1.3-8.4 0 0-.6 2-2 4.5-3.2 2.5-1.2 4.5-2.6 4.5-3 0-.4-1.8-.8-4-.8-5.4 0-5.4-2.5 0-4.1 2.2-.7 4.5-1.8 5.1-2.5.8-1-1-1.2-9.1-1.1-5.6.1-10.3.4-10.6.6zm-10.8 5.2c.8 1.3-.5 2.6-3.1 3.1-1.4.2-2.1-.3-2.3-2-.3-1.8.1-2.2 2.2-2.2 1.4 0 2.8.5 3.2 1.1zm113.6.4c.3 1.4.1 2.5-.3 2.5-.5 0-.9.7-.9 1.5 0 1.1.6 1.2 2.3.6 2.7-1 3.4-3.6 1.3-5.6-2.1-2.2-2.9-1.8-2.4 1zm11.5 9.4c-5.1 2.4-5.7 2.9-4.3 4 .9.8 2.2 2.5 2.9 3.9 2.6 5.4 8.1 5.4 8.3.1.2-4.5.4-4.8 2-4.2 1.2.5 1.5-.1 1.2-2.8-.4-4.4-2.5-4.6-10.1-1zm-16.6 5.3c-1.7 3.3-3.1 6.3-3.1 6.5 0 .6 2.5.2 3.9-.6 1.2-.8 1.2-1.3.3-2.4-1-1.2-.9-1.6.3-2 .8-.4 1.2-1.3.9-2.2-.4-1 0-1.5 1.5-1.5 1.4 0 2.1-.6 2.1-2 0-3.9-2.9-1.9-5.9 4.2zm35.5 11.1c-.9 2.3-1.6 4.8-1.6 5.5 0 .7-.4 1.2-.9 1.2s-1.5 1.5-2.2 3.2c-.7 1.8-2.8 5.9-4.6 9-1.9 3.2-3 6.3-2.7 7.2.9 2.3 3.7-.1 3.1-2.6-.3-1 0-1.8.7-1.8 1.7 0 4-4.5 3.1-6-.4-.7.2-1.8 1.4-2.6s2.1-2.6 2.1-3.8c0-1.3.6-2.6 1.4-2.9 1.3-.5 3.3-9.4 2.3-10.3-.2-.3-1.2 1.5-2.1 3.9zm-259-1.4c-1.9 2.1-1.9 2.1.8 4.8 1.5 1.4 2.5 3.2 2.2 3.9-.8 2.1 1.8 4.6 4.4 4.2 3.8-.5 9.8-11.6 7.2-13.2-.4-.2-3.5-.8-6.7-1.1-5.3-.6-6.2-.5-7.9 1.4zm217 1.7c-3.1 4.6-2.2 10 1 5.7.8-1.2.9-2.2.2-3-.7-.9-.1-1.8 2.2-3.1 2.5-1.6 2.8-2.1 1.5-2.6-2.3-.9-2.2-1-4.9 3zm-189.9 6.5c-.8 3 .2 5.2 1.8 3.9.9-.7 1.6-.5 2.6.7.9 1.1 1 1.4.2.9-1.8-1-1.6.9.2 2.4 1.1.9 1.9 1 2.6.3.7-.7 0-2.5-2.3-5.6-3.8-5.2-4.4-5.5-5.1-2.6zM14 184.7c0 3.5 3.9 11.8 5.1 10.6.6-.6-.1-3-2.1-6.9-1.9-3.8-3-5.1-3-3.7z"/><path d="M239.6 183.9c-.6 1 2.2 3.7 2.9 2.9.8-.7-.5-3.8-1.5-3.8-.5 0-1.1.4-1.4.9zm-96.2 8.8c-6.2 13.4-7.3 16.1-6.7 16.7.8.8 15.8.8 16.6 0 1.3-1.4-1.7-5.4-4.1-5.4-1.9 0-2.3-.4-1.7-1.8.4-.9 1.2-3 1.8-4.6 1-2.9 1-2.9 4.9 4.7 3.6 7.3 4 7.7 7.1 7.7 1.9 0 3.6-.2 3.9-.5.2-.3-1.5-4.7-3.9-9.7-6.9-14.9-6.4-14.3-10.6-14.6l-3.8-.3-3.5 7.8zm92.6-3.8c0 .8-.8 2-1.7 2.7-1.5 1-1.6 1.5-.5 2.5 1 1.1 1.6.9 3.4-.9 2.1-2.1 2.1-2.3.5-3.9-1.2-1.3-1.7-1.4-1.7-.4zm-170.9 5.4c-1.4 1.8-.7 3.9 2 5.6 1.8 1.1 2.4 1 3.5-.1 1.2-1.2 1-1.8-1.4-4.1s-3.1-2.6-4.1-1.4zm4 3.4c1.3 1.7 1.3 1.7-.6.3-1.1-.8-2.2-1.6-2.4-1.7-.2-.2 0-.3.6-.3s1.7.8 2.4 1.7zm152.9 3.1c-4.1 2.9-10.5 7.1-14.2 9.1-4.9 2.7-6.5 4-5.7 4.8 1.5 1.5 6.2-.5 5.5-2.3-.5-1.2 2.5-2.7 7.8-3.9 1.5-.3 2.6-.9 2.2-1.2-.9-1 3.5-5.3 5.4-5.3.9 0 3.2-.8 5.2-1.8 2.9-1.5 3.3-2.1 2.4-3.3-.9-1.3-2.2-.7-8.6 3.9zm-201.6-2.5c-.9 2.3 2.1 5.6 3.6 4.1.8-.8.5-1.8-.9-3.5-1.8-2.2-2-2.3-2.7-.6zm53.1 3.7c-.8 1.3 1.3 4 3.1 4 2.2 0 2.7-2.1.8-3.5-2.3-1.7-3.1-1.8-3.9-.5zM24 205.4c0 .8 1.1 2.7 2.5 4.2 1.3 1.4 2.7 3.5 3 4.5.4 1.1 1.1 1.9 1.6 1.9 1.6 0 1-2.8-1.8-7.5-2.7-4.4-5.3-5.9-5.3-3.1zm55.9 1.9c-1.1 2-1.1 2.1.4.9 1.3-1.1 1.8-1 3.2 1.2 1 1.4 2.3 2.6 3.1 2.6 2.7 0 2.1-1.6-1.7-4.2l-3.9-2.7-1.1 2.2zm12.4 6.3c-.8 2.1.8 3.4 4.2 3.7 4.1.3 4.1-1.7 0-3.6-3.2-1.5-3.6-1.5-4.2-.1zm105.2 2.3c-.6 1.1.9 2.3 1.9 1.4.9-.9.7-2.3-.3-2.3-.6 0-1.2.4-1.6.9zm-95.5 1.6c0 .8.6 1.5 1.4 1.5.8 0 2.2.7 3.1 1.6 1.2 1.3 2.1 1.4 3.8.6 2.1-1 2.2-1 .2-1.7-1.1-.3-3.5-1.3-5.2-2.1-2.9-1.2-3.3-1.2-3.3.1zm90.7.1c-.4.4-.4 1-.1 1.5.6 1 3.4 0 3.4-1.2 0-1-2.4-1.2-3.3-.3zm-8.7 2.3c-16.7 5.3-43.2 6-63.7 1.8-5.4-1.2-6.3-1.1-6.8.1-.8 2.1.4 3 1.5 1.2.8-1.2 1.3-1.1 3 .8 2.3 2.5 5 2.9 5 .8 0-1.8 4-.9 5.6 1.3.9 1.2 1.5 1.3 2.6.4.8-.7 1.9-.8 2.8-.3.8.5 2.7.6 4.3.3 1.5-.3 3.9 0 5.3.8 2 1 3.2 1 5.6.1 1.7-.6 3.5-.9 4-.6.6.4 2.1 0 3.5-.7 2.2-1.2 2.6-1.1 3.4.4 1.2 2.1 5.9 2.3 5.9.2 0-1.6 3.5-2.1 4.4-.6.8 1.3 4.7.2 7.3-2.2 1.5-1.3 2.9-1.8 4.7-1.3 2.7.7 7.9-1.2 7-2.5-.6-1.1-2-1-5.4 0zm17.8 1.8c-.7 1.5-2 3.9-3 5.2-2.3 3.1-2.3 5.8.2 7.1 3.6 1.9 19.4-5.9 17.6-8.8-.3-.4-2.4-1.5-4.8-2.2-2.4-.8-5.3-2-6.5-2.8-2.1-1.3-2.3-1.2-3.5 1.5zm-106.3 3.8c-1.6.7-4.2 1.8-5.7 2.4-2 .7-2.8 1.8-2.8 3.5 0 2.2 2.3 3.7 6.5 4.1.6 0 2 .6 3.2 1.3 5.2 2.9 10.7.2 8.4-4.1-2.4-4.7-4.7-8.1-5.6-8.3-.6-.2-2.3.3-4 1.1zm146.6 5.7c-5.2 3.5-11.7 7.6-14.5 9.2-9.8 5.5-19.1 12.1-19.4 13.8-.2 1 .2 1.8.8 1.8 3 0 15.5-5.7 18.9-8.7 2.1-1.7 5-3.5 6.4-3.8 2.8-.8 18.1-13.4 19-15.8.6-1.5 0-2.7-1.2-2.7-.4 0-4.9 2.8-10 6.2zm5.1 0c-.7.7-1.2.8-1.2.2 0-1.4 1.2-2.6 1.9-1.9.2.3-.1 1.1-.7 1.7zm-7.2 5.2c0 1.9-4.4 5-4.8 3.6-.4-1.2 2.6-5 4-5 .4 0 .8.6.8 1.4zm-12.5 7.5c.6 1-2.1 4.1-3.6 4.1-1.6 0-1-2.9.9-3.9 2.1-1.3 2-1.3 2.7-.2zm-11 7.1c-.3.5-1.2 1-1.8 1-.7 0-.6-.4.3-1 1.9-1.2 2.3-1.2 1.5 0zm-161-14c-.9 1.5-.1 2.5 7.1 7.4 8.1 5.7 11.7 7.6 14.4 7.6 1.7 0 2.1-.5 1.8-2.8-.3-2.3-1.6-3.4-9.3-7.3-10.5-5.5-13.1-6.4-14-4.9zm7.5 3.5c1.1 1.3 1 1.4-.4.9-.9-.3-1.6-1-1.6-1.5 0-1.3.6-1.1 2 .6zm10 6.7c0 1.3-2.7.9-4-.7-1.9-2.3-.1-3.9 2.1-1.9 1 .9 1.9 2.1 1.9 2.6zm7 3c0 4.2 5.2 7.5 16.6 10.6 7.3 2 9.4 1.9 9.4-.4 0-1.5-17.7-10.6-23.2-11.9-2.5-.6-2.8-.4-2.8 1.7zm9.8 4c.5 2.5-2.5 2.3-3.8-.3-1-1.8-.9-2 1.2-1.7 1.2.2 2.4 1.1 2.6 2zm10.2 4.4c0 .2-.7.4-1.5.4s-1.5-.4-1.5-1c0-.5.7-.7 1.5-.4.8.4 1.5.8 1.5 1zm52.5 4.9-4 3.4h6.5c3.6-.1 7.6-.4 8.8-.8 2.3-.6 2.2-.7-1.8-3.4-2.3-1.5-4.5-2.7-4.8-2.7-.4 0-2.5 1.6-4.7 3.5zm2 11.5-3 .8 3.3.1c1.7 0 3.2-.4 3.2-.9 0-.6-.1-.9-.2-.9-.2.1-1.6.5-3.3.9z"/></g><g stroke-width="0"><path d="M126.2 52.2c-5.7 1.1-10.1 2.2-9.8 2.5.2.3 4.2-.3 8.8-1.3 4.5-.9 12.7-1.7 18.1-1.8 5.3-.1 9.7-.4 9.7-.8 0-1.5-16.6-.6-26.8 1.4zm30.5-.2c1 1.1 1.8 2 1.9 2 .1 0 .4-.9.7-2 .4-1.6 0-2-1.9-2-2.3 0-2.3.1-.7 2zm15.7-.5c9.4 1.6 11.8 2.4 7 2.6-1.8.1-.4.6 3.4 1.4 3.5.7 6.8 1.7 7.4 2.3.5.5 2.7.8 4.9.5 3.2-.5 4-.2 4.6 1.3.7 2 2.2 3.4 3.7 3.4.6 0 .1-.6-1-1.4-1-.8-1.6-1.8-1.1-2.2.4-.4.7-.3.7.3s.8.9 1.9.6c1-.2 2.5.2 3.3 1.1.9.8 1.9 1.2 2.3.8.5-.4.6 0 .2.9-.4 1.2-.1 1.6 1.2 1.2 1.2-.3 2 .2 2.3 1.5.7 2.6 4.4 4.7 5.4 3 .5-.7.2-.8-.7-.3-1.1.6-1.1.5-.3-.4.9-1 2.2-.5 5.8 1.8 4.2 2.6 4.5 3 2.9 4-1.7 1-1.7 1.1.2.9 4.8-.3 5.6.1 4.5 2.3-1.4 2.5-.6 3.6 1.4 2 1.2-1.1 2.3-.6 6 2.5 2.5 2.1 4.3 4.1 4 4.6-.7 1.1 1.6 3.9 2.6 3.3.8-.5 4.9 4.4 8.3 9.8 1.7 2.6 1.5 5.3-.3 4.2-1.3-.8-2 .9-.9 2.5.6 1 1.2 1.1 1.7.5 1.5-2 3.1-1.4 4.1 1.7.6 1.7.9 3.4.6 3.6-.3.3-.5.1-.5-.4 0-.6-.7-1.9-1.6-3-1.2-1.4-1.4-1.5-1.1-.3.3.9.1 2.2-.4 2.8-.5.6-.6.9-.3.6 1-.7 4.7 2.2 5 3.9.1.7.5 2.7.9 4.4.5 2.3.2 3.3-1.1 4-.9.5-1.4 1.4-1 2.1 1.1 1.8 2.6 1.3 2.6-1 0-1.1.5-1.7 1-1.4.6.3 1 2.6 1 5.1 0 4.2-.1 4.4-2.5 3.8-2-.5-2.5-.3-2.5 1.4 0 1.6.5 1.9 2.2 1.4 1.7-.4 2-.2 1.5 1.2-.4 1-.3 1.5.3 1.1.6-.4 1 1.3.9 4.2 0 3.5-.3 4.2-.8 2.8-.8-1.9-.9-1.8-1.2.5-.3 1.8-.9 2.4-2.4 2.2-2-.3-2-.2 0 1.3 1.8 1.4 2 1.4 2.7-.2.5-1 .5-.5.2 1.2-.4 1.6-.7 3.8-.8 4.7 0 .9-.3 1.5-.6 1.4-.3-.2-1.4.1-2.5.5-1.8.9-1.8.9.3.5 1.5-.3 2.2.1 2.2 1.2.1 3.3 1.7-1.1 3.1-8.3 4.8-25.5-3.4-49.1-23.7-68.6-11.8-11.2-22-17.3-39.3-23.3-12.7-4.4-20.9-6.4-29.7-7-6.7-.6-6.6-.5 2 .9zm13.9 3.2c-.7.2-1.9.2-2.5 0-.7-.3-.2-.5 1.2-.5s1.9.2 1.3.5zm6.2 1.3 2 .9h-2c-1.1 0-2.7-.4-3.5-.9-1.3-.9-1.3-1 0-.9.8 0 2.4.4 3.5.9zm23 11c.3.5.4 1 .1 1-.3 0-.8-.5-1.1-1-.3-.6-.4-1-.1-1 .3 0 .8.4 1.1 1zM245 88.1c0 .6-.4.7-1 .4-.5-.3-1-1.1-1-1.6 0-.6.5-.7 1-.4.6.3 1 1.1 1 1.6zm10.7 16.6c-.4.3-.7 0-.7-.7s.3-1 .7-.7c.3.4.3 1 0 1.4z"/><path d="M141.3 52.7c.9.2 2.3.2 3 0 .6-.3-.1-.5-1.8-.5-1.6 0-2.2.2-1.2.5zm4.7.3c0 .7.3 1 .7.7.3-.4.3-1 0-1.4-.4-.3-.7 0-.7.7zm19.5 0c.3.5 2.1 1 3.8.9 2.7 0 2.9-.2 1.2-.9-2.8-1.2-5.7-1.2-5 0zM134 55c0 .7.3 1 .7.7.3-.4.3-1 0-1.4-.4-.3-.7 0-.7.7zm-23.5 1c-1.3.5-1.4.9-.5.9.8 0 2.4-.4 3.5-.9 1.3-.5 1.4-.9.5-.9-.8 0-2.4.4-3.5.9zm-11.2 4c-9.5 3.7-20 9.6-20 11.2 0 .7 1.1 1.4 2.3 1.4 1.4.1 2.1-.3 1.8-1-.6-1.7 9.3-6.8 11.6-6.1 1.3.4 1.7.1 1.6-1.2-.1-2.3 5.1-5 6.7-3.4 1.8 1.8 4 1.3 3.4-.9-.3-1 0-2.1.7-2.4.6-.2.7-.5.1-.5-.5 0-4.3 1.3-8.2 2.9zm5.4-.3c-.4.3-1 .3-1.4 0-.3-.4 0-.7.7-.7s1 .3.7.7zM88 67c-.8.5-1.9 1-2.5 1-.5 0-.3-.5.5-1s2-1 2.5-1c.6 0 .3.5-.5 1zm-5.5 3c-.3.5-1.2 1-1.8 1-.7 0-.6-.4.3-1 1.9-1.2 2.3-1.2 1.5 0zm54-10.9c-11.5 1.6-20.9 4-19.4 5 1.9 1.2 3.2 1.1 2.4-.1-.4-.6.7-.8 2.7-.4 2.3.4 2.9.3 1.9-.4-.9-.7-.1-1 3-1 2.4 0 11.9-.3 21.1-.7 11.4-.5 19.2-.4 25 .5 29.4 4.3 59.8 24.4 71.3 47.3 4 7.9 5.8 7.2 2.1-.9-1.7-3.7-3-5.3-3.7-4.8-.8.5-1 .2-.6-.8.6-1.7-3.8-8.5-5.4-8.1-.5.2-.8-.1-.6-.6.5-1.8-6.5-9.1-14.3-14.9-13.9-10.6-31.3-17.7-48.6-20.1-8.7-1.3-28.2-1.2-36.9 0zm26.3.6c-3.2.2-8.6.2-12 0-3.5-.2-.9-.3 5.7-.3 6.6 0 9.4.1 6.3.3zm11.5 1c-.7.2-1.9.2-2.5 0-.7-.3-.2-.5 1.2-.5s1.9.2 1.3.5zm6.4 1c-.4.3-1 .3-1.4 0-.3-.4 0-.7.7-.7s1 .3.7.7zm4 1c-.4.3-1 .3-1.4 0-.3-.4 0-.7.7-.7s1 .3.7.7zm20.6 1c.4.3 1 .3 1.4 0 .3-.4 0-.7-.7-.7s-1 .3-.7.7zm-96.1 2c-2.5.9-3.9 1.9-3.5 2.6.4.7 0 .8-1.2.4-1.8-.7-12.8 4.7-21 10.3-4.7 3.3-18.4 16-17.2 16 1.6 0 5.3-2.4 12.2-8 9.9-8.1 15.2-11.5 25.2-16.3 4.9-2.3 8.9-4.4 9.1-4.8.2-.4 1.3-.5 2.5-.2 1.8.4 1.9.3.7-.6-1.8-1.3-1.5-1.3-6.8.6z"/><path d="M92.4 68.2c-.4.7-.3.8.4.4s1.2-.9 1.2-1.2c0-.8-.9-.4-1.6.8zm127.3 2.9c.7.7 1.5 1 1.8.7.3-.3-.2-.9-1.2-1.2-1.4-.6-1.5-.5-.6.5zM75.3 72.7c-1.3.8-2.3 2.2-2.3 3 0 .9-.6 1.3-1.5.9-1-.4-4.7 2.6-11 9-8.7 8.6-10.5 11.5-7.2 11.3.8 0 .8-.2-.1-.6-.9-.3-.2-1.3 1.9-2.9 1.8-1.3 2.9-2.4 2.3-2.4-.5 0 .9-1.1 3.1-2.3 2.5-1.4 4.1-3.1 4.3-4.5.3-2.1 3.8-4.9 5.5-4.4 1.9.6 4.5-1.9 4-3.8-.4-1.3 0-2 1-2 .8 0 1.7-.7 2.1-1.5.7-1.8.7-1.8-2.1.2zM63.1 85.3c-1 .9-1.1.8-.5-.6.3-1 .9-1.5 1.2-1.2.3.3 0 1.1-.7 1.8zm5.3-1.1-1.9 2.3 2.3-1.9c1.2-1.1 2.2-2.1 2.2-2.3 0-.8-.8-.2-2.6 1.9zm167.1 0c1.9 3.1 3 3.5 4.1 1.5.4-.6.3-.9-.1-.4-.5.4-2-.3-3.3-1.5l-2.5-2.3 1.8 2.7zm10.5 8.7c0 .6.5 1.3 1 1.6.6.3 1 1.1 1 1.7 0 .6-.7.5-1.7-.3-1.4-1.2-1.4-1 .2 1.4 1.3 2.1 2.1 2.5 3.1 1.6 1.1-.9.9-1.6-.8-4-2.3-3.1-2.8-3.4-2.8-2zm-198.6 8.3c-8.7 13.7-11.9 25.8-11.1 41.7.5 11.4 2.8 21.5 3.9 17.3.3-1.2.3-2-.2-1.7-1.2.7-2.7-8.6-2.9-17.8-.2-6.1.2-8.7 1.3-10.2 1.4-1.7 1.7-1.8 2.6-.5.8 1.2 1 1 1-.9s-.4-2.2-2.1-1.8c-1.5.4-1.9.2-1.5-1 .3-.8.6-2.4.6-3.6 0-1.2.7-3 1.4-4 1.2-1.6 1.8-1.7 3.8-.6 2.1 1.1 2.2 1.1.9-.4-.7-1-2-1.7-2.7-1.7-1.1 0-1-.7.4-3.5 1.3-2.6 2.2-3.3 3.9-3 3 .5 3.6-.5 1.7-2.7-1.4-1.4-1.4-2-.4-3.3.7-.8.9-1.5.6-1.5-.4 0 0-.7.8-1.6 1.5-1.5 2.1-3.4 1.1-3.4-.3 0-1.7 1.9-3.1 4.2zm6.1-1.2c.3.5.8 1 1.1 1 .3 0 .2-.5-.1-1-.3-.6-.8-1-1.1-1-.3 0-.2.4.1 1zm24.6 2.2c.1 3.1.1 3.2.9.8l.8-2.5.1 2.4c.1 1.3.4 2.2.7 1.8.9-.9-.5-5.7-1.6-5.7-.6 0-1 1.5-.9 3.2z"/><path d="M50 105c0 .7.3 1 .7.7.3-.4.3-1 0-1.4-.4-.3-.7 0-.7.7zm28.4 2.2c-.4.7-.3.8.4.4 1.2-.7 1.6-1.6.8-1.6-.3 0-.8.5-1.2 1.2zM250 107c0 .7.3 1 .7.7.3-.4.3-1 0-1.4-.4-.3-.7 0-.7.7zm-163.5 5.7c-2.5 1.4-2.7 1.8-1.1 2.1 1 .2 2.8-.5 3.9-1.7 2.5-2.5 1.3-2.7-2.8-.4zm89.5 2.8c-.7.9-1.1 1.7-.9 2 .3.2 1-.5 1.7-1.5 1.4-2.4 1-2.6-.8-.5zm80.3.2c.4.3 1 .3 1.4 0 .3-.4 0-.7-.7-.7s-1 .3-.7.7zm-203.7 1.7c.5 1.2.4 1.7-.3 1.3-.7-.4-1.7 2.5-2.8 7.8-1.9 9.1-1.7 24.3.5 31.8 1.6 5.5 2.4 3.8 1.1-2.3-1.8-8.3-1.4-23.6.8-31.5 1.3-4.7 1.6-7.3 1-8-.7-.7-.8-.4-.3.9zm196-.6c-.4.7 0 1.9.8 2.8 1.7 1.7 1.9 1.1.7-2-.5-1.4-1-1.6-1.5-.8zM77 121.6v3.5l2.2-2.1c1.2-1.1 2.8-2 3.7-2 2.1 0 .8-.9-2.8-2-3-.8-3.1-.8-3.1 2.6zm178.3-.9c.4.3 1 .3 1.4 0 .3-.4 0-.7-.7-.7s-1 .3-.7.7zm-214.7 3.5c.3.4.9.8 1.5.8.5 0 .9-.4.9-.8 0-.5-.7-.9-1.5-.9s-1.2.4-.9.9zM251 124c0 .7.3 1 .7.7.3-.4.3-1 0-1.4-.4-.3-.7 0-.7.7zm-143.3 1.1c.7.7 1.5 1 1.8.7.3-.3-.2-.9-1.2-1.2-1.4-.6-1.5-.5-.6.5zm4.6.6c.4.3 1 .3 1.4 0 .3-.4 0-.7-.7-.7s-1 .3-.7.7zm-22.5 5.5c-1 1-1.4 1.8-.9 1.8 1 0 3.6-2.9 3-3.4-.2-.1-1.2.6-2.1 1.6zM38 134c0 .5.7 1 1.6 1 .8 0 1.2-.5.9-1-.3-.6-1-1-1.6-1-.5 0-.9.4-.9 1zm46 1c-.8.5-1 1-.5 1 .6 0 1.7-.5 2.5-1s1.1-1 .5-1c-.5 0-1.7.5-2.5 1zm-3.7.7c.4.3 1 .3 1.4 0 .3-.4 0-.7-.7-.7s-1 .3-.7.7zm144.3.1c-.2.4 1.3.6 3.5.4 2.1-.2 3.9-.6 3.9-.8 0-.7-6.9-.4-7.4.4zm-159.8.9c.6.2 1.8.2 2.5 0 .6-.3.1-.5-1.3-.5-1.4 0-1.9.2-1.2.5zm-26.7 5.5c.1 2.3.3 3.5.6 2.5.2-.9.9-1.7 1.4-1.7 1.5 0 .7-4.3-.8-4.8-.9-.2-1.3.9-1.2 4zm222.5-2.3c-.4.7-.5 1.5-.2 1.8.9.9 1.9-.4 1.4-1.8-.4-1.1-.6-1.1-1.2 0zm-192 7c-.3.5-2.2 1.2-4.1 1.5-5.1 1-4.3 2.6 1.3 2.5 4.6-.2 4.6-.2 1.2-.9-1.9-.4-2.6-.8-1.4-.9 1.1 0 2.5-.6 3.2-1.3.9-.9 1.5-.8 2.8.8 1.5 1.8 1.5 1.8.4-.4-1.1-2.3-2.5-2.8-3.4-1.3zm176 .5c-2.1 1-2.5 1.5-1.5 2 .8.3.4.4-.8.2-1.3-.2-2.3 0-2.3.5s2 .9 4.5.9c4.2 0 4.5-.2 3.5-1.9-.7-1.4-.6-2.1.3-2.4.6-.3.8-.5.2-.5-.5 0-2.3.5-3.9 1.2zm-146.4 5.3.1 3.8.4-3.3c.3-2.5.8-3.2 1.9-2.8.9.3 1.2.1.9-.4-.3-.6-1.3-1-2.1-1-1 0-1.4 1.1-1.2 3.7zm-59.2-.8c0 1.9 1.7 3.8 2.5 2.9.7-.7-.7-4.8-1.6-4.8-.5 0-.9.9-.9 1.9zm44.6.3c.3.5 1 .6 1.5.3 1.3-.9 1.1-1.2-.6-1.2-.8 0-1.2.4-.9.9zm16.8 2c-.4.7-.3.8.4.4 1.2-.7 1.6-1.6.8-1.6-.3 0-.8.5-1.2 1.2zm-35.6 1.5c-5.2 2.1-4.8 3.3 1 2.9 4.9-.4 5.2-.6 5.2-3.1 0-1.9-1.5-1.8-6.2.2zm179.8.2c-1.7 1.1-3.3 1.8-3.8 1.5-.4-.3-.8 0-.8.5 0 1.4 1.9 1.4 5.9 0 1.7-.6 3.1-1.7 3.1-2.5 0-1.9-.9-1.8-4.4.5zm-126.5 2.7c0 1.1.3 1.4.6.6.3-.7.2-1.6-.1-1.9-.3-.4-.6.2-.5 1.3zm3.9-.6c-2 .6-2.1.8-.5.8 1.1 0 2.9-.3 4-.8 2.5-1.1-.1-1.1-3.5 0zm-48.2 5.1c-2.6 2.7-4.3 4.9-3.9 4.9.9 0 9.1-8.6 9.1-9.5 0-.9-.3-.6-5.2 4.6zm95.5-4.4c.4.3 1 .3 1.4 0 .3-.4 0-.7-.7-.7s-1 .3-.7.7zm87.2.5c1.1.6 2.3 1.6 2.7 2.2.5.7.8.8.8 0 0-1.5-2.2-3.4-3.9-3.4-1.2.1-1.1.4.4 1.2zM41 161c0 .5.7 1.5 1.5 2.4.9.8 1.1 1.7.6 2.1-.6.3-1.4-.3-2-1.2-.6-1-1-1.4-1-.8 0 .5.6 2.1 1.4 3.5 1.1 2 1.4 2.1 1.5.7 0-1 .7-2 1.5-2.3 1.1-.4 1.2-1.1.5-2.4-1-1.9-4-3.5-4-2zm57.1 2.6c0 1.1.3 1.4.6.6.3-.7.2-1.6-.1-1.9-.3-.4-.6.2-.5 1.3zm3.2-.9c.4.3 1 .3 1.4 0 .3-.4 0-.7-.7-.7s-1 .3-.7.7zm128.1.4c-.3.6-2 1.7-3.8 2.5l-3.1 1.3 2.7.1c2.6 0 5.8-2.2 5.8-4.1 0-1.2-.7-1.1-1.6.2zm17.6.9c-.8.5-3.3 1-5.5 1.1l-4 .2 3.5.6c2 .4 3.4 1.2 3.3 1.9-.5 2 .4 1.4 2.7-1.8 2.3-3.2 2.3-3.5 0-2zm8.3-.3c-.7.2-1.3 1.3-1.3 2.4 0 1.3-.5 1.7-1.7 1.2-1.6-.6-1.6-.5-.4 1 1.3 1.6 1.5 1.6 2.6 0 1.1-1.7 2.7-5.4 2.2-5.2-.1 0-.8.3-1.4.6z"/><path d="M256.5 167c-1.5 3.2-2.4 4.1-5.3 4.6-2.8.6-3.2.8-1.8 1.6 1.2.7 2.2.5 3.3-.4 1.5-1.2 1.5-1.1.4.9-.6 1.3-2 2.3-3 2.3-2.1 0-4.4 2.3-3.4 3.3.3.4 1.5-.1 2.6-1 2-1.8 2-1.8.2 1.4-1 1.7-2.3 3.1-2.9 3-.6-.1-1 .4-.8 1.2.5 2.2-2.9 4.1-5 2.8-2.1-1.3-3.3-.4-2.4 1.8 1.1 2.9 4.9 1.2 8.8-4 4.1-5.3 12.3-20.4 11.5-21.1-.2-.2-1.2 1.4-2.2 3.6zm-198-1c-2.7.7-2.8.8-.5.8 1.4 0 3.4-.3 4.5-.8 2.5-1.1.2-1.1-4 0zm181.8 1.7c.4.3 1 .3 1.4 0 .3-.4 0-.7-.7-.7s-1 .3-.7.7zm-196.8 3.5c.1.7.8 1.2 1.4 1 .6-.1 1.1.3 1.1.9 0 .8.5.8 1.5-.1 2-1.7.9-3.3-1.5-2-1.2.7-2 .6-2.3 0-.3-.6-.4-.5-.2.2zm6.1 8.5c1.5 2.9 3.1 5.3 3.6 5.3.7 0 .9-.6 1.2-4.3.1-.7-.8-1.1-2.1-.9-1.3.2-2.3-.1-2.3-.5 0-.5-.7-1.8-1.6-2.9-.8-1-.3.5 1.2 3.3zm11.9-.7c.3.5.8 1 1.1 1 .3 0 .2-.5-.1-1-.3-.6-.8-1-1.1-1-.3 0-.2.4.1 1zm173 2c-.3.5-.3 1 .1 1s-.1 1-1.2 2.2c-1.7 2.1-1.7 2.1.8-.1 1.5-1.3 2.5-2.8 2.2-3.2-.7-1.2-1.1-1.1-1.9.1zm-169.4 3c3.2 4.8 11.1 13 12.5 13 .6 0 1.7.7 2.4 1.6.8.8 2.3 2 3.4 2.6 1.2.5-.4-1.2-3.4-3.8-3-2.7-8.1-7.5-11.3-10.9-4.2-4.3-5.2-5-3.6-2.5z"/><path d="M241.6 181.9c-.3.5.1 1.4.8 2 1.2 1 1.3.8.9-.8-.6-2.3-.9-2.5-1.7-1.2zm-187.4 6.4c1.5 1.2 4.1 3.9 5.7 6C63 198.2 74.6 208 76.2 208c.5 0 .6.6.2 1.2-.4.7.2.4 1.4-.6 1.2-1.1 2.2-2.6 2.2-3.5-.1-1.3-.3-1.3-1.5.3-1.3 1.8-1.6 1.8-4 .2-2.7-1.7-3.1-3.1-1.5-4.1.6-.4.8-1.1.4-1.6-.4-.6-1.4-.3-2.5.7-1.9 1.7-2.1 1.7-5.1-1.3-2.6-2.7-2.9-3.4-1.9-4.7.7-.9 1-2.3.7-3.2-.6-1.5-.8-1.5-2.8.2-1.6 1.4-2.2 1.6-2.5.6-.7-1.7-5.5-6.2-6.8-6.2-.5 0 .2 1 1.7 2.3zm9.8 5.1c0 .3-.4.8-1 1.1-.5.3-1 .1-1-.4 0-.6.5-1.1 1-1.1.6 0 1 .2 1 .4zm162.3-3.2c-1.8 1.9-2.2 2.7-1 2.3.9-.4 1.7-1.1 1.7-1.7 0-.5.4-.7.9-.4.4.3 1.6-.3 2.5-1.3 2.9-3.2-1-2.1-4.1 1.1zm3.7-1.8c0 .3-.5.8-1.2 1.2-.7.4-.8.3-.4-.4.7-1.2 1.6-1.6 1.6-.8zm7 5.2c-2.1 2.5-4.8 3.6-5.6 2.2-.4-.7-.3-.8.4-.4s1.2.1 1.2-1c0-1.3-.3-1.4-1.5-.4-1.1.9-1.2 1.7-.5 3 .6 1 1 2.1 1 2.4 0 .4-6.2 2.5-9 3.1-2.2.4-4.2 2.5-3.7 3.8.8 2.1-1.2 3.5-4.6 3.1-1.8-.2-2.5.1-2.1.8.4.6.2.8-.4.5-1.5-1-4.1.3-3.6 1.7.3.8-.8 1.8-2.5 2.6-2.6 1-3.4 1-4.7-.1-1.5-1.2-1.6-1.1-1 .7.5 1.8 0 2.5-3 3.9-3.4 1.6-3.6 1.6-4.8-.1-.9-1.2-1.5-1.4-2-.6-.4.7-.2 1.2.3 1.2 1.9 0 1.2 1.8-1 2.5-1.1.4-1.8.9-1.6 1.1.6.6 14.1-4.8 22-8.7 8.5-4.3 20.3-12.8 25.5-18.3 2.4-2.5 3.9-4.6 3.4-4.6s-1.5.7-2.2 1.6z"/><path d="M67 196.4c0 .2.8 1 1.8 1.7 1.5 1.3 1.6 1.2.3-.4s-2.1-2.1-2.1-1.3zm11.7 13.2c-1.1 1.1.3 2.3 1.9 1.7.9-.3 1.4 0 1.2.8-.2.9.4 1.3 1.6 1.1 1-.2 1.5.1 1.1.7-.7 1.2 2.3.4 4.3-1.2 1-.8 1.6-.7 2.3.4.7 1.1.9 1.1.9-.4 0-1.9-2-2.3-3.7-.6-.9.9-2 .6-4.6-1-3.8-2.3-4.1-2.4-5-1.5z"/><path d="M89.5 215c.3.5.8 1 1.1 1 .3 0 .2-.5-.1-1-.3-.6-.8-1-1.1-1-.3 0-.2.4.1 1zm10.5 2.5c-.7.9-1.9 1.4-2.5 1.1-.7-.2-1.7-.1-2.3.3-1.7 1 11.8 6 22.3 8.3 6.2 1.3 14.7 2.1 27.4 2.5l18.4.6-2.3-2.3c-2.2-2.2-2.4-2.2-5.7-.6-4.4 2.1-5.9 2.1-4.2-.2 1.2-1.5 1.2-1.6-.1-.6-2.2 1.6-10.8 2.6-11.6 1.3-.4-.8.1-.9 1.7-.4 1.9.6 2.1.5 1.3-.5-1.4-1.4-5-.9-4.7.6.1.6-1.1.8-2.8.6-1.6-.2-2.7-.7-2.5-1.1.2-.3-3.3-.6-7.8-.7-6.3 0-8.8-.5-11.1-2-1.6-1-2.6-1.3-2.2-.7.5.7.4 1.3-.1 1.3-1.7 0-2.2-1.3-1-2.9 1-1.3 1-1.4-.2-.4-1.8 1.7-3 1.6-3-.1 0-.9-1.2-1.2-4-1.1-3.9.2-4 .2-2.4-1.6 1-1.1 1.5-2.1 1.2-2.4-.3-.3-1.1.2-1.8 1zm59 9.9c0 .2-.7.7-1.6 1-.8.3-1.2.2-.9-.4.6-1 2.5-1.4 2.5-.6zm-69-10c0 .2.7.7 1.6 1 .8.3 1.2.2.9-.4-.6-1-2.5-1.4-2.5-.6zm87.7 7.1c-2.8 2.5-7.7 3.4-7.7 1.5 0-.6-.9-1-2-1-2.2 0-2.5.7-1.1 2.9.8 1.2 2.5 1 10.7-.9 5.5-1.3 9-2.6 7.9-2.8-1.1-.2-2.4-.8-2.9-1.3-1.4-1.3-1.7-1.1-4.9 1.6zm4.3-.1c0 .2-.7.6-1.5 1-.8.3-1.5.1-1.5-.4 0-.6.7-1 1.5-1s1.5.2 1.5.4z"/><path d="M115 224c0 .5.4 1 .9 1 .6 0 1.3-.5 1.6-1 .3-.6-.1-1-.9-1-.9 0-1.6.4-1.6 1zm137.9 7.7-3.4 3.8 3.8-3.4c2-1.9 3.7-3.6 3.7-3.8 0-.8-.8 0-4.1 3.4zm-9.5 10.4c-1 1.2-4.9 3.9-8.7 6.1-7.4 4.5-10.1 7.1-4.1 4 4.2-2.1 16.4-10.9 16.4-11.7 0-1.2-1.8-.4-3.6 1.6zM58 247.4c0 .6 12.8 8.6 13.7 8.6.3 0-2.2-2-5.8-4.5-5.9-4.1-7.9-5.2-7.9-4.1zM81.5 261c2.2 1.1 4.7 1.9 5.5 1.9 1.7-.1-3.2-2.3-7-3.3-1.4-.3-.7.3 1.5 1.4zm12 4.5c4.8 2 7.5 2.7 7.5 1.8 0-1.2-5.1-3.3-7.9-3.2-2.6.1-2.6.1.4 1.4zm57.3 8.2c1.8.2 4.5.2 6 0s0-.4-3.3-.4-4.5.2-2.7.4z"/></g><path fill="#7F00FF" d="M154.7 51.1c.7.7 1.5 1 1.8.7.3-.3-.2-.9-1.2-1.2-1.4-.6-1.5-.5-.6.5zm-14.4.6c.4.3 1 .3 1.4 0 .3-.4 0-.7-.7-.7s-1 .3-.7.7zm5 0c.4.3 1 .3 1.4 0 .3-.4 0-.7-.7-.7s-1 .3-.7.7zm20 0c.4.3 1 .3 1.4 0 .3-.4 0-.7-.7-.7s-1 .3-.7.7zM121.5 55c-.3.5.1 1 .9 1s1.8-.5 2.1-1c.3-.6-.1-1-.9-1s-1.8.4-2.1 1zm-13 3c-.3.5.1 1 1 1s1.3-.5 1-1c-.3-.6-.8-1-1-1-.2 0-.7.4-1 1zm140 36c.3.5.8 1 1.1 1 .3 0 .2-.5-.1-1-.3-.6-.8-1-1.1-1-.3 0-.2.4.1 1zM52.3 98.7c.4.3 1 .3 1.4 0 .3-.4 0-.7-.7-.7s-1 .3-.7.7zM254 102c0 .7.3 1 .7.7.3-.4.3-1 0-1.4-.4-.3-.7 0-.7.7zm-208.5 8c.3.5.8 1 1.1 1 .3 0 .2-.5-.1-1-.3-.6-.8-1-1.1-1-.3 0-.2.4.1 1zM39 122c0 .7.3 1 .7.7.3-.4.3-1 0-1.4-.4-.3-.7 0-.7.7zm-1.7 20.5c0 2.2.2 3 .4 1.7.2-1.2.2-3 0-4-.3-.9-.5.1-.4 2.3zM259 158c0 .7.3 1 .7.7.3-.4.3-1 0-1.4-.4-.3-.7 0-.7.7zm-4 10c0 .7.3 1 .7.7.3-.4.3-1 0-1.4-.4-.3-.7 0-.7.7zm-6.5 11c-1.6 1.7-1.6 2-.3 1.5.9-.4 1.9-1.3 2.2-2.1.7-1.9.2-1.8-1.9.6zm-177 27c.3.5.8 1 1.1 1 .3 0 .2-.5-.1-1-.3-.6-.8-1-1.1-1-.3 0-.2.4.1 1zm5.8 3.7c.4.3 1 .3 1.4 0 .3-.4 0-.7-.7-.7s-1 .3-.7.7zm8 5c.4.3 1 .3 1.4 0 .3-.4 0-.7-.7-.7s-1 .3-.7.7zm14.7 5.4c0 .5.5.7 1 .4.6-.3 1-.8 1-1.1 0-.2-.4-.4-1-.4-.5 0-1 .5-1 1.1zm9.5 3.9c.3.5 1.1 1 1.6 1 .6 0 .7-.5.4-1-.3-.6-1.1-1-1.6-1-.6 0-.7.4-.4 1zm15 1c.3.5.8 1 1.1 1 .3 0 .2-.5-.1-1-.3-.6-.8-1-1.1-1-.3 0-.2.4.1 1zm-9.2.7c.4.3 1 .3 1.4 0 .3-.4 0-.7-.7-.7s-1 .3-.7.7zm19.7 1.7c0 .2.7.7 1.6 1 .8.3 1.2.2.9-.4-.6-1-2.5-1.4-2.5-.6zm5.3 1.3c.4.3 1 .3 1.4 0 .3-.4 0-.7-.7-.7s-1 .3-.7.7z"/><path fill="#7FFFFF" d="M161.3 50.7c.4.3 1 .3 1.4 0 .3-.4 0-.7-.7-.7s-1 .3-.7.7zm-18.5 1c.7.3 1.6.2 1.9-.1.4-.3-.2-.6-1.3-.5-1.1 0-1.4.3-.6.6zm-13.3 1.2-3 .7 3.3.5c2.2.4 3.2.2 3.2-.8 0-.7-.1-1.2-.2-1.2-.2.1-1.6.4-3.3.8zm4.5 0c0 .6.5 1.3 1.2 1.7.6.4.8.3.4-.4-.3-.5 0-1.3.6-1.5.8-.3.6-.6-.4-.6-1-.1-1.8.3-1.8.8zm41.2.5c.7.8 1.5 1.2 1.7 1.1.5-.6-1-2.5-2-2.5-.5 0-.4.6.3 1.4zm-33.4.3c.7.3 1.6.2 1.9-.1.4-.3-.2-.6-1.3-.5-1.1 0-1.4.3-.6.6zM115 56c-2.8.9-2.6 1.2 1.2 1.4 1.5.1 2.5-.1 2.2-.5-.2-.4.4-1 1.3-1.2 1.5-.4 1.5-.5-.2-.5-1.1 0-3.1.4-4.5.8zm-4.5 2c.3.5.8 1 1.1 1 .2 0 .4-.5.4-1 0-.6-.5-1-1.1-1-.5 0-.7.4-.4 1zm-3.5 1.9c0 2.5.6 2.7 1.3.6.4-.8.2-1.7-.3-2-.6-.4-1 .3-1 1.4zm89.3-1.2c.4.3 1 .3 1.4 0 .3-.4 0-.7-.7-.7s-1 .3-.7.7zM199 60c0 .7.3 1 .7.7.3-.4.3-1 0-1.4-.4-.3-.7 0-.7.7zM96 64c0 .7.3 1 .7.7.3-.4.3-1 0-1.4-.4-.3-.7 0-.7.7zm-4.3 1.7c-1 .9-.9 2.3.1 2.3.5 0 .9-.7.9-1.5 0-1.7-.1-1.8-1-.8zm2.8.3c.3.5.8 1 1.1 1 .3 0 .2-.5-.1-1-.3-.6-.8-1-1.1-1-.3 0-.2.4.1 1zM87 69c0 .7.3 1 .7.7.3-.4.3-1 0-1.4-.4-.3-.7 0-.7.7zm137.5 3c-.3.5.1 1 1 1s1.3-.5 1-1c-.3-.6-.8-1-1-1-.2 0-.7.4-1 1zM77 73.1c0 .5.5.7 1 .4.6-.3 1-.8 1-1.1 0-.2-.4-.4-1-.4-.5 0-1 .5-1 1.1zm.6 3.4c-1.1.8-1.7 1.7-1.4 2 .2.3 1.3-.4 2.3-1.5 2.1-2.3 1.8-2.5-.9-.5zm154.8 2.7c-.5.7-.3.8.5.4.7-.5 2.2 0 3.4 1.1l2.2 1.8-1.9-2.3c-2.1-2.5-3.2-2.7-4.2-1zM71.3 81.7c.4.3 1 .3 1.4 0 .3-.4 0-.7-.7-.7s-1 .3-.7.7zm-2 1c.4.3.1 1.3-.6 2.2-1.1 1.4-1 1.4.5.2 1.6-1.2 1.6-3.1.1-3.1-.4 0-.3.3 0 .7zm-10.1 7.5c-1.4 1.4-1.6 3.8-.3 3.8 1.5 0 3-2.5 2.2-3.8-.5-.9-1-.9-1.9 0zm184.1 2.3c0 .7.6 1.1 1.4.8.7-.3 1.3-.6 1.3-.8 0-.2-.6-.5-1.3-.8-.8-.3-1.4.1-1.4.8zm3.3 4.2c-.6 1.4-.5 1.5.5.6.7-.7 1-1.5.7-1.8-.3-.3-.9.2-1.2 1.2zm2.9 2.3c-.3.6.1.7.9.4 1.8-.7 2.1-1.4.7-1.4-.6 0-1.3.4-1.6 1zm-197 1c.3.5.8 1 1.1 1 .3 0 .2-.5-.1-1-.3-.6-.8-1-1.1-1-.3 0-.2.4.1 1zm-2.5 1.9c0 .5.7 1.2 1.6 1.5 1.4.5 1.5.4.4-.9-1.4-1.7-2-1.9-2-.6zm-3 2.8c0 .6.8 1.7 1.8 2.4 1.6 1.3 1.6 1.3.2-.6-.8-1.1-1.6-2.2-1.7-2.4-.2-.2-.3 0-.3.6zm203 .3c0 .7.3 1 .7.7.3-.4.3-1 0-1.4-.4-.3-.7 0-.7.7zm4.6 6.9c-.4.5-.2 1.2.3 1.5.5.4 1.2.2 1.5-.3.4-.5.2-1.2-.3-1.5-.5-.4-1.2-.2-1.5.3zM207 113c0 .7.3 1 .7.7.3-.4.3-1 0-1.4-.4-.3-.7 0-.7.7zm-165.7 4.7c.4.3 1 .3 1.4 0 .3-.4 0-.7-.7-.7s-1 .3-.7.7zm.4 3.8c.3.8.9 1.2 1.4.9 1.2-.7 1.1-1.1-.5-1.7-1-.4-1.3-.1-.9.8zm213.7.7c-.4.7-.3.8.4.4 1.2-.7 1.6-1.6.8-1.6-.3 0-.8.5-1.2 1.2zm1.6 1.8c-.9.6-1 1-.3 1 .6 0 1.5-.5 1.8-1 .8-1.2.4-1.2-1.5 0zm4.5 1c.3.5.8 1 1.1 1 .2 0 .4-.5.4-1 0-.6-.5-1-1.1-1-.5 0-.7.4-.4 1zM38 127c0 .7.3 1 .7.7.3-.4.3-1 0-1.4-.4-.3-.7 0-.7.7zm219.8.2c.5.5 1.6.8 2.3.6.8-.3.3-.7-1-1.1-1.7-.4-2.1-.3-1.3.5zM42 129c0 .7.3 1 .7.7.3-.4.3-1 0-1.4-.4-.3-.7 0-.7.7zm216.5 2c.3.5.8 1 1.1 1 .3 0 .2-.5-.1-1-.3-.6-.8-1-1.1-1-.3 0-.2.4.1 1zM38 132c0 .5.5 1 1.1 1 .5 0 .7-.5.4-1-.3-.6-.8-1-1.1-1-.2 0-.4.4-.4 1zm-1 3.9c0 .6.4 1.3 1 1.6.6.3.7-.1.4-.9-.7-1.8-1.4-2.1-1.4-.7zm220.8 4.8c.7.3 1.6.2 1.9-.1.4-.3-.2-.6-1.3-.5-1.1 0-1.4.3-.6.6zm.7 5.3c-1.6.7-1.7.9-.3.9.9.1 2-.4 2.3-.9.7-1.1.7-1.1-2 0zm-121.4 4.6c0 1.1.3 1.4.6.6.3-.7.2-1.6-.1-1.9-.3-.4-.6.2-.5 1.3zm121.5-.9c.6.4 1.4 1.5 1.7 2.3.5 1.1.6.9.4-.4-.1-1.1-.9-2.1-1.7-2.3-1-.3-1.1-.2-.4.4zM41 151c0 .7.3 1 .7.7.3-.4.3-1 0-1.4-.4-.3-.7 0-.7.7zm198.3.7c.4.3 1 .3 1.4 0 .3-.4 0-.7-.7-.7s-1 .3-.7.7zM258 155c-.9.6-1 1-.3 1 .6 0 1.5-.5 1.8-1 .8-1.2.4-1.2-1.5 0zm-217.7.7c.4.3 1 .3 1.4 0 .3-.4 0-.7-.7-.7s-1 .3-.7.7zm.2 2.3c.3.5.8 1 1.1 1 .3 0 .2-.5-.1-1-.3-.6-.8-1-1.1-1-.3 0-.2.4.1 1zm216.5 3c0 .7.3 1 .7.7.3-.4.3-1 0-1.4-.4-.3-.7 0-.7.7zm-215.9 2.5c0 .5.6 1.8 1.3 2.8 1.2 1.6 1.4 1.6 2 .2.3-.9.2-1.3-.3-1-.6.3-1.4-.3-2-1.2-.6-1-1-1.4-1-.8zm55.9.5c0 .7.3 1 .7.7.3-.4.3-1 0-1.4-.4-.3-.7 0-.7.7zm157-.3c.8.3 1.8 1 2.1 1.5.3.5.9.3 1.1-.4.4-.9-.3-1.4-2.1-1.5-1.4-.1-1.9.1-1.1.4zM44.5 170c.3.5.8 1 1.1 1 .3 0 .2-.5-.1-1-.3-.6-.8-1-1.1-1-.3 0-.2.4.1 1zm1.9 5.2c-.4.7-.3.8.4.4 1.2-.7 1.6-1.6.8-1.6-.3 0-.8.5-1.2 1.2zm199.1 3.8c.3.5.8 1 1.1 1 .3 0 .2-.5-.1-1-.3-.6-.8-1-1.1-1-.3 0-.2.4.1 1zm-194 6c.3.5.8 1 1.1 1 .3 0 .2-.5-.1-1-.3-.6-.8-1-1.1-1-.3 0-.2.4.1 1zm191.1.3c.3 1 .9 1.5 1.2 1.2.3-.3 0-1.1-.7-1.8-1-.9-1.1-.8-.5.6zM239 191c0 .7.3 1 .7.7.3-.4.3-1 0-1.4-.4-.3-.7 0-.7.7zm-179.5 1c.3.5.8 1 1.1 1 .3 0 .2-.5-.1-1-.3-.6-.8-1-1.1-1-.3 0-.2.4.1 1zm2.9 2.2c-.4.7-.3.8.4.4 1.2-.7 1.6-1.6.8-1.6-.3 0-.8.5-1.2 1.2zm170.6.8c0 .5.5 1 1.1 1 .5 0 .7-.5.4-1-.3-.6-.8-1-1.1-1-.2 0-.4.4-.4 1zm-166.5 5c.3.5.8 1 1.1 1 .3 0 .2-.5-.1-1-.3-.6-.8-1-1.1-1-.3 0-.2.4.1 1zm3.4.7c-1.3 1.6-1.2 1.7.4.4.9-.7 1.7-1.5 1.7-1.7 0-.8-.8-.3-2.1 1.3zm159.4-1c.4.3 1 .3 1.4 0 .3-.4 0-.7-.7-.7s-1 .3-.7.7zm-8.9 3.5c-.4.7-.3.8.4.4 1.2-.7 1.6-1.6.8-1.6-.3 0-.8.5-1.2 1.2zm-2.9 2.8c-.3.5-.1 1 .4 1 .6 0 1.1-.5 1.1-1 0-.6-.2-1-.4-1-.3 0-.8.4-1.1 1zm-141.2.7c.4.3 1 .3 1.4 0 .3-.4 0-.7-.7-.7s-1 .3-.7.7zm3.3 1.5c.3.4.9.8 1.5.8.5 0 .9-.4.9-.8 0-.5-.7-.9-1.5-.9s-1.2.4-.9.9zm3.9 2.8c.3.5.8 1 1.1 1 .3 0 .2-.5-.1-1-.3-.6-.8-1-1.1-1-.3 0-.2.4.1 1zm124.1 1.3c.3 1 .9 1.5 1.2 1.2.3-.3 0-1.1-.7-1.8-1-.9-1.1-.8-.5.6zm-120.1 1.6c-.3.5-.2 1.2.3 1.5.5.3.9-.1.9-.9 0-1.7-.3-1.9-1.2-.6zm114 1.1c.3.5.8 1 1.1 1 .3 0 .2-.5-.1-1-.3-.6-.8-1-1.1-1-.3 0-.2.4.1 1zm-5.2 2.5c0 .8.4 1.5.9 1.5.4 0 .8-.4.8-.9 0-.6-.4-1.2-.8-1.5-.5-.3-.9.1-.9.9zm3.1-.3c-.4.7-.3.8.4.4 1.2-.7 1.6-1.6.8-1.6-.3 0-.8.5-1.2 1.2zm-105 1c-.4.7-.3.8.4.4 1.2-.7 1.6-1.6.8-1.6-.3 0-.8.5-1.2 1.2zm7.4 1c.5.5 1.6.8 2.3.6.8-.3.3-.7-1-1.1-1.7-.4-2.1-.3-1.3.5zm88 1.5c-1 .2-1.8.9-1.8 1.4 0 1.4 1.6 1.1 3-.6.7-.8 1.1-1.4.9-1.4-.2.1-1.2.3-2.1.6zM112 223c0 .7.3 1 .7.7.3-.4.3-1 0-1.4-.4-.3-.7 0-.7.7zm3.3-.3c.4.3 1 .3 1.4 0 .3-.4 0-.7-.7-.7s-1 .3-.7.7zm7.7 1.2c0 .6.4 1.3 1 1.6.6.3.7-.1.4-.9-.7-1.8-1.4-2.1-1.4-.7zm-5.2 1.8c.7.3 1.6.2 1.9-.1.4-.3-.2-.6-1.3-.5-1.1 0-1.4.3-.6.6zm9.7.3c.3.5.8 1 1.1 1 .3 0 .2-.5-.1-1-.3-.6-.8-1-1.1-1-.3 0-.2.4.1 1zm3.9.2c-.4.7-.3.8.4.4 1.2-.7 1.6-1.6.8-1.6-.3 0-.8.5-1.2 1.2zm26.4-.5c.7.3 1.6.2 1.9-.1.4-.3-.2-.6-1.3-.5-1.1 0-1.4.3-.6.6zm14.5 1c.4.3 1 .3 1.4 0 .3-.4 0-.7-.7-.7s-1 .3-.7.7zm-10 2c.4.3 1 .3 1.4 0 .3-.4 0-.7-.7-.7s-1 .3-.7.7zM150.5 275c-1.4.7-.8.8 2 .3 2.2-.3 4.2-.7 4.4-.9.9-.8-4.5-.2-6.4.6z"/><path fill="#FF0" d="M226.5 244c.3.5.8 1 1.1 1 .3 0 .2-.5-.1-1-.3-.6-.8-1-1.1-1-.3 0-.2.4.1 1z"/><path fill="#FFF" fill-opacity=".01" d="M291.1 174.6c0 1.1.3 1.4.6.6.3-.7.2-1.6-.1-1.9-.3-.4-.6.2-.5 1.3z"/><path fill="#BF0000" fill-opacity=".02" d="M294 157c0 .7.3 1 .7.7.3-.4.3-1 0-1.4-.4-.3-.7 0-.7.7z"/><path fill="#865D5D" fill-opacity=".36" d="M258.4 231.2c-.4.7-.3.8.4.4s1.2-.9 1.2-1.2c0-.8-.9-.4-1.6.8z"/><path fill-opacity=".06" d="M149.8 276.7c.7.3 1.6.2 1.9-.1.4-.3-.2-.6-1.3-.5-1.1 0-1.4.3-.6.6z"/><path fill-opacity=".04" d="M156.3 276.7c.4.3 1 .3 1.4 0 .3-.4 0-.7-.7-.7s-1 .3-.7.7z"/></svg>