<?xml version="1.0" encoding="utf-8"?>
<!-- Generator: Adobe Illustrator 25.0.0, SVG Export Plug-In . SVG Version: 6.00 Build 0)  -->
<svg version="1.1" id="Layer_1" xmlns="http://www.w3.org/2000/svg" xmlns:xlink="http://www.w3.org/1999/xlink" x="0px" y="0px"
	 viewBox="0 0 500 500" style="enable-background:new 0 0 500 500;" xml:space="preserve">
<style type="text/css">
	.st0{fill:#FA0F00;}
	.st1{fill:#FFFFFF;}
</style>
<g id="Experience_Cloud" transform="translate(1055 664)">
	<path id="_25" class="st0" d="M-1017.6-560.2c0-36.7,29.7-66.4,66.4-66.4h292.3c36.7,0,66.4,29.7,66.4,66.4v292.3
		c0,36.7-29.7,66.4-66.4,66.4h-292.3c-36.7,0-66.4-29.7-66.4-66.4V-560.2z"/>
	<path id="_13" class="st0" d="M-951.2-626.6h292.3c36.7,0,66.4,29.7,66.4,66.4v292.3c0,36.7-29.7,66.4-66.4,66.4h-292.3
		c-36.7,0-66.4-29.7-66.4-66.4v-292.3C-1017.6-596.9-987.9-626.6-951.2-626.6z"/>
	<path id="_26" class="st1" d="M-771.4-530.5l102.2,233h-72.5L-805-441.7l-38.5,87.9h45.2l24.7,56.3h-167.2l102.2-233H-771.4z"/>
</g>
</svg>
