<?xml version="1.0" encoding="utf-8"?>
<!-- Generator: Adobe Illustrator 27.6.0, SVG Export Plug-In . SVG Version: 6.00 Build 0)  -->
<svg version="1.1" id="Layer_1" xmlns="http://www.w3.org/2000/svg" xmlns:xlink="http://www.w3.org/1999/xlink" x="0px" y="0px"
	 viewBox="0 0 64 64" style="enable-background:new 0 0 64 64;" xml:space="preserve">
<style type="text/css">
	.st0{fill:#FA0F00;}
	.st1{fill:#FFFFFF;}
	.st2{font-family:'AdobeClean-ExtraBold';}
	.st3{font-size:14px;}
	.st4{fill:#820AD1;}
</style>
<g id="surface1">
	<path class="st0" d="M23,42.2c0-1.8,1.4-3.2,3.2-3.2h14c1.8,0,3.2,1.4,3.2,3.2v14c0,1.8-1.4,3.2-3.2,3.2h-14
		c-1.8,0-3.2-1.4-3.2-3.2V42.2z"/>
	<path class="st0" d="M26.2,39h14c1.8,0,3.2,1.4,3.2,3.2v14c0,1.8-1.4,3.2-3.2,3.2h-14c-1.8,0-3.2-1.4-3.2-3.2v-14
		C23,40.5,24.5,39,26.2,39z"/>
	<path class="st1" d="M34.9,43.7l4.9,11.2h-3.5l-3-6.9l-1.9,4.2h2.2l1.2,2.7h-8l4.9-11.2C31.6,43.7,34.9,43.7,34.9,43.7z"/>
</g>
<text transform="matrix(1 0 0 1 30.0488 34.6377)" class="st2 st3">+</text>
<path id="path2" class="st4" d="M22.9,5.9c1-1.1,2.4-1.7,4-1.7c3.1,0,5.2,2.3,5.6,5.7c0.1,1.1,0.1,2.7,0.1,4.5c0,0.2,0,0.4,0,0.6
	v6.7h-4.3v-5c0,0,0-4.3,0-5.1C28.1,8.1,26,5.9,22.9,5.9c-1,1-1.5,2.3-1.5,4.2c0,0.3,0,1.2,0,2.4c0,0.6,0,1.4,0,2.1c0,3.3,0,7,0,7
	h-4.3v-7.7c0-0.3,0-0.5,0-0.8c0-0.5,0-1.1,0-1.6c0-0.9,0.2-1.8,0.6-2.6c1-1.9,2.9-3.1,5-3.1C22.7,5.9,22.8,5.9,22.9,5.9L22.9,5.9z"
	/>
<path id="path4" class="st4" d="M49.3,14.7c0-0.5,0-1.1,0-1.6c0-0.3,0-0.5,0-0.8V4.6h-4.3c0,0,0,3.8,0,7c0,0.7,0,1.5,0,2.1
	c0,1.2,0,2.2,0,2.4c-0.1,1.9-0.6,3.1-1.5,4.1c-3.2,0-5.2-2.2-5.3-5.7c0-0.8,0-2.8,0-5.1v-5l-4.3,0v6.7c0,0.2,0,0.4,0,0.6
	c0,1.8,0,3.4,0.1,4.5c0.4,3.4,2.5,5.7,5.6,5.7c1.6,0,2.9-0.6,4-1.7c0.1,0,0.1,0,0.2,0c2.1,0,4-1.2,5-3.1
	C49.1,16.4,49.3,15.6,49.3,14.7L49.3,14.7z"/>
</svg>
