<?xml version="1.0" encoding="utf-8"?>
<!-- Generator: Adobe Illustrator 28.1.0, SVG Export Plug-In . SVG Version: 6.00 Build 0)  -->
<svg version="1.1" id="Layer_1" xmlns="http://www.w3.org/2000/svg" xmlns:xlink="http://www.w3.org/1999/xlink" x="0px" y="0px"
	 viewBox="0 0 64 64" style="enable-background:new 0 0 64 64;" xml:space="preserve">
<style type="text/css">
	.st0{fill:#231F20;}
	.st1{font-family:'AdobeClean-ExtraBold';}
	.st2{font-size:14px;}
	.st3{fill:#EB1000;}
	.st4{fill:#007AC1;}
</style>
<text transform="matrix(1 0 0 1 30.7104 32.5042)" class="st0 st1 st2">+</text>
<polygon class="st3" points="33.9,42.6 31.2,49.3 34.5,49.3 35.6,52.6 25.7,52.6 31.9,37.9 36.1,37.9 42.3,52.6 37.9,52.6 "/>
<g>
	<path class="st4" d="M55.9,17.6c0.2,0,0.3,0,0.4-0.1c0.1-0.1,0.1-0.2,0.1-0.4v-4.6c0-0.2,0-0.4-0.1-0.5c-0.1-0.1-0.2-0.1-0.4-0.1
		h-0.2v-0.3l1.8-0.1v5.7c0,0.3,0.1,0.5,0.2,0.5c0.1,0,0.2,0,0.3,0v0.4h-2.2L55.9,17.6L55.9,17.6z M53,15.9c0.2-0.1,0.5-0.3,0.9-0.3
		v0.7c0,0.4-0.1,0.7-0.2,0.8c-0.1,0.3-0.3,0.4-0.6,0.4c-0.1,0-0.3-0.1-0.3-0.2c-0.1-0.1-0.1-0.3-0.1-0.5
		C52.7,16.4,52.8,16.1,53,15.9 M52.2,14.2c0-0.1,0.1-0.2,0.3-0.3c0.2-0.1,0.4-0.2,0.6-0.2c0.6,0,0.8,0.3,0.8,0.8v0.7
		c-0.8,0.2-1.4,0.3-1.8,0.6c-0.5,0.3-0.7,0.6-0.7,1.1c0,0.3,0.1,0.5,0.3,0.8c0.2,0.3,0.6,0.4,1,0.4c0.3,0,0.5-0.1,0.7-0.2
		c0.2-0.1,0.4-0.3,0.5-0.5v0.2c0,0.2,0,0.3,0,0.4h1.6v-0.4h-0.1c-0.3,0-0.4-0.2-0.4-0.5v-2.1c0-1-0.6-1.5-1.7-1.5
		c-0.5,0-0.9,0.1-1.2,0.3c-0.3,0.2-0.5,0.5-0.5,0.8c0,0.2,0.1,0.4,0.2,0.5c0.1,0.1,0.3,0.2,0.4,0.2c0.2,0,0.3-0.1,0.5-0.2
		c0.1-0.1,0.2-0.2,0.2-0.4c0-0.4-0.2-0.5-0.6-0.5C52.3,14,52.2,14.1,52.2,14.2L52.2,14.2C52.2,14.2,52.2,14.2,52.2,14.2 M21.3,15.2
		c0.7,0,1.3-0.1,1.7-0.4c0.5-0.3,0.7-0.8,0.7-1.4c0-0.6-0.2-1.1-0.7-1.4c-0.4-0.3-1-0.4-1.7-0.4h-2.4v0.4c0.3,0,0.5,0,0.5,0.1
		c0.1,0.1,0.2,0.2,0.2,0.5V17c0,0.2,0,0.4-0.1,0.5c-0.1,0.1-0.2,0.1-0.5,0.1h-0.1v0.4h2.9v-0.4h-0.3c-0.2,0-0.4,0-0.5-0.1
		c-0.1-0.1-0.1-0.2-0.1-0.4v-1.8H21.3z M22.5,13.4c0,0.9-0.4,1.4-1.2,1.4h-0.4v-2.9h0.4C22.1,11.9,22.5,12.4,22.5,13.4 M25.6,14.4
		c0.2-0.7,0.5-1,1.1-1c0.2,0,0.4,0.1,0.5,0.2c0.1,0.1,0.2,0.3,0.2,0.4c0,0.2-0.1,0.3-0.2,0.4c-0.1,0.1-0.3,0.2-0.4,0.2
		c-0.2,0-0.3-0.1-0.4-0.2c-0.1-0.1-0.1-0.2-0.1-0.3c0,0,0,0,0-0.1c-0.2,0.2-0.3,0.6-0.4,1.1c-0.1,0.4-0.1,0.8-0.1,1.1v0.9
		c0,0.2,0,0.3,0.1,0.4c0.1,0.1,0.2,0.1,0.5,0.1h0.1v0.4H24v-0.4h0.1c0.2,0,0.3,0,0.4-0.1c0.1-0.1,0.1-0.2,0.1-0.4v-1.9
		c0-0.7,0-1-0.1-1.1c-0.1-0.1-0.2-0.2-0.3-0.2h-0.1v-0.4h1.5L25.6,14.4L25.6,14.4z M30.6,17.2C30.6,17.2,30.6,17.2,30.6,17.2
		L30.6,17.2c-0.1,0.2-0.2,0.4-0.4,0.6c-0.2,0.2-0.5,0.3-0.8,0.3c-0.5,0-0.9-0.1-1.1-0.4c-0.2-0.2-0.3-0.6-0.3-1v-1.9
		c0-0.4,0-0.7-0.1-0.7c-0.1-0.1-0.2-0.1-0.4-0.1h0v-0.4h1.7v3.3c0,0.4,0.2,0.6,0.5,0.6c0.3,0,0.5-0.2,0.6-0.6c0-0.2,0.1-0.4,0.1-0.7
		v-1.3c0-0.5,0-0.7-0.1-0.8c-0.1-0.1-0.2-0.1-0.4-0.1h-0.1v-0.4h1.8v3.3c0,0.4,0,0.6,0.1,0.6c0.1,0.1,0.2,0.1,0.3,0.1h0.1v0.4h-1.6
		L30.6,17.2L30.6,17.2L30.6,17.2L30.6,17.2L30.6,17.2z M34.2,13.4c-0.6,0-1.1,0.3-1.4,0.8c-0.3,0.5-0.5,1-0.5,1.6
		c0,0.6,0.1,1.2,0.4,1.6c0.3,0.5,0.8,0.8,1.4,0.8c0.3,0,0.6-0.1,0.9-0.3c0.2-0.2,0.3-0.3,0.4-0.5l0,0l0,0l0,0.7h1.6v-0.4h-0.1
		c-0.2,0-0.3,0-0.4-0.1c0-0.1-0.1-0.2-0.1-0.4v-5.7l-1.9,0.1v0.3h0.1c0.2,0,0.4,0.1,0.5,0.2c0,0.1,0.1,0.2,0.1,0.5
		c0,0.7,0,1.1,0,1.3C35,13.5,34.7,13.4,34.2,13.4 M35.2,15.2v0.9c0,0.2,0,0.5-0.1,0.6c-0.1,0.5-0.3,0.7-0.7,0.7
		c-0.5,0-0.8-0.6-0.8-1.8c0-0.5,0-0.9,0.1-1.2c0.1-0.5,0.3-0.7,0.7-0.7C34.9,13.8,35.2,14.3,35.2,15.2 M38.2,15.6h2.7
		c0-0.7-0.2-1.2-0.4-1.6c-0.3-0.4-0.8-0.7-1.5-0.7c-0.6,0-1.1,0.2-1.5,0.6c-0.4,0.4-0.6,1-0.6,1.7c0,0.7,0.2,1.3,0.5,1.7
		c0.4,0.5,0.9,0.7,1.6,0.7c0.5,0,1-0.2,1.3-0.6c0.3-0.3,0.5-0.7,0.5-1.1h-0.4c0,0.3-0.1,0.6-0.3,0.8c-0.2,0.3-0.5,0.4-0.9,0.4
		c-0.5,0-0.8-0.3-0.9-1C38.3,16.3,38.2,16,38.2,15.6 M39,13.7c0.5,0,0.7,0.5,0.7,1.5h-1.5c0-0.2,0-0.3,0-0.4
		C38.3,14.1,38.6,13.7,39,13.7 M42.7,14.1c0.1-0.2,0.3-0.4,0.5-0.5c0.2-0.1,0.5-0.2,0.7-0.2c0.9,0,1.3,0.5,1.3,1.4v2
		c0,0.2,0,0.4,0,0.4c0,0.2,0.2,0.3,0.4,0.3h0.1v0.4H44v-3.3c0-0.2,0-0.4-0.1-0.5C43.9,14,43.7,14,43.5,14c-0.2,0-0.4,0.1-0.5,0.3
		c-0.1,0.2-0.2,0.5-0.2,0.9v1.7c0,0.4,0,0.6,0.1,0.6c0.1,0.1,0.2,0.1,0.4,0.1h0.1v0.4h-2.3v-0.4h0.1c0.2,0,0.4-0.1,0.4-0.3
		c0-0.1,0-0.2,0-0.4v-2.2c0-0.3,0-0.6-0.1-0.6c0-0.1-0.2-0.1-0.3-0.1h-0.1v-0.4h1.6V14.1L42.7,14.1z M47.4,18.1
		c-0.7,0-1.1-0.4-1.1-1.3v-2.9h-0.8v-0.4h0.1c0.4,0,0.8-0.2,1.1-0.7c0.3-0.4,0.4-0.8,0.4-1.3h0.4v2h0.8v0.4h-0.8V17
		c0,0.4,0.1,0.5,0.3,0.5c0.2,0,0.3-0.2,0.4-0.5c0-0.1,0-0.4,0-0.7h0.4c0,0.6-0.1,1-0.2,1.2C48.3,17.9,48,18.1,47.4,18.1 M11.5,9.2
		c-3.1,0-5.2,2.6-5.2,5c0,1.4,0.3,2.1,0.7,2.7c0.5-1.2,1.4-3.7,1.4-3.7s0.4-0.2,0.4-0.2l0.6-1.6l0.4-0.2l0.5-1.1l1.1,0.2l2.2,1.2
		l2.5,0.7C15.5,10.6,13.7,9.2,11.5,9.2 M11.5,19.8c-1.4,0-3-0.5-4.2-1.9h8.4C14.7,19.1,13,19.8,11.5,19.8 M13.1,17.6h-0.8l1.4-1.8
		l0.1,0.3L13.1,17.6z M13.9,12l-2.4-1.4l-0.9-0.2V11l0.7,0.6l-1-0.1c0,0,0,0,0.8,0.9l3.6,0.6l0.6,0.4l-1.7,0.1L13,16.1l-2.2,1.5H9.3
		l0.5-1l-0.1,0l-1.3,1H8.1l1.4-1.9c0.1-0.5,0-0.3,0.1-1.3l-0.2-0.3l-0.5,2.1l-1.1,1.4H7.4l0.7-0.9L9,13.8l-0.2,0.1L8.4,15l-0.3,0.2
		c0,0-0.7,1.6-1,2.4C6.5,16.9,6,15.9,6,14.2c0-2.6,2.2-5.3,5.6-5.3c3.2,0,4.9,2.6,5.2,3.9L13.9,12L13.9,12z M15.5,15.7L15,16.1
		l-0.9,1.5h-0.6l0.6-1.1l0.5-0.4l0.7-1.9l0.7,0.3L15.5,15.7L15.5,15.7z M15.9,17.6h-1.2l1.2-1.8l0.4-1.2l0.7,0.3
		C16.9,15.7,16.6,16.7,15.9,17.6 M14.4,15.4L14,15.5l0.1-0.7L14,14.6l0.1-0.8l0.9,0.4L14.4,15.4z M49,17.6h0.1
		c0.2,0,0.3-0.1,0.3-0.2c0-0.1,0-0.3,0-0.6v-2.3c0-0.3,0-0.5-0.1-0.6c-0.1-0.1-0.2-0.1-0.3-0.1H49v-0.4h1.7v3.3c0,0.4,0,0.6,0.1,0.6
		c0.1,0.1,0.2,0.1,0.3,0.1h0.1v0.4H49V17.6z M49.3,12.3c0-0.2,0.1-0.4,0.2-0.5c0.1-0.1,0.3-0.2,0.5-0.2c0.2,0,0.4,0.1,0.5,0.2
		c0.1,0.1,0.2,0.3,0.2,0.5c0,0.2-0.1,0.4-0.2,0.5C50.4,12.9,50.2,13,50,13c-0.2,0-0.4-0.1-0.5-0.2C49.4,12.6,49.3,12.5,49.3,12.3"/>
</g>
</svg>
