<?xml version="1.0" encoding="utf-8"?>
<!-- Generator: Adobe Illustrator 27.6.0, SVG Export Plug-In . SVG Version: 6.00 Build 0)  -->
<svg version="1.1" id="Layer_1" xmlns="http://www.w3.org/2000/svg" xmlns:xlink="http://www.w3.org/1999/xlink" x="0px" y="0px"
	 viewBox="0 0 64 64" style="enable-background:new 0 0 64 64;" xml:space="preserve">
<style type="text/css">
	.st0{font-family:'AdobeClean-ExtraBold';}
	.st1{font-size:14px;}
	.st2{fill:#EB1000;}
	.st3{fill-rule:evenodd;clip-rule:evenodd;fill:#D61F27;}
</style>
<text transform="matrix(1 0 0 1 30.0488 34.6377)" class="st0 st1">+</text>
<polygon class="st2" points="33.4,45.4 30.7,52.1 34,52.1 35.1,55.4 25.2,55.4 31.4,40.7 35.6,40.7 41.8,55.4 37.4,55.4 "/>
<path class="st3" d="M31.2,7.8c2.3-0.6,2.6,0.8,2.5,1.6c-0.2,1.5-0.4,2-0.7,3.5c1.5-2.1,3.1-5.2,5.5-5.2C39,7.7,39.6,8,39.6,8
	c2,1.3,0.2,4.1-1.4,3.8c-0.9-0.1-1.1-0.7-1.2-1.6c-0.1-0.3-0.7-0.3-1.1,0.1c-1.7,1.9-2.9,4.5-2.9,4.5s-0.8,2.2-1.8,4
	c0,0-0.3,0.4-0.9,0.4l-2.2,0c-0.7-0.1-0.6-0.6-0.6-0.6s2.6-7.7,2.5-8.1c0-0.2,0-0.9-0.7-0.6c-0.9,0.4-0.9,1.1-1.9,1.8
	c0,0-0.5,0.2-0.5-0.3C27.4,10.5,29.3,8.3,31.2,7.8 M23.5,13.5c0-5.5,4.5-9.9,9.9-9.9s9.9,4.5,9.9,9.9s-4.5,9.9-9.9,9.9
	C28,23.4,23.5,19,23.5,13.5z"/>
</svg>
