<?xml version="1.0" encoding="utf-8"?>
<!-- Generator: Adobe Illustrator 27.4.1, SVG Export Plug-In . SVG Version: 6.00 Build 0)  -->
<svg version="1.1" id="Layer_1" xmlns="http://www.w3.org/2000/svg" xmlns:xlink="http://www.w3.org/1999/xlink" x="0px" y="0px"
	 viewBox="0 0 64 64" style="enable-background:new 0 0 64 64;" xml:space="preserve">
<style type="text/css">
	.st0{fill-rule:evenodd;clip-rule:evenodd;fill:#1E2044;}
	.st1{fill:#FA0F00;}
	.st2{fill:#FFFFFF;}
	.st3{font-family:'AdobeClean-ExtraBold';}
	.st4{font-size:14px;}
</style>
<g id="Desk">
	<g id="Home-Safra" transform="translate(-130.000000, -49.000000)">
		<g id="_x30_1.HEADER">
			<g id="HEADER" transform="translate(0.000000, 45.000000)">
				<g id="LOGO" transform="translate(130.000000, 4.000000)">
					<path id="Fill-1" class="st0" d="M28.42,14.91c0.03-0.84-0.66-1.61-2.11-1.64c-1.03-0.01-1.79,0.34-1.85,1.2
						c-0.06,0.71,0.18,0.85,0.65,1.04c0.24,0.26,2.18,0.57,2.57,0.64c0.56,0.1,1.78,0.36,2.42,1.02c1.18,1.25,0.63,3.71-0.65,4.55
						c-0.87,0.57-2.07,0.71-3.21,0.72c-0.52,0.02-1.76-0.17-2.52-0.72c-0.91-0.67-1.36-1.69-1.43-2.67h2.05
						c0,0.27,0.09,0.7,0.44,1.07c0.46,0.48,1.23,0.64,1.93,0.61c0.7-0.01,1.36-0.23,1.63-0.49c0.45-0.42,0.55-1.24,0.04-1.75
						c-0.68-0.71-2.7-0.71-4.02-1.17c-1.11-0.38-2.03-1.2-1.86-2.87c0.17-1.65,1.35-2.87,3.85-2.87c0.55,0,2.46,0.04,3.46,1.32
						c0.53,0.7,0.67,1.66,0.59,2H28.42z"/>
					<path id="Fill-3" class="st0" d="M35.98,18.49c-0.56,0.34-1.32,0.31-1.83,0.41c-0.6,0.11-1.03,0.63-0.86,1.25
						c0.11,0.45,0.46,0.78,1.31,0.64c1.17-0.19,1.38-1.01,1.38-1.86V18.49z M36.2,22.12c-0.14-0.18-0.23-0.5-0.21-0.77
						c-0.69,0.65-1.29,1.09-2.45,1.09c-1.55,0-2.31-0.88-2.25-2.37c0.04-1.08,0.46-2.13,2.21-2.43c0.73-0.03,1.52-0.2,1.98-0.35
						c0.35-0.13,0.52-0.5,0.49-0.87c0-0.48-0.4-0.7-1.29-0.7c-1.13,0-1.27,0.7-1.29,1.25h-1.86c0.03-2.46,2.11-2.69,3.15-2.69
						c0.76,0,1.42,0.13,1.8,0.28c0.76,0.31,1.36,0.94,1.36,2.16v4.21c-0.01,0.34,0.18,0.68,0.44,0.91v0.27H36.2z"/>
					<path id="Fill-5" class="st0" d="M38.62,14.57h1.07v-0.9c0-1.15,0.58-1.92,1.86-1.92h1.23v1.48h-0.69
						c-0.27,0-0.42,0.17-0.42,0.53v0.81h1.17v1.32h-1.17v6.23h-1.97v-6.23h-1.07V14.57z"/>
					<path id="Fill-7" class="st0" d="M43.68,14.41h1.97v1.5h0.03c0.13-0.46,0.22-0.73,0.91-1.21c0.34-0.26,0.79-0.51,1.41-0.41
						v2.03c-0.84-0.1-2.11-0.21-2.35,1.47v4.34h-1.97V14.41z"/>
					<path id="Fill-9" class="st0" d="M53.02,18.49c-0.56,0.34-1.32,0.31-1.83,0.41c-0.61,0.11-1.03,0.63-0.86,1.25
						c0.11,0.45,0.47,0.78,1.31,0.64c1.17-0.19,1.38-1.01,1.38-1.86V18.49z M53.25,22.12c-0.14-0.18-0.23-0.5-0.21-0.77
						c-0.69,0.65-1.29,1.09-2.45,1.09c-1.55,0-2.31-0.88-2.25-2.37c0.04-1.08,0.46-2.13,2.21-2.43c0.73-0.03,1.52-0.2,1.98-0.35
						c0.35-0.13,0.52-0.5,0.49-0.87c0-0.48-0.39-0.7-1.29-0.7c-1.13,0-1.27,0.7-1.29,1.25h-1.86c0.03-2.46,2.11-2.69,3.15-2.69
						c0.76,0,1.42,0.13,1.8,0.28c0.76,0.31,1.36,0.94,1.36,2.16v4.21c-0.01,0.34,0.18,0.68,0.44,0.91v0.27H53.25z"/>
					<path id="Fill-12" class="st0" d="M12.02,17.86c-0.03-0.71-0.3-1.14-0.56-1.39h0c0.35,0,0.83,0.3,0.83,0.79
						C12.29,17.52,12.2,17.72,12.02,17.86L12.02,17.86z M10.85,19.21v-0.68c0.25-0.01,0.48-0.03,0.68-0.07
						C11.43,18.93,11.17,19.15,10.85,19.21L10.85,19.21z M9.9,18.42c0.13,0.04,0.29,0.08,0.49,0.1v0.68
						C10.14,19.11,9.93,18.86,9.9,18.42L9.9,18.42z M9.9,16.46h0.5v1.64c-0.19-0.02-0.35-0.07-0.5-0.13V16.46z M9.11,15.37
						c0-0.25,0.11-0.46,0.33-0.61v1.2C9.24,15.83,9.11,15.61,9.11,15.37L9.11,15.37z M10.39,13.47v0.62c-0.17,0-0.33,0.02-0.48,0.05
						C9.97,13.84,10.15,13.58,10.39,13.47L10.39,13.47z M11.36,14.24c-0.14-0.05-0.31-0.1-0.52-0.13v-0.67
						C11.09,13.53,11.29,13.78,11.36,14.24L11.36,14.24z M10.85,16.03v-1.51c0.19,0.03,0.37,0.07,0.54,0.14
						C11.37,15.31,11.04,15.92,10.85,16.03L10.85,16.03z M9.9,14.56c0.15-0.04,0.31-0.06,0.5-0.06v1.55H9.9V14.56z M11.57,18.05
						c-0.2,0.05-0.44,0.07-0.72,0.07v-1.65c0.21,0.05,0.72,0.55,0.72,1.53C11.57,18.02,11.57,18.03,11.57,18.05L11.57,18.05z
						 M11.39,16.05h-0.02c0.23-0.28,0.41-0.73,0.46-1.18c0.16,0.1,0.3,0.21,0.42,0.33c0.06,0.06,0.09,0.09,0.14,0.09
						c0.09,0,0.14-0.08,0.09-0.15c-0.12-0.2-0.17-0.37-0.17-0.58c0-0.14,0.05-0.26,0.08-0.34c0.03-0.08,0-0.15-0.09-0.15
						c-0.08,0-0.09,0.06-0.12,0.11c-0.06,0.1-0.17,0.19-0.34,0.2c-0.07-0.82-0.48-1.23-0.91-1.34c0.15-0.37,0.54-0.6,1.04-0.7
						c0.08-0.02,0.14-0.05,0.14-0.11c0-0.08-0.06-0.11-0.14-0.11c-0.17,0-0.41,0.09-0.6,0.15c-0.3,0.09-0.56,0.15-0.78,0.15
						c-0.48,0-0.9-0.21-1.04-0.21c-0.06,0-0.11,0.05-0.11,0.11c0,0.05,0.03,0.09,0.12,0.12c0.4,0.13,0.66,0.34,0.78,0.62
						c-0.24,0.09-0.44,0.27-0.57,0.5C9.6,13.24,9.39,13.1,9.1,13.1c-0.29,0-0.51,0.21-0.51,0.47c0,0.18,0.12,0.32,0.26,0.32
						c0.06,0,0.09-0.03,0.09-0.08c0-0.06-0.03-0.08-0.03-0.17s0.08-0.17,0.2-0.17c0.18,0,0.35,0.18,0.35,0.69v0.13
						c-0.47,0.21-0.78,0.59-0.78,1.09c0,0.52,0.34,0.91,0.78,1.04v1.28c-0.34-0.27-0.53-0.63-0.65-0.89
						c-0.03-0.06-0.06-0.14-0.14-0.14c-0.09,0-0.12,0.09-0.08,0.2c0.05,0.11,0.08,0.27,0.08,0.43c0,0.18-0.06,0.35-0.18,0.47
						c-0.06,0.06-0.11,0.11-0.11,0.15c0,0.06,0.05,0.09,0.09,0.09c0.09,0,0.2-0.11,0.39-0.11c0.12,0,0.27,0.06,0.51,0.21
						c0.03,0.02,0.05,0.03,0.08,0.05v0.18v0.21c0,0.21-0.09,0.35-0.27,0.35c-0.12,0-0.2-0.09-0.2-0.21c0-0.09,0.06-0.12,0.06-0.17
						c0-0.05-0.03-0.08-0.09-0.08c-0.09,0-0.24,0.14-0.24,0.37c0,0.21,0.15,0.47,0.47,0.47c0.18,0,0.35-0.06,0.5-0.21
						c0.15,0.24,0.4,0.45,0.69,0.53c-0.08,0.4-0.35,0.73-0.74,0.73c-0.2,0-0.3-0.11-0.3-0.24c0-0.11,0.08-0.17,0.14-0.2
						c0.08-0.03,0.14-0.05,0.14-0.14c0-0.05-0.03-0.11-0.18-0.11c-0.27,0-0.5,0.24-0.5,0.53c0,0.32,0.23,0.62,0.69,0.62
						c0.4,0,0.74-0.2,0.96-0.45c0.26,0.21,0.65,0.39,0.84,0.39c0.06,0,0.12-0.03,0.12-0.09s-0.06-0.11-0.12-0.14
						c-0.35-0.18-0.57-0.44-0.57-0.9v-0.01c0.54-0.1,1.04-0.54,1.15-1.3c0.49-0.21,0.75-0.57,0.75-1.07
						C12.74,16.54,12.08,16.05,11.39,16.05L11.39,16.05z M13.95,20.35c-0.53,0-0.87-0.3-0.87-0.76c0-0.38,0.26-0.69,0.56-0.69
						c0.12,0,0.23,0.05,0.23,0.17c0,0.08-0.03,0.14,0.05,0.14c0.05,0,0.09-0.05,0.09-0.17c0-0.15-0.14-0.27-0.33-0.27h-0.05
						c0.03-0.06,0.03-0.12,0.03-0.14c0-0.14-0.11-0.21-0.21-0.21c-0.11,0-0.21,0.06-0.21,0.14c0,0.03,0.02,0.05,0.05,0.05
						c0.05,0,0.06-0.05,0.14-0.05c0.06,0,0.11,0.03,0.11,0.11c0,0.11-0.09,0.15-0.17,0.2c-0.24,0.14-0.41,0.41-0.41,0.73
						c0,0.43,0.24,0.7,0.59,0.82l-0.23,0.35c-0.3,0-0.45,0.23-0.72,0.72c-0.03-0.12-0.12-0.21-0.27-0.21
						c-0.17,0-0.27,0.12-0.27,0.29c0,0.05,0.03,0.08,0.06,0.08c0.05,0,0.08-0.03,0.08-0.08c0-0.08,0.05-0.15,0.14-0.15
						c0.11,0,0.15,0.08,0.15,0.17c0,0.11-0.02,0.17-0.09,0.29c-0.32,0.52-0.75,0.78-1.13,0.78c-0.33,0-0.53-0.2-0.53-0.4
						c0-0.18,0.11-0.34,0.29-0.34c0.12,0,0.2,0.08,0.2,0.18c0,0.09-0.08,0.09-0.08,0.14c0,0.03,0.03,0.05,0.06,0.05
						c0.09,0,0.15-0.11,0.15-0.21c0-0.17-0.14-0.29-0.33-0.29c-0.18,0-0.33,0.12-0.38,0.24c-0.05-0.12-0.2-0.24-0.38-0.24
						c-0.2,0-0.33,0.12-0.33,0.29c0,0.11,0.06,0.21,0.15,0.21c0.03,0,0.06-0.02,0.06-0.05c0-0.05-0.08-0.05-0.08-0.14
						c0-0.11,0.08-0.18,0.2-0.18c0.18,0,0.29,0.15,0.29,0.34c0,0.2-0.2,0.4-0.53,0.4c-0.38,0-0.81-0.26-1.13-0.78
						c-0.08-0.12-0.09-0.18-0.09-0.29c0-0.09,0.05-0.17,0.15-0.17c0.09,0,0.14,0.08,0.14,0.15c0,0.05,0.03,0.08,0.08,0.08
						c0.03,0,0.06-0.03,0.06-0.08c0-0.17-0.11-0.29-0.27-0.29c-0.15,0-0.24,0.09-0.27,0.21c-0.27-0.49-0.42-0.72-0.72-0.72
						l-0.23-0.35c0.35-0.12,0.59-0.4,0.59-0.82c0-0.32-0.17-0.59-0.41-0.73c-0.08-0.05-0.17-0.09-0.17-0.2
						c0-0.08,0.05-0.11,0.11-0.11c0.08,0,0.09,0.05,0.14,0.05c0.03,0,0.05-0.02,0.05-0.05c0-0.08-0.11-0.14-0.21-0.14
						s-0.21,0.08-0.21,0.21c0,0.02,0,0.08,0.03,0.14H7.58c-0.2,0-0.33,0.12-0.33,0.27c0,0.12,0.05,0.17,0.09,0.17
						c0.08,0,0.05-0.06,0.05-0.14c0-0.12,0.11-0.17,0.23-0.17c0.3,0,0.56,0.3,0.56,0.69c0,0.46-0.35,0.76-0.87,0.76
						c-0.62,0-1.08-0.46-1.08-1.1c0-0.62,0.36-1.05,0.77-1.43l0.35-0.34c0.44-0.41,0.62-0.84,0.62-1.37c0-0.58-0.35-1.22-1.07-1.54
						c0.15-0.05,0.24-0.2,0.24-0.38c0-0.12-0.05-0.2-0.05-0.29c0-0.18,0.11-0.29,0.26-0.29c0.14,0,0.23,0.11,0.23,0.21
						c0,0.09-0.06,0.17-0.17,0.17c-0.05,0-0.08,0-0.08,0.05c0,0.05,0.05,0.06,0.11,0.06c0.18,0,0.27-0.15,0.27-0.23
						c0.03,0.02,0.06,0.03,0.11,0.03c0.11,0,0.18-0.08,0.18-0.18c0-0.03-0.02-0.08-0.06-0.08c-0.03,0-0.05,0.03-0.05,0.06
						c0,0.05-0.03,0.08-0.08,0.08c-0.06,0-0.11-0.05-0.14-0.11c-0.06-0.11-0.18-0.2-0.33-0.2c-0.2,0-0.35,0.14-0.38,0.32
						c-0.09-0.09-0.2-0.18-0.35-0.27c0.12-0.08,0.23-0.14,0.35-0.23c0.18-0.14,0.35-0.29,0.53-0.49l0.83-0.91
						c0.72-0.81,1.19-1.01,1.64-1.01c0.39,0,0.59,0.2,0.59,0.43c0,0.17-0.07,0.29-0.18,0.35c-0.06-0.07-0.11-0.16-0.13-0.26
						c-0.02-0.08-0.03-0.08-0.05-0.08c-0.03,0-0.03,0.03-0.03,0.06c0,0.13,0.03,0.24,0.08,0.32c-0.02,0-0.03,0-0.05,0
						c-0.15,0-0.24-0.08-0.24-0.17c0-0.02,0-0.05,0.03-0.08c0.03-0.03,0.02-0.05,0-0.05c-0.06,0-0.12,0.08-0.12,0.17
						c0,0.11,0.09,0.26,0.35,0.26c0.04,0,0.09,0,0.14-0.02c0.08,0.07,0.19,0.1,0.29,0.1c0.1,0,0.21-0.03,0.29-0.1
						c0.05,0.02,0.1,0.02,0.14,0.02c0.26,0,0.35-0.15,0.35-0.26c0-0.09-0.06-0.17-0.12-0.17c-0.02,0-0.03,0.02,0,0.05
						s0.03,0.06,0.03,0.08c0,0.09-0.09,0.17-0.24,0.17c-0.02,0-0.03,0-0.05,0c0.05-0.08,0.08-0.19,0.08-0.32
						c0-0.03,0-0.06-0.03-0.06c-0.02,0-0.03,0-0.05,0.08c-0.02,0.11-0.07,0.2-0.13,0.26c-0.11-0.06-0.18-0.19-0.18-0.35
						c0-0.23,0.2-0.43,0.59-0.43c0.45,0,0.92,0.2,1.64,1.01l0.83,0.91c0.17,0.2,0.35,0.35,0.53,0.49c0.12,0.09,0.23,0.15,0.35,0.23
						c-0.15,0.09-0.26,0.18-0.35,0.27c-0.03-0.18-0.18-0.32-0.38-0.32c-0.15,0-0.27,0.09-0.33,0.2c-0.03,0.06-0.08,0.11-0.14,0.11
						c-0.05,0-0.08-0.03-0.08-0.08c0-0.03-0.02-0.06-0.05-0.06c-0.05,0-0.06,0.05-0.06,0.08c0,0.11,0.08,0.18,0.18,0.18
						c0.05,0,0.08-0.02,0.11-0.03c0,0.08,0.09,0.23,0.27,0.23c0.06,0,0.11-0.02,0.11-0.06C13.93,14,13.9,14,13.86,14
						c-0.11,0-0.17-0.06-0.17-0.17s0.09-0.21,0.23-0.21c0.15,0,0.26,0.11,0.26,0.29c0,0.09-0.05,0.17-0.05,0.29
						c0,0.18,0.09,0.34,0.24,0.38c-0.72,0.32-1.07,0.96-1.07,1.54c0,0.53,0.18,0.96,0.62,1.37l0.35,0.34
						c0.41,0.38,0.77,0.81,0.77,1.43C15.03,19.89,14.57,20.35,13.95,20.35L13.95,20.35z M10.62,23.18c-0.12-0.24-0.26-0.4-0.32-0.47
						c0.15-0.06,0.26-0.17,0.32-0.29c0.06,0.12,0.17,0.23,0.32,0.29C10.88,22.78,10.74,22.94,10.62,23.18L10.62,23.18z M10.77,11.75
						c-0.05,0.02-0.1,0.03-0.15,0.03c-0.05,0-0.11-0.01-0.15-0.03c0.06-0.05,0.11-0.11,0.15-0.21
						C10.66,11.64,10.71,11.71,10.77,11.75L10.77,11.75z M15.27,18.6c-0.09,0-0.17,0.05-0.2,0.11c-0.12-0.27-0.24-0.53-0.77-1.02
						c0.03,0.02,0.14,0.03,0.21,0.03c0.17,0,0.35-0.05,0.45-0.15c0.03,0.11,0.12,0.17,0.23,0.17c0.17,0,0.23-0.11,0.23-0.23
						c0-0.05-0.02-0.09-0.06-0.09c-0.09,0-0.02,0.18-0.17,0.18c-0.06,0-0.11-0.05-0.11-0.12c0-0.08,0.05-0.17,0.05-0.27
						c0-0.24-0.15-0.41-0.33-0.46c-0.11-0.03-0.17-0.11-0.17-0.2c0-0.12,0.09-0.14,0.15-0.14c0.06,0,0.11,0.02,0.11-0.03
						c0-0.05-0.05-0.08-0.14-0.08c-0.11,0-0.26,0.08-0.26,0.24c0,0.06,0.02,0.12,0.08,0.18c-0.14,0.03-0.26,0.14-0.26,0.3
						c0,0.11,0.03,0.21,0.11,0.21c0.09,0,0.02-0.08,0.02-0.2c0-0.14,0.12-0.2,0.24-0.2c0.17,0,0.32,0.15,0.32,0.35
						c0,0.23-0.18,0.38-0.47,0.38c-0.17,0-0.41-0.03-0.6-0.26c-0.32-0.35-0.5-0.65-0.5-1.2c0-0.7,0.5-1.31,1.22-1.51
						c0.15-0.05,0.27-0.18,0.27-0.37c0-0.15-0.09-0.27-0.24-0.27c-0.06,0-0.11,0.02-0.11,0.06s0.05,0.05,0.08,0.05
						c0.06,0,0.14,0.06,0.14,0.17c0,0.15-0.12,0.24-0.26,0.24c-0.17,0-0.27-0.12-0.27-0.29c0-0.32,0.38-0.53,0.66-0.67
						c-0.26-0.12-0.35-0.17-0.54-0.32c-0.05-0.05-0.06-0.09-0.06-0.15c0-0.08,0.05-0.14,0.11-0.14c0.05,0,0.08,0.03,0.08,0.08
						s-0.03,0.05-0.03,0.08c0,0.03,0.02,0.05,0.05,0.05c0.03,0,0.11-0.03,0.11-0.15c0-0.09-0.06-0.18-0.2-0.18
						c-0.14,0-0.24,0.11-0.24,0.26c-0.11-0.09-0.23-0.2-0.33-0.32l-0.48-0.53c-0.14-0.15-0.06-0.44,0.14-0.44
						c0.11,0,0.15,0.08,0.15,0.14c0,0.14-0.14,0.08-0.14,0.15c0,0.03,0.02,0.06,0.06,0.06c0.11,0,0.21-0.08,0.21-0.23
						c0-0.14-0.12-0.26-0.29-0.26c-0.2,0-0.33,0.15-0.33,0.37l-0.15-0.17c-0.66-0.73-1.2-1.05-1.73-1.05c-0.2,0-0.38,0.06-0.48,0.14
						c-0.09-0.11-0.14-0.18-0.2-0.27c-0.06,0.09-0.11,0.17-0.2,0.27c-0.11-0.08-0.29-0.14-0.48-0.14c-0.53,0-1.07,0.32-1.73,1.05
						l-0.15,0.17c0-0.21-0.14-0.37-0.33-0.37c-0.17,0-0.29,0.12-0.29,0.26c0,0.15,0.11,0.23,0.21,0.23c0.05,0,0.06-0.03,0.06-0.06
						c0-0.08-0.14-0.02-0.14-0.15c0-0.06,0.05-0.14,0.15-0.14c0.2,0,0.27,0.29,0.14,0.44l-0.48,0.53c-0.11,0.12-0.23,0.23-0.33,0.32
						c0-0.15-0.11-0.26-0.24-0.26c-0.14,0-0.2,0.09-0.2,0.18c0,0.12,0.08,0.15,0.11,0.15c0.03,0,0.05-0.02,0.05-0.05
						c0-0.03-0.03-0.03-0.03-0.08s0.03-0.08,0.08-0.08c0.06,0,0.11,0.06,0.11,0.14c0,0.06-0.02,0.11-0.06,0.15
						c-0.18,0.18-0.29,0.2-0.54,0.32c0.29,0.14,0.66,0.35,0.66,0.67c0,0.17-0.11,0.29-0.27,0.29c-0.14,0-0.26-0.09-0.26-0.24
						c0-0.11,0.08-0.17,0.14-0.17c0.03,0,0.08,0,0.08-0.05s-0.05-0.06-0.11-0.06c-0.15,0-0.24,0.12-0.24,0.27
						c0,0.18,0.12,0.32,0.27,0.37c0.72,0.21,1.22,0.81,1.22,1.51c0,0.55-0.2,0.84-0.5,1.2c-0.2,0.23-0.44,0.26-0.6,0.26
						c-0.29,0-0.47-0.15-0.47-0.38c0-0.2,0.15-0.35,0.32-0.35c0.12,0,0.24,0.06,0.24,0.2c0,0.12-0.08,0.2,0.02,0.2
						c0.08,0,0.11-0.11,0.11-0.21c0-0.17-0.12-0.27-0.26-0.3c0.06-0.06,0.08-0.12,0.08-0.18c0-0.17-0.15-0.24-0.26-0.24
						c-0.09,0-0.14,0.03-0.14,0.08c0,0.05,0.05,0.03,0.11,0.03s0.15,0.02,0.15,0.14c0,0.09-0.06,0.17-0.17,0.2
						c-0.18,0.05-0.33,0.21-0.33,0.46c0,0.11,0.05,0.2,0.05,0.27c0,0.08-0.05,0.12-0.11,0.12c-0.15,0-0.08-0.18-0.17-0.18
						c-0.05,0-0.06,0.05-0.06,0.09c0,0.12,0.06,0.23,0.23,0.23c0.11,0,0.2-0.06,0.23-0.17c0.11,0.11,0.29,0.15,0.45,0.15
						c0.08,0,0.18-0.02,0.21-0.03c-0.53,0.49-0.65,0.75-0.77,1.02c-0.03-0.06-0.11-0.11-0.2-0.11c-0.15,0-0.23,0.09-0.23,0.23
						c0,0.03,0,0.12,0.08,0.12c0.06,0,0.03-0.06,0.03-0.11c0-0.06,0.05-0.11,0.12-0.11c0.12,0,0.15,0.11,0.12,0.27
						c-0.02,0.08-0.02,0.17-0.02,0.24c0,0.72,0.53,1.23,1.22,1.23c0.11,0,0.2-0.02,0.3-0.03l0.21,0.32
						c-0.15,0.05-0.26,0.18-0.26,0.34c0,0.2,0.15,0.35,0.35,0.35c0.12,0,0.21-0.06,0.21-0.12c0-0.05-0.03-0.06-0.06-0.06
						C8,21.28,8,21.32,7.89,21.32c-0.12,0-0.21-0.09-0.21-0.21c0-0.12,0.11-0.21,0.26-0.21c0.29,0,0.42,0.34,0.62,0.67l0.2,0.34
						c0.32,0.55,0.83,0.87,1.25,0.87c0.06,0,0.12,0,0.18-0.02c0.18,0.18,0.36,0.52,0.44,0.67c0.08-0.15,0.26-0.49,0.44-0.67
						c0.06,0.02,0.12,0.02,0.18,0.02c0.42,0,0.93-0.32,1.25-0.87l0.2-0.34c0.2-0.34,0.33-0.67,0.62-0.67c0.15,0,0.26,0.09,0.26,0.21
						c0,0.12-0.09,0.21-0.21,0.21c-0.11,0-0.11-0.05-0.15-0.05c-0.03,0-0.06,0.02-0.06,0.06c0,0.06,0.09,0.12,0.21,0.12
						c0.2,0,0.35-0.15,0.35-0.35c0-0.15-0.11-0.29-0.26-0.34l0.21-0.32c0.11,0.02,0.2,0.03,0.3,0.03c0.69,0,1.22-0.52,1.22-1.23
						c0-0.08,0-0.17-0.02-0.24c-0.03-0.17,0-0.27,0.12-0.27c0.08,0,0.12,0.05,0.12,0.11c0,0.05-0.03,0.11,0.03,0.11
						c0.08,0,0.08-0.09,0.08-0.12C15.5,18.69,15.43,18.6,15.27,18.6L15.27,18.6z M14.88,21.22c-0.66,0.69-1.64,1.17-2.58,1.63
						c-0.62,0.3-1.22,0.61-1.69,0.97c-0.47-0.37-1.07-0.67-1.69-0.97C8,22.39,7.02,21.9,6.36,21.22c-0.84-0.87-1.25-1.75-1.25-2.76
						c0-0.85,0.33-1.57,1.08-2.53c0.06-0.08,0.12-0.15,0.12-0.21c0-0.06-0.06-0.18-0.09-0.24L5.7,14.32
						c-0.12-0.26-0.24-0.5-0.24-0.76c0-0.21,0.14-0.37,0.32-0.52l0.75-0.69c0.03-0.03,0.03-0.08,0.02-0.11l-0.24-0.5
						c-0.03-0.06-0.03-0.11,0.02-0.14c0.74-0.5,1.36-0.65,2.24-0.9c0.84-0.23,1.6-0.43,2.06-0.73c0.47,0.3,1.22,0.5,2.06,0.73
						c0.89,0.24,1.49,0.43,2.24,0.9c0.05,0.03,0.05,0.08,0.02,0.14l-0.24,0.5c-0.02,0.03-0.02,0.08,0.02,0.11l0.75,0.69
						c0.18,0.15,0.32,0.3,0.32,0.52c0,0.26-0.12,0.5-0.24,0.76l-0.53,1.16c-0.03,0.06-0.09,0.18-0.09,0.24
						c0,0.06,0.06,0.14,0.12,0.21c0.81,0.91,1.08,1.68,1.08,2.53C16.13,19.46,15.73,20.35,14.88,21.22L14.88,21.22z M15.59,15.98
						c-0.14-0.17-0.21-0.24-0.21-0.3c0-0.06,0.05-0.15,0.09-0.26l0.45-1.01c0.14-0.3,0.26-0.56,0.26-0.88
						c0-0.23-0.09-0.46-0.32-0.65l-0.65-0.56c-0.06-0.05-0.06-0.12-0.03-0.18l0.24-0.55c0.02-0.03,0.02-0.08-0.03-0.11
						c-0.74-0.5-1.58-0.81-2.38-1.04c-0.8-0.21-1.87-0.52-2.39-0.93c-0.53,0.41-1.6,0.7-2.39,0.93c-0.8,0.23-1.64,0.53-2.38,1.04
						C5.8,11.5,5.8,11.54,5.82,11.57l0.24,0.55c0.03,0.06,0.03,0.14-0.03,0.18l-0.65,0.56c-0.23,0.2-0.32,0.43-0.32,0.65
						c0,0.32,0.12,0.58,0.26,0.88l0.45,1.01c0.05,0.11,0.09,0.2,0.09,0.26c0,0.06-0.08,0.14-0.21,0.3
						c-0.68,0.85-0.95,1.55-0.95,2.48c0,1.29,0.63,2.28,1.36,3.03c0.74,0.76,1.76,1.26,2.7,1.72c0.62,0.3,1.27,0.61,1.87,1.1
						c0.6-0.49,1.25-0.79,1.87-1.1c0.93-0.46,1.97-0.96,2.7-1.72c0.72-0.75,1.36-1.74,1.36-3.03
						C16.54,17.53,16.27,16.83,15.59,15.98L15.59,15.98z"/>
				</g>
			</g>
		</g>
	</g>
</g>
<g id="surface1">
	<path class="st1" d="M23.05,42.24c0-1.76,1.43-3.18,3.18-3.18h14.03c1.76,0,3.19,1.43,3.19,3.18v14.03c0,1.76-1.43,3.19-3.19,3.19
		H26.23c-1.76,0-3.18-1.43-3.18-3.19V42.24z"/>
	<path class="st1" d="M26.23,39.05h14.03c1.76,0,3.19,1.43,3.19,3.18v14.03c0,1.76-1.43,3.19-3.19,3.19H26.23
		c-1.76,0-3.18-1.43-3.18-3.19V42.24C23.05,40.48,24.48,39.05,26.23,39.05z"/>
	<path class="st2" d="M34.87,43.66l4.91,11.19h-3.48l-3.04-6.92l-1.85,4.22h2.17l1.19,2.7h-8.03l4.91-11.19H34.87z"/>
</g>
<text transform="matrix(1 0 0 1 30.0488 34.6377)" class="st3 st4">+</text>
</svg>
