<?xml version="1.0" encoding="utf-8"?>
<!-- Generator: Adobe Illustrator 27.6.0, SVG Export Plug-In . SVG Version: 6.00 Build 0)  -->
<svg version="1.1" id="Layer_1" xmlns="http://www.w3.org/2000/svg" xmlns:xlink="http://www.w3.org/1999/xlink" x="0px" y="0px"
	 viewBox="0 0 64 64" style="enable-background:new 0 0 64 64;" xml:space="preserve">
<style type="text/css">
	.st0{fill:#EB1100;}
	.st1{font-family:'AdobeClean-ExtraBold';}
	.st2{font-size:14px;}
	.st3{fill:#EA1D25;}
	.st4{fill:#EB1000;}
</style>
<text transform="matrix(1 0 0 1 30.0488 34.6377)" class="st0 st1 st2">+</text>
<g id="g8" transform="translate(0,-0.4)">
	<path id="path6" class="st3" d="M10.5,17.1c0-0.4-0.1-0.7-0.3-1l-1.6-2.8c-0.1-0.2-0.2-0.5-0.3-0.7l-0.1,0.1
		c-0.4,0.7-0.4,1.6,0,2.3l1.3,2.3c0.4,0.7,0.4,1.6,0,2.3l-0.1,0.1c0-0.2-0.1-0.5-0.3-0.7L8,16.8l-0.8-1.3c0-0.3-0.1-0.5-0.2-0.7
		l-0.1,0.1c-0.4,0.7-0.4,1.5,0,2.3l0,0l1.3,2.3c0.4,0.7,0.4,1.6,0,2.3l-0.1,0.1c0-0.2-0.1-0.5-0.3-0.7l-1.6-2.8
		C6.1,17.9,6,17.5,6,17c-1.7,0.5-3,1.4-3,2.6c0,1.6,2.3,2.8,5.2,2.8s5.2-1.3,5.2-2.8C13.5,18.5,12.3,17.5,10.5,17.1z M15.5,21.9
		c0-0.4,0.1-0.7,0.2-1c0.5,0.3,1.3,0.4,1.8,0.4c0.9,0,1.4-0.3,1.4-0.9s-0.4-0.8-1.3-1.2L17.1,19c-0.9-0.4-1.5-0.9-1.5-2
		s0.8-1.8,2.4-1.8c0.6,0,1.2,0.1,1.8,0.3c0,0.4-0.1,0.7-0.2,1c-0.5-0.2-1.2-0.3-1.6-0.3c-0.9,0-1.2,0.3-1.2,0.9
		c0,0.5,0.4,0.8,1.1,1.1l0.5,0.2c1.2,0.5,1.8,1.1,1.8,2.1c0,1.1-0.9,1.9-2.5,1.9C16.7,22.3,16,22.2,15.5,21.9z M25.3,17.2v4.9h-1
		v-0.6c-0.3,0.4-0.7,0.7-1.4,0.7c-1.3,0-2.2-1-2.2-2.6c0-1.7,0.9-2.7,2.7-2.7C24.1,17,24.7,17,25.3,17.2z M24.2,21v-3.1
		c-0.2,0-0.5,0-0.8,0c-1.1,0-1.6,0.7-1.6,1.8c0,1,0.4,1.7,1.4,1.7C23.6,21.4,23.9,21.2,24.2,21z M30.8,18.8v3.3h-1.1V19
		c0-0.8-0.3-1.1-1.3-1.1c-0.3,0-0.5,0-0.9,0.1v4.2h-1.1v-4.9c0.7-0.2,1.5-0.3,2-0.3C30.2,17,30.8,17.7,30.8,18.8z M33.8,21.4
		c0.3,0,0.6,0,0.8-0.1c0,0.3-0.1,0.6-0.1,0.9c-0.3,0.1-0.6,0.2-0.9,0.2c-1,0-1.7-0.5-1.7-1.7v-5.2c0.3-0.1,0.7-0.2,1.1-0.2v1.9h1.7
		c0,0.3,0,0.6-0.1,0.9H33v2.4C33,21.1,33.3,21.4,33.8,21.4z M39.6,17.2v4.9h-1v-0.6c-0.3,0.4-0.7,0.7-1.4,0.7c-1.3,0-2.2-1-2.2-2.6
		c0-1.7,0.9-2.7,2.7-2.7C38.4,17,39,17,39.6,17.2L39.6,17.2z M38.5,21v-3.1c-0.2,0-0.5,0-0.8,0c-1.1,0-1.6,0.7-1.6,1.8
		c0,1,0.4,1.7,1.4,1.7C37.9,21.4,38.2,21.2,38.5,21z M45.1,18.8v3.3H44V19c0-0.8-0.3-1.1-1.3-1.1c-0.3,0-0.5,0-0.9,0.1v4.2h-1.1
		v-4.9c0.7-0.2,1.5-0.3,2-0.3C44.5,17,45.1,17.7,45.1,18.8L45.1,18.8z M50.6,15.3v6.9h-1v-0.6c-0.3,0.5-0.7,0.7-1.4,0.7
		c-1.3,0-2.2-1-2.2-2.6c0-1.7,0.9-2.7,2.7-2.7c0.3,0,0.5,0,0.8,0.1v-1.6C49.8,15.3,50.2,15.3,50.6,15.3z M49.5,21v-3
		c-0.3,0-0.6-0.1-0.9-0.1c-1.1,0-1.6,0.7-1.6,1.8c0,1,0.4,1.7,1.4,1.7C48.9,21.4,49.2,21.2,49.5,21L49.5,21z M56,20h-3.5
		c0.1,0.9,0.6,1.3,1.6,1.3c0.6,0,1.2-0.1,1.7-0.4c0,0.3-0.1,0.7-0.2,1c-0.5,0.2-1,0.3-1.6,0.3c-1.8,0-2.7-1-2.7-2.7
		c0-1.5,0.7-2.6,2.4-2.6c1.5,0,2.2,1,2.2,2.2C56.1,19.5,56.1,19.8,56,20L56,20z M52.6,19.1H55c0-0.8-0.4-1.3-1.2-1.3
		C53,17.9,52.6,18.3,52.6,19.1z M59.8,17c0,0.3,0,0.7-0.1,0.9c-0.3,0-0.5,0-0.8,0s-0.5,0-0.8,0v4.2H57v-4.9c0.5-0.2,1.2-0.3,1.8-0.3
		C59.2,17,59.6,17,59.8,17z"/>
</g>
<polygon class="st4" points="33.2,44.7 30.5,51.4 33.8,51.4 34.9,54.7 25,54.7 31.2,40 35.4,40 41.6,54.7 37.2,54.7 33.2,44.7 "/>
</svg>
