<?xml version="1.0" encoding="utf-8"?>
<!-- Generator: Adobe Illustrator 27.5.0, SVG Export Plug-In . SVG Version: 6.00 Build 0)  -->
<svg version="1.1" id="Layer_1" xmlns="http://www.w3.org/2000/svg" xmlns:xlink="http://www.w3.org/1999/xlink" x="0px" y="0px"
	 viewBox="0 0 64 64" style="enable-background:new 0 0 64 64;" xml:space="preserve">
<style type="text/css">
	.st0{fill:#FA0F00;}
	.st1{fill:#FFFFFF;}
	.st2{font-family:'AdobeClean-ExtraBold';}
	.st3{font-size:14px;}
	.st4{fill:#406EB3;}
	.st5{fill:#632678;}
	.st6{fill:#982881;}
	.st7{fill:#BA2F7D;}
	.st8{fill:#26478D;}
	.st9{fill-rule:evenodd;clip-rule:evenodd;fill:#26478D;}
	.st10{fill:none;}
</style>
<g id="surface1">
	<path class="st0" d="M23,42.2c0-1.8,1.4-3.2,3.2-3.2h14c1.8,0,3.2,1.4,3.2,3.2v14c0,1.8-1.4,3.2-3.2,3.2h-14
		c-1.8,0-3.2-1.4-3.2-3.2V42.2z"/>
	<path class="st0" d="M26.2,39h14c1.8,0,3.2,1.4,3.2,3.2v14c0,1.8-1.4,3.2-3.2,3.2h-14c-1.8,0-3.2-1.4-3.2-3.2v-14
		C23,40.5,24.5,39,26.2,39z"/>
	<path class="st1" d="M34.9,43.7l4.9,11.2h-3.5l-3-6.9l-1.9,4.2h2.2l1.2,2.7h-8l4.9-11.2C31.6,43.7,34.9,43.7,34.9,43.7z"/>
</g>
<text transform="matrix(1 0 0 1 30.0488 34.6377)" class="st2 st3">+</text>
<g id="Artwork">
	<g>
		<g>
			<path class="st4" d="M19.1,9.8h-1.3c-0.4,0-0.7-0.3-0.7-0.7V7.7C17,7.3,17.3,7,17.7,7h1.3c0.4,0,0.7,0.3,0.7,0.7v1.3
				C19.8,9.5,19.5,9.8,19.1,9.8"/>
			<path class="st5" d="M15.6,12.8h-1.5c-0.4,0-0.8-0.4-0.8-0.8v-1.5c0-0.4,0.4-0.8,0.8-0.8h1.5c0.4,0,0.8,0.4,0.8,0.8V12
				C16.4,12.4,16,12.8,15.6,12.8"/>
			<path class="st6" d="M15.5,15.9h-0.9c-0.3,0-0.5-0.2-0.5-0.5v-0.9c0-0.3,0.2-0.5,0.5-0.5h0.9c0.3,0,0.5,0.2,0.5,0.5v0.9
				C16,15.7,15.7,15.9,15.5,15.9"/>
			<path class="st7" d="M17.9,18.8h-1.1c-0.3,0-0.6-0.3-0.6-0.6v-1.1c0-0.3,0.3-0.6,0.6-0.6h1.1c0.3,0,0.6,0.3,0.6,0.6v1.1
				C18.5,18.5,18.2,18.8,17.9,18.8"/>
			<path class="st7" d="M21.9,10.3h-0.8c-0.2,0-0.4-0.2-0.4-0.4V9.2c0-0.2,0.2-0.4,0.4-0.4h0.8c0.2,0,0.4,0.2,0.4,0.4v0.8
				C22.3,10.2,22.1,10.3,21.9,10.3"/>
			<path class="st8" d="M41.5,17.2c0.2,0,0.4-0.2,0.4-0.4c0-0.2-0.2-0.4-0.4-0.4c-0.2,0-0.4,0.2-0.4,0.4
				C41.1,17,41.2,17.2,41.5,17.2z"/>
			<path class="st8" d="M25.7,21.8c-0.1,0.1-0.2,0.2-0.3,0.2c-0.1,0-0.1,0-0.2-0.1c-0.1-0.1-0.2-0.2-0.2-0.3c0-0.1,0-0.1,0.1-0.2
				l1-1.6l-1-1.6c0-0.1-0.1-0.1-0.1-0.2c0-0.1,0.1-0.2,0.2-0.3c0.1,0,0.1-0.1,0.2-0.1c0.1,0,0.2,0.1,0.3,0.2l0.8,1.3l0.8-1.3
				c0.1-0.1,0.2-0.2,0.3-0.2c0.1,0,0.1,0,0.2,0.1c0.1,0.1,0.2,0.2,0.2,0.3c0,0.1,0,0.1-0.1,0.2l-1,1.6l1,1.6c0,0.1,0.1,0.1,0.1,0.2
				c0,0.1-0.1,0.3-0.2,0.3c-0.1,0-0.1,0.1-0.2,0.1c-0.1,0-0.2-0.1-0.3-0.2l-0.8-1.3L25.7,21.8z"/>
			<path class="st8" d="M29.2,18.2c0.4-0.3,0.9-0.6,1.4-0.6c1.2,0,2.2,1,2.2,2.2c0,1.2-1,2.2-2.2,2.2c-0.6,0-1.1-0.2-1.4-0.6v1.9
				c0,0.2-0.2,0.3-0.4,0.3c-0.2,0-0.4-0.2-0.4-0.3v-5.2c0-0.2,0.2-0.3,0.4-0.3c0.2,0,0.4,0.2,0.4,0.3V18.2z M30.7,18.4
				c-0.8,0-1.4,0.6-1.4,1.4c0,0.8,0.6,1.4,1.4,1.4c0.8,0,1.4-0.6,1.4-1.4C32.1,19.1,31.5,18.4,30.7,18.4z"/>
			<path class="st8" d="M39,19.5v2.2c0,0.2-0.2,0.3-0.4,0.3c-0.2,0-0.4-0.2-0.4-0.3v-3.6c0-0.2,0.2-0.3,0.4-0.3
				c0.2,0,0.3,0.2,0.4,0.3c0.3-0.2,0.7-0.4,1.1-0.4c0.2,0,0.4,0.2,0.4,0.4c0,0.2-0.2,0.4-0.4,0.4C39.5,18.4,39,18.6,39,19.5z"/>
			<path class="st8" d="M41.5,17.7c-0.2,0-0.4,0.2-0.4,0.3v3.6c0,0.2,0.2,0.3,0.4,0.3c0.2,0,0.4-0.2,0.4-0.3v-3.6
				C41.8,17.9,41.7,17.7,41.5,17.7z"/>
			<path class="st8" d="M46,18.1c0-0.2,0.2-0.3,0.4-0.3c0.2,0,0.4,0.2,0.4,0.3v3.6c0,0.2-0.2,0.3-0.4,0.3c-0.2,0-0.4-0.2-0.4-0.3
				v-0.2c-0.4,0.3-0.9,0.6-1.4,0.6c-1.2,0-2.2-1-2.2-2.2c0-1.2,1-2.2,2.2-2.2c0.6,0,1.1,0.2,1.4,0.6V18.1z M44.6,21.3
				c0.8,0,1.4-0.6,1.4-1.4c0-0.8-0.6-1.4-1.4-1.4c-0.8,0-1.4,0.6-1.4,1.4C43.2,20.7,43.8,21.3,44.6,21.3z"/>
			<path class="st8" d="M50.4,19.5c0-0.6-0.5-1.1-1.1-1.1c-0.6,0-1.1,0.2-1.1,1.1v2.2c0,0.2-0.2,0.3-0.4,0.3c-0.2,0-0.4-0.2-0.4-0.3
				v-3.6c0-0.2,0.2-0.3,0.4-0.3c0.2,0,0.3,0.2,0.4,0.3c0.3-0.2,0.7-0.4,1.1-0.4c1,0,1.8,0.8,1.8,1.7v2.2c0,0.2-0.2,0.3-0.4,0.3
				c-0.2,0-0.4-0.2-0.4-0.3L50.4,19.5L50.4,19.5z"/>
			<path class="st8" d="M24.8,19.7c0-1.1-1-2-2.2-2c-1.2,0-2.2,1-2.2,2.2c0,1.2,1,2.2,2.2,2.2c0.6,0,1.1-0.2,1.5-0.6
				c0.1-0.1,0.1-0.2,0.1-0.3c0-0.2-0.2-0.4-0.4-0.4c-0.1,0-0.2,0.1-0.3,0.1c-0.2,0.3-0.6,0.4-1,0.4c-0.7,0-1.3-0.5-1.4-1.2h3.2
				c0,0,0,0,0,0h0c0,0,0,0,0,0c0,0,0,0,0,0C24.7,20.1,24.8,19.9,24.8,19.7z M22.7,18.4c0.6,0,1.2,0.4,1.4,1h-2.8
				C21.5,18.8,22,18.4,22.7,18.4z"/>
			<path class="st8" d="M37.7,19.7c0-1.1-1-2-2.2-2c-1.2,0-2.2,1-2.2,2.2c0,1.2,1,2.2,2.2,2.2c0.6,0,1.1-0.2,1.5-0.6
				c0.1-0.1,0.1-0.2,0.1-0.3c0-0.2-0.2-0.4-0.4-0.4c-0.1,0-0.2,0.1-0.3,0.1c-0.2,0.3-0.6,0.4-1,0.4c-0.7,0-1.3-0.5-1.4-1.2h3.2
				c0,0,0,0,0,0h0c0,0,0,0,0,0c0,0,0,0,0,0C37.5,20.1,37.7,19.9,37.7,19.7z M35.5,18.4c0.6,0,1.2,0.4,1.4,1h-2.8
				C34.3,18.8,34.9,18.4,35.5,18.4z"/>
			<g>
				<path class="st8" d="M22.7,11.3c-1.2,0-2.2,1-2.2,2.2c0,1.2,1,2.2,2.2,2.2c0.6,0,1.1-0.2,1.5-0.6c0.1-0.1,0.1-0.2,0.1-0.3
					c0-0.2-0.2-0.4-0.4-0.4c-0.1,0-0.2,0.1-0.3,0.1c-0.2,0.3-0.6,0.4-1,0.4c-0.7,0-1.3-0.5-1.4-1.2h3.2c0,0,0,0,0,0h0c0,0,0,0,0,0
					c0,0,0,0,0,0c0.2,0,0.3-0.2,0.3-0.4C24.8,12.3,23.8,11.3,22.7,11.3z M21.3,13c0.2-0.6,0.7-1,1.4-1c0.6,0,1.2,0.4,1.4,1H21.3z"/>
				<path class="st8" d="M31.4,11.4c-0.2,0-0.4,0.2-0.4,0.3v0.2c-0.4-0.3-0.9-0.6-1.4-0.6c-1.2,0-2.2,1-2.2,2.2c0,1.2,1,2.2,2.2,2.2
					c0.6,0,1.1-0.2,1.4-0.6v0.2c0,0.2,0.2,0.3,0.4,0.3c0.2,0,0.4-0.2,0.4-0.3v-3.6C31.7,11.5,31.6,11.4,31.4,11.4z M29.6,14.9
					c-0.8,0-1.4-0.6-1.4-1.5c0-0.8,0.6-1.4,1.4-1.4c0.8,0,1.4,0.6,1.4,1.4C31,14.3,30.4,14.9,29.6,14.9z"/>
				<path class="st8" d="M39.3,11.4c-0.2,0-0.4,0.2-0.4,0.3v0.2c-0.4-0.3-0.9-0.6-1.4-0.6c-1.2,0-2.2,1-2.2,2.2c0,1.2,1,2.2,2.2,2.2
					c0.6,0,1.1-0.2,1.4-0.6v0.2c0,0.2,0.2,0.3,0.4,0.3c0.2,0,0.4-0.2,0.4-0.3v-3.6C39.7,11.5,39.5,11.4,39.3,11.4z M37.5,14.9
					c-0.8,0-1.4-0.6-1.4-1.5c0-0.8,0.6-1.4,1.4-1.4c0.8,0,1.4,0.6,1.4,1.4C38.9,14.3,38.3,14.9,37.5,14.9z"/>
				<path class="st8" d="M27.2,11.3c-0.4,0-0.8,0.1-1.1,0.4c0-0.2-0.2-0.3-0.4-0.3c-0.2,0-0.4,0.2-0.4,0.3v3.6
					c0,0.2,0.2,0.3,0.4,0.3c0.2,0,0.4-0.2,0.4-0.3v-2.2c0-0.8,0.5-1,1.1-1.1c0.2,0,0.4-0.2,0.4-0.4C27.6,11.5,27.4,11.3,27.2,11.3z"
					/>
				<path class="st9" d="M19.4,13.4c-0.3-0.1-0.5-0.3-0.8-0.4c-0.1-0.1-0.2-0.1-0.3-0.2c-0.2-0.2-0.2-0.5,0.1-0.6
					c0.1,0,0.2-0.1,0.2-0.1c0.2,0,0.5,0,0.7,0.2c0.1,0.1,0.2,0.1,0.3,0.1c0.1,0,0.2,0,0.3-0.1c0.1-0.1,0.1-0.2,0-0.3
					c-0.1-0.1-0.1-0.2-0.2-0.2c-0.3-0.2-0.6-0.3-1-0.3c-0.3,0-0.5,0.1-0.8,0.2c-0.5,0.3-0.7,0.8-0.5,1.4c0.1,0.3,0.3,0.5,0.6,0.6
					c0.2,0.1,0.4,0.2,0.7,0.3c0.2,0.1,0.4,0.2,0.5,0.3c0.2,0.2,0.2,0.4,0.1,0.6c-0.1,0.1-0.2,0.2-0.4,0.2c-0.3,0-0.6,0-0.8-0.2
					c-0.1-0.1-0.2-0.1-0.3-0.1c-0.3-0.1-0.5,0.1-0.5,0.4c0,0.1,0.1,0.2,0.2,0.3c0.5,0.4,1.3,0.5,1.9,0.2c0.6-0.3,0.8-1,0.5-1.6
					C19.8,13.7,19.6,13.5,19.4,13.4z"/>
				<path class="st9" d="M34.3,13.4c-0.3-0.1-0.5-0.3-0.8-0.4c-0.1-0.1-0.2-0.1-0.3-0.2c-0.2-0.2-0.2-0.5,0.1-0.6
					c0.1,0,0.2-0.1,0.2-0.1c0.2,0,0.5,0,0.7,0.2c0.1,0.1,0.2,0.1,0.3,0.1c0.1,0,0.2,0,0.3-0.1c0.1-0.1,0.1-0.2,0-0.3
					c-0.1-0.1-0.1-0.2-0.2-0.2c-0.3-0.2-0.6-0.3-1-0.3c-0.3,0-0.5,0.1-0.8,0.2c-0.5,0.3-0.7,0.8-0.5,1.4c0.1,0.3,0.3,0.5,0.6,0.6
					c0.2,0.1,0.4,0.2,0.7,0.3c0.2,0.1,0.4,0.2,0.5,0.3c0.2,0.2,0.2,0.4,0.1,0.6c-0.1,0.1-0.2,0.2-0.4,0.2c-0.3,0-0.6,0-0.8-0.2
					c-0.1-0.1-0.2-0.1-0.3-0.1c-0.3-0.1-0.5,0.1-0.5,0.4c0,0.1,0.1,0.2,0.2,0.3c0.5,0.4,1.3,0.5,1.9,0.2c0.6-0.3,0.8-1,0.5-1.6
					C34.7,13.7,34.5,13.5,34.3,13.4z"/>
			</g>
		</g>
		<g>
			<g>
				<path class="st8" d="M51.9,22C51.8,22,51.8,22,51.9,22l-0.1-0.7h-0.1c0,0-0.1,0-0.1-0.1c0,0,0-0.1,0.1-0.1H52c0,0,0.1,0,0.1,0.1
					c0,0,0,0.1-0.1,0.1h-0.1L51.9,22C51.9,22,51.9,22,51.9,22z"/>
			</g>
			<g>
				<path class="st8" d="M52.5,22C52.5,22,52.5,22,52.5,22l-0.2-0.5v0.5c0,0,0,0.1-0.1,0.1c0,0-0.1,0-0.1-0.1v-0.6
					c0,0,0-0.1,0.1-0.1c0,0,0.1,0,0.1,0.1l0.2,0.5l0.2-0.5c0,0,0-0.1,0.1-0.1c0,0,0.1,0,0.1,0.1v0.6c0,0,0,0.1-0.1,0.1
					c0,0-0.1,0-0.1-0.1v-0.5c0,0.1-0.1,0.2-0.1,0.3C52.6,21.9,52.6,21.9,52.5,22C52.6,22,52.6,22,52.5,22z"/>
			</g>
		</g>
	</g>
</g>
<g id="Clear_Space">
	<g>
		<path class="st10" d="M12.7,12.5h-1.1c-0.3,0-0.6-0.3-0.6-0.6v-1.1c0-0.3,0.3-0.6,0.6-0.6h1.1c0.3,0,0.6,0.3,0.6,0.6v1.1
			C13.3,12.2,13,12.5,12.7,12.5"/>
		<path class="st10" d="M10.5,12.5H9.4c-0.3,0-0.6-0.3-0.6-0.6v-1.1c0-0.3,0.3-0.6,0.6-0.6h1.1c0.3,0,0.6,0.3,0.6,0.6v1.1
			C11,12.2,10.8,12.5,10.5,12.5"/>
		<path class="st10" d="M30.2,24.2v1.1c0,0.3-0.3,0.6-0.6,0.6h-1.1c-0.3,0-0.6-0.3-0.6-0.6v-1.1c0-0.3,0.3-0.6,0.6-0.6h1.1
			C30,23.7,30.2,23.9,30.2,24.2"/>
		<path class="st10" d="M30.2,26.5v1.1c0,0.3-0.3,0.6-0.6,0.6h-1.1c-0.3,0-0.6-0.3-0.6-0.6v-1.1c0-0.3,0.3-0.6,0.6-0.6h1.1
			C30,25.9,30.2,26.2,30.2,26.5"/>
		<path class="st10" d="M17.4,6.4V5.3c0-0.3,0.3-0.6,0.6-0.6h1.1c0.3,0,0.6,0.3,0.6,0.6v1.1c0,0.3-0.3,0.6-0.6,0.6H18
			C17.7,7,17.4,6.7,17.4,6.4"/>
		<path class="st10" d="M17.4,4.2V3.1c0-0.3,0.3-0.6,0.6-0.6h1.1c0.3,0,0.6,0.3,0.6,0.6v1.1c0,0.3-0.3,0.6-0.6,0.6H18
			C17.7,4.8,17.4,4.5,17.4,4.2"/>
		<path class="st10" d="M55,21.1h-1.1c-0.3,0-0.6-0.3-0.6-0.6v-1.1c0-0.3,0.3-0.6,0.6-0.6H55c0.3,0,0.6,0.3,0.6,0.6v1.1
			C55.6,20.8,55.3,21.1,55,21.1"/>
		<path class="st10" d="M52.8,21.1h-1.1c-0.3,0-0.6-0.3-0.6-0.6v-1.1c0-0.3,0.3-0.6,0.6-0.6h1.1c0.3,0,0.6,0.3,0.6,0.6v1.1
			C53.4,20.8,53.1,21.1,52.8,21.1"/>
	</g>
</g>
</svg>
